<svg xmlns="http://www.w3.org/2000/svg" xml:space="preserve" id="Layer_1" x="0" y="0" style="enable-background:new 0 0 200 65.1" version="1.1" viewBox="0 0 200 65.1"><style>.st0{fill:#ce2c24}.st1{fill:#fff}</style><path d="M27.8 58.4s0-.3-.2-.6-.5-.6-.9-.6c-.4.2-1.1 0-1.6 0-.4 0-1.1 0-1.4.6-.2 0-.2 0-.2-.3-.2-.2-.7-.1-.9-.1-.5 0-.9-.3-1.4.3H21c-.2-.3-.7-.3-.9-.3-.7.2 1.1 0 .7 0-.4 0-.7 0-1.1.2h-.2c-.2-.3-.5-.4-.9-.1-.2 0-.4-.1-.7-.2-.3 0-.7 0-1 .1-.4-.1-.9-.1-1.3 0H13.9c-.2.3-.5.3-.9 0h-1.8c-.2 0-.3.3-.4.3H3.2c-.9 0-1.6-.5-2.2-.2-.2.3-.5.2-.7.4-.4.6 0 1.2 0 1.7.2.6.5.9.9.9H5.5c.4 0 .9-.3 1.1-.3.5.2.9.2 1.3.2.7-.2 1.1-.3 1.8-.3.5.2.7.2 1.1.2.2 0 .4 0 .6-.1h.7c.1 0 .2.2.4.3.2 0 .6-.1.9-.1h.2c.4.3 1 .1 1.5.1.2 0 1-.2 1-.4v.4h.2c.3 0 .8.1 1.1.1.4 0 1.1-.3 1.6-.1.4 0 .6 0 .8-.2 0 0 .1 0 .1.3h1.6c.5 0-1.3-.3-.9 0h2.5c.9.3 1.8 0 2.7 0h.9c.7.3.9-.1 1.1-.7.2-.3.2-.6.2-.6.1-.2.1-.6-.2-.9zM2 59.7h.2H2zm.3-.9s-.2-.3 0-.3c0 .3.2.3.2.3h-.2zm.8.3h-.2c0-.3.2-.3.2-.3v.3zm1.4.3v-.6.6zm1.6-.7h.2s0 .3-.2 0zm.9.1c0 .3 0 .3-.2.6-.3-.3-.1-.3.2-.6-.2-.3-.5-.3-.2-.6.2.6.2.6.7 0-.1.6-.3.6-.5.6zm.6.1s.2 0 .2-.2h.1c-.2.2-.1.2-.1.2h-.2zm.4-.3h.2v.2c-.1.3-.2.1-.2-.2zm.5.3c-.2 0-.3 0-.3-.2.3-.1.3-.1.3.2zm.3-.1c.2 0 .2 0 .2.3-.2 0-.2-.1-.2-.3zm8-.4c.1.1.1.1 0 0 .1.1 0 .1 0 .1v-.1zm1.6.7zm.1 0h.1-.1zm-5.3-.1h-.1l.1-.1v.1zm-3.7.1v-.3c.2 0 .2 0 .2.2-.1.1-.1.1-.2.1zm.2-.1c.1-.2.1-.1.1.1.1 0 0-.1-.1-.1zm11.1-.2s0-.1-.2-.1l.2.1c.2-.1.2-.2.2.3-.2-.2-.2-.3-.2-.3zm1-.4c.2 0 .2 0 .2.3 0 0-.2 0-.2-.3zm.9.6-.2-.3h.2l.2.3h-.2zm.2.6v-.3h.2c0 .3-.2.3-.2.3zm.7-.9h.2-.2zm1.3 0v.3c-.4-.3 0-.3 0-.3zm-.2.9v-.3c.2 0 .2 0 .2.3h-.2zm1.6-.9v-.3c0 .3 0 .3.2.3h-.2zM164.9 59.3s0 .3.3.7c.3.6.5 1 1.3.7h1.1c1 0 2.1.3 3.1 0h2.9c.5-.3 1 0 1.6 0h1.8c.1-.3.1-.3.2-.3.2.2.5.3.9.3.5-.2 1.3.1 1.8.1.4 0 1-.1 1.3-.1h.5v-.4c.6.2.8.4 1.1.4.5 0 1.1.3 1.6-.1h.3c.3 0 .8.1 1 .1.1 0 .3-.2.4-.2h.8c.2 0 .4.1.6.1.5 0 .8 0 1.3-.3.8 0 1.3 0 2.1.2.5 0 1 .1 1.6-.2.3 0 .8.3 1.3.3h5c.5 0 .8-.3 1.1-.9 0-.6.5-1.1 0-1.7-.3-.3-.5-.1-.8-.4-.8-.3-1.6.2-2.6.2h-9c-.1 0-.3-.3-.5-.3h-2.1c-.5.3-.8.3-1.1 0H182s-.1-.1-.1 0c-.5-.1-1 0-1.6 0-.4-.1-.8-.1-1.2-.1-.3.1-.5.1-.8.2-.5-.3-.9-.2-1.1.1h-.3c-.5-.2-.8-.2-1.3-.2s-1.1.3-1.8.1c-.2 0-.7 0-1 .3h-.3c-.5-.6-1-.3-1.6-.3-.3 0-.8-.1-1 .2 0 .3 0 .3-.3.3-.3-.6-1.1-.6-1.6-.6s-1.3.2-1.8 0c-.5 0-.8.2-1.1.6-.3.3-.3.6-.3.6-.1 0-.1.3.1.6zm32.5.4h.3-.3zm-.2-.9s.2 0 .2-.3c.3 0 0 .3 0 .3h-.2zm-.8 0s.3 0 .3.3h-.3v-.3zm-1.1 0c.3.3.3.3 0 .6v-.6zm-2.6-.1h.3c-.3.3-.3 0-.3 0zm-1.3-.4c.5.6.5.6.8 0 .3.3 0 .3-.3.6.3.3.5.3.3.6-.3-.3-.3-.3-.3-.6-.3-.1-.5-.1-.5-.6zm-.5.6-.2-.2h.2c0 .2.3.2.3.2h-.3zm-.5-.1v-.2h.2c0 .3 0 .5-.2.2zm0-.2c0 .2 0 .2-.3.2 0-.2 0-.2.3-.2zm-.9.5c0-.3 0-.3.2-.3.1.2 0 .3-.2.3zm-9.1-.7c0 .1 0 .1 0 0 0 .1-.1.1-.1.1l.1-.1zm-1.9.7zm-.1 0h-.1.1zm6.2-.2c.1 0 .1.1.1.1h-.1v-.1zm4.2.2s-.1 0 0 0c-.1-.3 0-.3.2-.3v.3h-.2zm-.3 0c0-.2 0-.3.1-.1-.1 0-.1.1-.1.1zm-15.7 0c0-.5 0-.3.3-.3h.3c-.3 0-.3.1-.3.1s0-.1-.3.2zm-1.1-.4c0-.3 0-.3.3-.3 0 .3-.3.3-.3.3zm-1 .3.3-.3h.3l-.3.3h-.3zm-.3.3h.3v.3s-.3 0-.3-.3zm-.8-.6h.3-.3zm-1 .3v-.3s.6 0 0 .3zm-.3.6c0-.3 0-.3.3-.3v.3h-.3zm-1.8-.9c.3 0 .3 0 .3-.3v.3h-.3z" class="st0"/><path d="M32.5 61.3v-3.1c0-.1.1-.3 0-.4v-.4c0-.4-.1-.9 0-1.4.1 0 0-.1 0-.1v-.8c-.1-.4 0-.8 0-1.2 0 0 0-.1.1-.1 0 0 0-.1.1-.3 0 0 0-.1.1-.1.3-.1.9 0 1.1.4v.1c.3.1.3.5.3.8 0 .1.1.1.1.3.1.4.3.8.4 1.3 0 .1 0 .1.1.3.3.7.4 1.2.5 1.9.1.4.4.9.4 1.3.1.1.1.1.3.1V54.1c0-.1.4-.5.5-.6.4 0 .6.1.8.5.1.1.1.4.1.5V55.7c-.1.3 0 .4 0 .7V60h-.1c.1.4 0 .7.1 1.1V63.4c-.1.3 0 .5 0 .8v.5c0 .3-.3.5-.5.5-.1 0-.4.1-.5 0-.3-.1-.5-.4-.5-.6 0-.1-.1-.4-.1-.5l-.1-.1c.1-.3-.1-.5-.1-.8-.3-.4-.4-.8-.4-1.3v-.1c-.3-.3-.3-.5-.4-.9v-.1c-.1-.3-.3-.5-.3-.8-.1-.4-.3-.6-.4-1H34c-.1.1-.1.3 0 .4 0 .4.1.8 0 1.2v1.3c-.1.4 0 .8 0 1.2v1.5c.1.4-.1.8-.4.9 0 .1-.1.1-.1.1s-.6-.1-.6-.3c-.1-.1-.3-.3-.3-.5v-.1c0-1.5-.1-2.4-.1-3.4zm.3-7s.1 0 .1.1c.1-.1.1-.1-.1-.1zm0 .2h.2-.2zm.2 1.2h-.1c.1 0 .1 0 .1.1v-.1zm-.2.3.1.1V56h-.1zm.2 1v-.1h-.1c.1 0 .1.1.1.1zm-.2.3v.1-.1zm.2 4.3s-.2 0 0 0v.1c.1 0 .1-.1.1-.1H33zm.1-6.9H33v.1s.1 0 .1-.1zm-.1.6v.1-.1zm0 2.7v-.1.1zm0 1.4v-.1.1zm0 2.6h.1c0-.1 0-.1-.1-.1v.1zM33.2 61.3h-.1c-.1.1 0 .1 0 .1.1 0 .1.1.1.1h-.1.1v-.2zm0-7.2h-.1.1zm0 2.1v-.1h-.1.1v.1zm-.1.7h.1-.1zm.1 1.3c0-.1-.1-.1-.1-.1v.2-.1h.2v.1-.1h-.1zm-.1 1.6v.1c.1 0 0-.1 0-.1zM33.2 55.7c0 .1-.1.1 0 .1 0 .1 0 .1.1.1v.1s0-.1-.1-.1V55.6c-.1 0 0 .1 0 .1zm.2.7h-.1c0 .1 0 .1.1.1v-.1zm0 1h-.1.1zm-.2 1.6v-.1.1zm0 1.3.1.1-.1-.1zm0 .4v.1-.1zm.2 2c0-.1-.1 0-.1 0v-.1c-.1.1-.1.1.1.1zm0-3.2s-.2 0 0 0v-.1.1zm.1-5.4h-.1c0-.1 0 0 0 0h.1v.1-.1zm-.1 1.1v.1h.1l-.1-.1zm0 1.6v.1-.1zm0 .5v-.1.1zm.1.7s-.1 0-.1.1h.1s0-.1.1-.1v-.1h-.1v.1zm-.1 1v.1-.1zm.1 3.2h-.1.1zm0-7.3h.1-.1zm0 2.5h.1-.1zm0 1.2v-.1.1zm.1-3.4h.1-.1zm0 .1.1.1v-.1h-.1zm.2.4h.1c0-.1-.1-.1-.1-.1h-.1.1v.1h-.1.1zm-.2.9v.1-.1zm.2 1.1h-.1.1zm0-1.5s-.2 0 0 0c0 .1.1 0 .1.1l.1-.1h-.2zm.1 1.2h-.1s0-.1 0 0h.1zm.3.6c-.1-.1-.1-.1-.3-.1 0 0-.1 0-.1.1h.4v-.1.1zm-.2-2.1-.1.1.1-.1zm.2.7s-.1 0-.1.1v-.1s-.1-.1-.1 0l.1.1.1.1h-.3.3-.2c.2 0 .2-.2.2-.2zm-.2-.5s.1 0 .1.1v-.1H34zm.3.5h.1-.1v.1c.1 0 .1 0 .1-.1h-.1s.1 0 0 0zm.1.8s.1.1.1 0h-.1c0-.1-.1-.1-.1-.1h.1v.1zm.1.3.1.1v-.1h-.1zm.3 1.2v-.1h-.1c0 .1.1.1.1.1zm-.1.2h.1-.1zm.2-.5c-.1 0 0 0 0 .1v.1c.1 0 .1-.1.1-.1h-.1v-.1zm.2.7v-.1c.1 0 .1.1.1 0h-.1v.1zm.1 1.3c.1 0 .1-.1.1-.1.1 0 .1 0 .1-.1h-.1s0 .1-.1.1v.1h-.1s.1-.1 0-.1v.1h.1zm0-.9h.1s-.1.1 0 .1v-.1h-.1zm0 .4v.1-.1h.1-.1zm.3 1.7h.1l-.1-.1v.1zm.1-1.1v-.1.1zm.3 1.2v.1-.1zm.2.3c0 .1.1.3.1.3.1 0 0-.1 0-.1s.1 0 0 0c.1-.1.1-.1-.1-.2 0-.1 0-.1-.1 0v.1h-.1.1s.1 0 .1-.1zm-.2.6h.1-.1zm.1-1.2v.1s-.1 0 0 0v-.1zm.1-.6v.1h.1V61s.1-.1 0-.1v.1H36h.1zm0-.5h.1s0-.1-.1-.1v.1zm.2 1.3c-.1 0-.1.1-.1.1h.1v-.1zm-.2.9c.2 0 0 0 0 0v.1-.1zm0 .3v-.1.1zm.3-2.8c0-.1-.1-.1-.1-.1 0-.1.1 0 .1-.1-.1 0-.1.1-.1.1 0 .1 0 .1.1.1zm-.1 1.3h.1-.1zm.1 1.6V63c-.1 0-.1.1-.1.1h.1zm-.1.4v.1h.1v-.1h-.1zm.4-4.6s0-.3-.1-.1h-.1c0 .1.2.1.2.1v.1-.1zm-.2.1s0 .1-.1.1h.1V59zm0 .7s0 .1.1.1h.1-.1c-.1 0-.1-.1-.1-.1h-.1s0 .1.1 0zm-.1 4.6s.1 0 0 0v-.1.1zm.1-10h.1c0-.1.1-.1 0-.1v.1h-.1zm0 .4v-.3.3zm0 .1h.1v-.1.1h-.1zm0 .1h.1-.1s0 .1 0 0zm0 1.7v.1-.1zm.2.3h-.1.1s-.2 0 0 0zm-.2.8h.1l.1-.1c0-.2-.2 0-.2.1zm0 3.3v-.1.1zm0 2v.1c.1 0 .1-.1.1-.1h-.1zm.2 1.1c-.1.1 0 .1.1.1 0 .1-.1.1 0 .1v-.2h-.1zm0-8.9v-.1.1zm0 .7v.2h.2-.2v-.2zm.1 1.5h-.1v-.1c.1 0 .1-.1.1-.1-.1 0-.1.1-.1.1v.1h.1zm0 .8v-.3l.1.1c.1 0 .1-.1 0-.1l-.1-.1s.1 0 0 0v.1h-.1v.1c0 .1 0 .2.1.2l-.1.1c0-.1.1-.1.1-.1zm0 3.7v-.1h-.1s0 .1.1.1zm0 .9v-.1h-.1v.1h.1zm0 .6v-.1.1h-.1.1zm0-7.8v.1h.1c0-.1-.1-.1-.1-.1h.1-.1zm0 .4h.1v-.1s.1 0 0 0v.1s-.1 0-.1-.1v.1zm0 .9h.1l-.1-.1v.1zm0 3.4h.1-.1zm.1 3.7h-.1.1zm.2-9.6-.1.1h.1v-.1zm-.2.5v.1c0-.1 0-.1.1-.1h-.1zm.2 1.5H37h.1zm-.2.2v-.1.1zm0 .2h.1-.1zm.2 1.8H37h.1zm-.2 1.6v-.1.1zm0 1.2h.1-.1zm.2.5c-.1 0-.1 0-.1.1h.1v-.1zm0 .9c-.1 0-.1 0-.1.1h.1v-.1zM42 56c.1.4.1.6.2 1.1v.5c.1.8.3 1.4.4 2.1.1.8.4 1.7.5 2.5 0 .4.1.7.3 1.1v.1c0 .1 0 .4.1.5.1.4 0 .7-.1.9-.1.1-.3.3-.4.3-.5 0-.9-.3-1.1-.8 0-.4 0-.8-.1-1.2-.3-.5-.5-.6-1.1-.6-.4 0-.6.1-.9.5v.1c0 .1 0 .1-.1.3-.1.1 0 .4 0 .7 0 .1-.1.3-.1.4-.1.5-.8.7-1.2.5-.1-.1-.3-.3-.3-.4 0-.4 0-.8.1-1.2 0-.3.1-.5.1-.9.1-.3.1-.7.3-1.1.1-.5 0-1.3.3-1.8.1-.4.3-.9.3-1.3V58c.1-.5.3-1.2.4-1.7 0-.1 0-.4.1-.5v-.4c0-.3 0-.7.1-.9.1 0 .1-.1.1-.1-.1-.4.1-.8.5-.9.1-.1.2-.1.2 0 .3 0 .4 0 .5.1.1 0 .1.1.3.3 0 .4.1.7.1 1 0 .1 0 .4.1.5.1.1.1.3.1.5v.1zm-3.3 8.3v.1-.1zm.1-.2V64s-.1 0 0 .1zm.2-1.7c0 .2 0 0 0 0 0 .1 0 .1-.1.1h.1v-.1zm.1-.3v.2H39c0 .1.1 0 .1 0h.1s-.1 0-.1-.2zm0 .7H39h.1zm-.1 1.5h.1-.1zm.1-3.1v.1-.1zm0 2.4h.1-.1zm.1-2.6v.1c-.1 0 0 0 0 0V61zm0-.6v-.1.1zm0 3.6h.1c-.1-.1-.1-.1-.1 0zm.2-4h.1c0-.1 0-.1-.1-.1v.1zm.1.8c-.1-.1-.1 0-.1 0h.1zm-.1.3h.1-.1zm.5 1.2h-.1v.1c0-.1 0-.3-.1-.3s0 .2 0 .2h-.2v.1c.1 0 .1 0 .1-.1 0 .1.1.1.1.1v.1c.1 0 .1-.1.1-.1.1 0 .1 0 .1-.1zm-.4-3.6h.1v-.1c-.1 0-.1.1-.1.1zm.1-.8h.1v-.1c-.1 0-.1 0-.1.1zm.2 1.9v-.1l-.1.1h.1zm0 .5v-.1h-.1c-.1.1-.1.1.1.1-.1 0-.1.1 0 .1 0 .1 0 0 .1 0h-.1v-.1zm-.2.7v.1h.1c.1-.1-.1-.1-.1-.1zm.2-3.6s0 .1.1 0v-.1c-.1 0-.1.1-.1.1zm.1.5-.1.1h.1v-.1zm0 3.5c-.1 0-.1 0-.1.1h.1v-.1zm0-4.6v.1s0-.1.1-.1h-.1zm0 .4V57v.2zm0 .4v.1h.1c-.1 0-.1 0-.1-.1zm0 1h.1-.1zm0 .9v.1-.1zm0 2.3h.1-.1zm.1-4.4c.1 0 .1-.1.1-.1H40v.1zm0 .9h.1-.1zm.2 2.9H40h.2c.1.1.1.1.2.1-.1-.1-.1-.1-.2-.1zm.1-5.2-.1-.1v.1h.1zm.9 2.7c-.1-.4-.3-.9-.3-1.3h-.2v.9c-.1.6-.3 1.2-.4 1.9 0 .3 0 .4.3.5.1.3.4.3.5.1.2-.1.4-.3.4-.5-.1-.3-.1-.5-.1-.7-.1-.2-.1-.5-.1-.8l-.1-.1zm-.6 3.2c0-.1 0-.3-.1-.1-.2.1.1.1.1.1zm-.2-7.5c.1 0 .1-.1.1-.1 0-.1-.1-.1-.1-.1v.2zm0 .3v.1h.1c.1 0 .1-.1-.1-.1zm0 .2v-.1.1zm0 1v-.1.1zm.2.5v-.1.1h-.1.1zm.1-.8h-.1.1zm0 .5V56h-.1s0 .1.1.1zm.1-2.1h-.1v.1c.1 0 .1 0 .1-.1zm-.1 7.8c0 .1.1.1.1.1v.1c0-.1 0-.2-.1-.2zm.2-7.7v.1h-.1.1c.2 0 .2 0 0 0v-.1zm.2.4h-.2c0-.1 0-.1-.1-.1v.1c.1.1.1 0 .1 0h.2zm-.2.7h-.1c.1 0 .1.1.1.3v-.3zm0 .9h-.1.1zM40.9 55.9v-.1.1zm0 .5h.2-.2zm.2.5c-.2 0-.2-.1-.2 0H41.2h-.1zm.1-.8c0-.1 0-.1-.1 0h.2-.1zm-.1 5.1h.1-.1zm0 .4v-.1.1zm.1-6.5c.1-.2.1-.3.1-.3h-.1v.3zm0 .8c.1 0 .1-.1.1-.3-.1 0-.1.1-.1.3zm0 .7h.1-.1zm0 .6v.2c0-.1.1-.1.1-.1v-.1h-.1zm.3.5h-.1.1s0-.1 0 0zm.1-.8h-.1s0 .1.1 0zm0 1c0-.1 0-.1-.1-.1v.1h.1zm0 3.7v.1h-.1v.1-.1h.1v-.1zm0-4.4c-.1 0 0 .1 0 .2V57.1v.1zm0-.6v-.1.1zm0 .2h.1s0-.2-.1-.2v.2zm.1.9v-.1h-.1c.1 0 .1.1.1.1zm-.1.6v-.1.1zm0 .3v.1h.1c-.1 0-.1-.1-.1-.1zm0 .4v.1c.1 0 .1 0 .1-.1h-.1s.1 0 0 0zm0 1.8v.1c0-.1 0 0 .1-.1h-.1zm0 1.1v-.1.1zm.3-3.8h-.1.1s0 .1 0 0zm0 1.5v.1-.1h-.1.1zm-.2 1.4c.1.1.1.1.1 0h-.1zm.4.1c0-.1-.1 0-.3 0v.1c-.1 0-.1 0 0 0v-.1c.1 0 .1.1.3.1v.1-.2s.1 0 .1-.1c0 .1 0 .1-.1.1zm-.2-1.6v-.1.1zm0 .5v-.1h.1-.1v.1zm0 .7v.1-.1.1-.1zM42 59c.1 0 .1 0 0 0v-.1.2-.1zm.1.4s0-.1-.1-.1c.1 0 .1.1.1.1zm-.1 2.7V62v.1zm0 .5h.1-.1zm.1-2h.1-.1zm.1 2.2c0-.1 0 0-.1 0h.1zm0-2.5s-.1 0 0 .1v-.1zm0 .4v.1-.1zm0 1.6h.1s0-.2-.1-.2v.2zm.3.5h-.1.1zm0-1.7v.1-.1zm0 1.2v.1-.1zm.3 0h-.1V62c-.1.1 0 .1 0 .1v.2h.1zm-.1.6h.1s0-.1-.1 0zm0 .6h.1-.1zm0 .4v-.1.1zm.4-.7c-.1 0-.3-.1-.3 0 .1.1.1 0 .3 0v.1-.1zm-.2.9h.1l-.1-.1v.1zM47.7 53.5h.1c.4.3.9.5 1.1 1.2.4.7.4 1.3.4 2 0 .1-.1.2 0 .5v1.7c-.1.1-.1.3 0 .3v.8c-.1.1-.1.4 0 .5 0 .1 0 .4-.1.5 0 .1.1.4.1.5 0 .7-.1 1.2-.3 1.8 0 .3-.3.7-.4.9-.1.1-.4.4-.6.4h-.1c-.4.4-.9.3-1.5.4-.3 0-.5-.1-.9 0-.1 0-.4-.1-.6-.3l-.1-.1c.1-.3 0-.4 0-.7v-2c-.1-.5 0-1.1 0-1.4 0-.3-.1-.4.1-.5v-.1c-.3-.3-.1-.5-.1-.8v-.3c-.1-.4 0-.8 0-1.3V57c-.1-.3-.1-.4 0-.7v-1.9c0-.2-.1-.5.1-.8v-.1c0-.1 0-.1.1-.3.1 0 .4-.1.5-.1h.6c.5.2 1.1.3 1.6.4zm-2.7.9h.1v-.1h.1c0 .1 0 .1.1.1 0-.1-.1-.1-.1-.1h-.1v.1H45zm.2 1.3h-.1.1zm-.2 1.2h.1-.1zm.2.3c0 .1-.1.1-.1.1v.1c.1 0 .1-.1.1-.1v-.1l.1-.1v.1-.1h.1-.1c-.1 0-.1.1-.1.1zm0 2.3c-.1 0-.1 0-.1.1h.1v-.2.1zm-.2 3.9.1.1c.1-.1.1 0-.1-.1v.1-.1zm.3-6.9h-.1.1zm-.1 1.9h.1c0-.1-.1 0-.1-.1v.1zm0 .2h.1-.1zm.1.6h-.1.1zM45.4 60.6v.1h-.1v-.1h-.1v.1h.2v-.1zm-.1 1.3c0-.1 0-.1-.1-.1v.1h.1zm0 2.4c0-.1-.1-.1-.1-.1v.1h.1zm.1-8.3c0-.1-.1-.1-.1-.1-.1.1 0 .1 0 .1h.1zm-.1-1.9h.1-.1zm0 .7h.1-.1zm0 .8v-.1.1zm0 3.2v.1-.1zm0 1v.2-.2zm0 1.3h.1V61c-.1 0-.1 0-.1.1zm.3.2v-.1c-.1 0-.1 0-.1.1h-.1.2zm-.2 1.3h-.1.1zm-.1.6v.1s.1 0 .1.1c0 0 .1 0 .1-.1-.1.1-.1.1-.2-.1zm.1-6.8v-.1c-.1.1 0 .1 0 .1zm0 2.9h.1-.1.1v-.1h.1-.1v.1h-.1c-.1.1 0 .3 0 .4.2-.2 0-.3 0-.4zm0-4.5h.1-.1zm.2.9h-.1c0 .1 0 .1.1.1v-.1zm-.2 2.5v.1-.1zm0 .4c0-.1 0 0 0 0v.1c.1 0 .1 0 .1-.1h-.1zm0 1.4v.1h.1c.1-.1.1-.1-.1-.1zm.2.5h-.1.1zm0 3.1s.1 0 .1-.1h-.1v.1h-.1v.1c.1.1 0 .1 0 .1 0 .1 0 .1.1.3h.4s0 .1 0 0V64c-.1 0-.3 0-.3.1h-.1c0-.1 0-.3-.1-.4v-.1h.1zm0-6.2v-.1s-.2 0 0 .1zm0-3.2v.1h.1c0-.1 0 0 0 0h-.1v-.1zm0 .8v.1h.1s0-.1-.1-.1zm0 .6v-.1.1zm0 2v.1h.1l-.1-.1zm.1-2.9h.1v.1-.1h-.1zm0 .1c0 .1.1.1.1.1v-.1h-.1zm.1-.7v-.2.1c-.1-.1-.1.1 0 .1v.1-.1zm.3 8.7c0 .3.3.5.4.7h.1c.1-.1.1 0 .3-.1.3 0 .5-.1.7-.3.1-.3.3-.5.3-.8 0-.4-.1-.9 0-1.3v-.1c-.1-.4.1-.8 0-1.1V56.3c0-.1 0-.4-.1-.5-.1-.6-.5-.9-1.2-.8-.3 0-.5.3-.5.7.1.4.1.9 0 1.3 0 .1.1.3.1.4-.1.1 0 .3 0 .4v.5c0 .1 0 .3-.1.4-.1.1.1.3.1.4-.1.5 0 1.2-.1 1.7v.1c.1.1.1.3.1.5-.1.2 0 .5-.1.8 0 .2-.1.4 0 .6zm0-9v-.1s0 .1-.1.1h.1zm0 .4c-.1 0-.1 0-.1.1.1 0 0 0 .1-.1-.1 0-.1 0 0-.1H46h.1v.1zm0 9.6H46s0 .1.1.1v-.1zm.1-9.2c0-.1-.1-.1-.1-.1 0 .1 0 .1.1.1zm0-.5v.1-.1zm.1.1c0 .1 0 .1.1.1v-.1h-.1zm.3.2h-.1.1zm-.1 9.8s0-.2 0 0v-.1.1zm.2-.2v.1-.1s-.1 0 0 0zm.2-9.8c-.1-.1-.1 0-.1 0s-.1.1.1 0zm.1-.1h.1s0 .1.1.1v-.1c0-.1-.1 0-.1 0h-.2.1zm.2 9.9H47h.2v-.1.1zm0-9.4v-.1.1zm0 9.8h.1-.1zm.2-10h-.1.1zm.1 9.2h-.1c0 .1 0 .1-.1.1v.1l.1-.1v-.1h.1zm0-9.4v-.1l-.1.1h.1zm0 .4h.1c0 .1-.1.1 0 .1v-.1h-.1zm.2-.4v-.1.1zm.1 9.3h-.1v.1h.1v-.1zm0 .7h-.1c0 .1.1.1.1 0zm0-.4v.1-.1zm.3-.2c0-.1 0-.1 0 0-.2 0 0 0 0 0h.1-.1zm0-8.5v.1-.1zm0 .5h.1v-.1l-.1.1zm.4.9h-.1l-.1-.1c0 .1.1.1.1.1h.1zm0-1.4v.1-.1c-.1 0-.1 0-.1-.1-.1.2.1.1.1.1zm-.2.9c.1 0 .1.1.1.1V56h-.1zm0 2.1h.1l-.1-.1v.2-.1zm0 1.3h.1v-.1c-.1.1.1.1-.1.1 0 .1 0 .1.1.3.1-.2-.1-.2-.1-.3zm0 .6h.1-.1v.1-.1zm.2-4.3v-.1.1zm0 1.1v-.1.1zm.1 2.2h-.1v.1-.1h.1zm0 1.5h-.1.1zm-.1 1.1h.1-.1zm.2-4.8s0-.1-.1-.1c0 .1.1.1.1.1s0 .1.1.1c-.1 0-.1-.1-.1-.1zm-.1.3h.1-.1zm0 .3h.1v.1-.1h-.1v-.1.1zm0 .8v-.1.1zm0 .6v.1h.3c-.2 0-.2 0-.3-.1zm0 1.8v.2-.2zm.3-2.6h-.1v.1c.1 0 .1 0 .1-.1zM53.8 56c.1.4.1.6.2 1.1v.5c.1.8.3 1.4.4 2.1.1.8.4 1.7.5 2.5 0 .4.1.7.3 1.1v.1c0 .1 0 .4.1.5.1.4 0 .7-.1.9-.1.1-.3.3-.4.3-.5 0-.9-.3-1.1-.8 0-.4 0-.8-.1-1.2-.3-.5-.5-.6-1.1-.6-.4 0-.6.1-.9.5v.1c0 .1 0 .1-.1.3-.1.1 0 .4 0 .7 0 .1-.1.3-.1.4-.1.5-.8.7-1.2.5-.1-.1-.3-.3-.3-.4 0-.4 0-.8.1-1.2 0-.3.1-.5.1-.9.1-.3.1-.7.3-1.1.1-.5 0-1.3.3-1.8.1-.4.3-.9.3-1.3V58c.1-.5.3-1.2.4-1.7 0-.1 0-.4.1-.5v-.4c0-.3 0-.7.1-.9.1 0 .1-.1.1-.1-.1-.4.1-.8.5-.9.1-.1.2-.1.2 0 .3 0 .4 0 .5.1.1 0 .1.1.3.3 0 .4.1.7.1 1 0 .1 0 .4.1.5.1.1.1.3.1.5v.1zm-3.3 8.3v.1-.1zm.1-.2V64s-.1 0 0 .1zm.1-1.7c0 .2 0 0 0 0 0 .1 0 .1-.1.1h.1v-.1zm.2-.3v.2h-.1c0 .1.1 0 .1 0h.1s-.1 0-.1-.2zm0 .7h-.1.1zm-.2 1.5h.1-.1zm.2-3.1v.1-.1zm0 2.4h.1-.1zM51 61v.1c-.1 0 0 0 0 0V61zm0-.6v-.1.1zm0 3.6h.1c-.1-.1-.1-.1-.1 0zm.1-4h.1c0-.1 0-.1-.1-.1v.1zm.2.8c-.1-.1-.1 0-.1 0h.1zm-.2.3h.1-.1zm.6 1.2h-.1v.1c0-.1 0-.3-.1-.3s0 .2 0 .2h-.2v.1c.1 0 .1 0 .1-.1 0 .1.1.1.1.1v.1c.1 0 .1-.1.1-.1.1 0 .1 0 .1-.1zm-.4-3.6h.1v-.1c-.1 0-.1.1-.1.1zm.1-.8h.1v-.1c-.1 0-.1 0-.1.1zm.1 1.9v-.1l-.1.1h.1zm0 .5v-.1h-.1c0 .1 0 .1.1.1-.1 0-.1.1 0 .1 0 .1 0 0 .1 0h-.1v-.1zm-.1.7v.1h.1c0-.1-.1-.1-.1-.1zm.1-3.6s0 .1.1 0v-.1c-.1 0-.1.1-.1.1zm.2.5-.1.1h.1v-.1zm0 3.5c-.1 0-.1 0-.1.1h.1v-.1zm0-4.6v.1s0-.1.1-.1h-.1zm0 .4V57v.2zm0 .4v.1h.1c-.1 0-.1 0-.1-.1zm0 1h.1-.1zm0 .9v.1-.1zm0 2.3h.1-.1zm.1-4.4c.1 0 .1-.1.1-.1h-.1v.1zm0 .9h.1-.1zm.1 2.9h-.1.1c.1.1.1.1.2.1 0-.1 0-.1-.2-.1zm.2-5.2-.1-.1v.1h.1zm.9 2.7c-.1-.4-.3-.9-.3-1.3h-.2v.9c-.1.6-.3 1.2-.4 1.9 0 .3 0 .4.3.5.1.3.4.3.5.1.2-.1.4-.3.4-.5-.1-.3-.1-.5-.1-.7-.2-.2-.2-.5-.2-.7v-.2zm-.7 3.2c0-.1 0-.3-.1-.1-.1.1.1.1.1.1zm-.1-7.5c.1 0 .1-.1.1-.1 0-.1-.1-.1-.1-.1v.2zm0 .3v.1h.1s0-.1-.1-.1zm0 .2v-.1.1zm0 1v-.1.1zm.1.5v-.1.1h-.1.1zm.2-.8h-.1.1zm0 .5V56h-.1s-.1.1.1.1zm.1-2.1h-.1v.1c.1 0 .1 0 .1-.1zm-.1 7.8c0 .1.1.1.1.1v.1c0-.1 0-.2-.1-.2zm.2-7.7v.1h-.1.1c.2 0 .2 0 0 0v-.1zm.2.4h-.2c0-.1 0-.1-.1-.1v.1c.1.1.1 0 .1 0h.2zm-.2.7h-.1c.1 0 .1.1.1.3v-.3zm0 .9h-.1.1zM52.7 55.9v-.1.1zm0 .5h.2-.2zm.2.5c-.2 0-.2-.1-.2 0H53h-.1zm.1-.8c0-.1 0-.1-.1 0h.2-.1zm-.1 5.1h.1-.1zm0 .4v-.1.1zm.1-6.5c.1-.2.1-.3.1-.3H53v.3zm0 .8c.1 0 .1-.1.1-.3-.1 0-.1.1-.1.3zm0 .7h.1-.1zm0 .6v.2c0-.1.1-.1.1-.1v-.1H53zm.2.5h-.1.1s0-.1 0 0zm.2-.8h-.1s-.1.1.1 0zm0 1c0-.1 0-.1-.1-.1v.1h.1zm0 3.7v.1h-.1v.1-.1h.1v-.1zm0-4.4c-.1 0 0 .1 0 .2V57.1v.1zm0-.6v-.1.1zm0 .2h.1s0-.2-.1-.2v.2zm.1.9v-.1h-.1c.1 0 .1.1.1.1zm-.1.6v-.1.1zm0 .3v.1h.1c-.1 0-.1-.1-.1-.1zm0 .4v.1c.1 0 .1 0 .1-.1h-.1s.1 0 0 0zm0 1.8v.1c0-.1 0 0 .1-.1h-.1zm0 1.1v-.1.1zm.2-3.8h-.1.1s0 .1 0 0zm0 1.5v.1-.1h-.1.1zm-.1 1.4c.1.1.1.1.1 0h-.1zm.4.1c0-.1-.1 0-.3 0v.1c-.1 0-.1 0 0 0v-.1c.1 0 .1.1.3.1v.1-.2s.1 0 .1-.1c0 .1 0 .1-.1.1zm-.3-1.6v-.1.1zm0 .5v-.1h.1-.1v.1zm0 .7v.1-.1.1-.1zm.2-1.7c.1 0 .1 0 0 0v-.1.2-.1zm.1.4s0-.1-.1-.1c.1 0 .1.1.1.1zm-.1 2.7V62v.1zm0 .5h.1-.1zm.1-2h.1-.1zm.1 2.2c0-.1 0 0-.1 0h.1zm0-2.5s-.1 0 0 .1v-.1zm0 .4v.1-.1zm0 1.6h.1s0-.2-.1-.2v.2zm.3.5h-.1.1zm0-1.7v.1-.1zm0 1.2v.1-.1zm.3 0h-.1V62c-.1.1 0 .1 0 .1v.2h.1zm-.2.6h.1s.1-.1-.1 0zm0 .6h.1-.1zm0 .4v-.1.1zm.4-.7c-.1 0-.3-.1-.3 0 .2.1.2 0 .3 0v.1-.1zm-.1.9h.1l-.1-.1v.1zM64.6 57c.1.3.3.4.4.6.1.1.3.4.4.6.4.2.5.5.8.9.3.1.4.4.7.5.3.5.4.9.5 1.4.3.7.1 1.3.1 1.9 0 .7-.3 1.2-.7 1.6-.3.2-.7.2-.9.4h-.4c-.1.1-.3.1-.4 0h-.5c-.1-.1-.1-.1-.3-.1h-.2c-.4-.2-.7-.5-.8-.9-.1-.3-.4-.5-.2-.9-.1-.1-.1-.2-.1-.4 0-.1-.1-.4 0-.5.1 0 .1 0 .1-.1 0-.3.2-.3.4-.4.3 0 .5 0 .7.1.1.1.1.3.1.3 0 .4.3.8.3 1.2v.1c.3.1.5.4.8.3h.3l.4-.4c.1-.1.3-.3.3-.7-.1-.7-.3-1.3-.7-1.9-.3-.4-.6-.5-.8-.9-.3 0-.4-.3-.4-.4-.5-.2-.5-.3-.6-.6-.4-.3-.5-.7-.8-1.1-.1-.2-.1-.6-.1-.9 0-.3 0-.5-.1-.9v-.1c.1-.3.1-.7.3-.9 0-.4.3-.7.5-1 .4-.4.9-.5 1.5-.5h.4c0 .1 0 .1.1.1.4-.1.8 0 1.1.3.4.4.6.8.6 1.3.1.1.1.4.1.6v.4c0 .1-.1.3-.3.4-.3.1-.5 0-.8 0-.1 0-.1-.1-.1-.1-.1-.3-.3-.4-.1-.6v-.1c-.1-.1-.3-.4-.5-.5 0-.1-.1-.1-.1-.1-.3 0-.4 0-.4-.3 0 0-.1 0 0 .1 0 .1 0 .1-.1.3-.5.3-.7.7-.5 1.1v.1c0 .1-.1.1-.1.1-.2 0-.1.3.1.6zm-1.1-1.6c0-.1.1-.1.3-.3.1 0 .1.1.1 0l-.1-.1c-.1.1-.1 0-.1 0-.1 0-.1-.1-.1 0h.1v.1c-.2.1-.2.1-.2.3h-.1c0 .1.1.1.1.1v-.1zm-.1.5h.1-.1zm.1 7.3h-.1.1zm0-7.4v-.1.1zm0 6.2v.1-.1zm.1-4.4h.1-.1zm0 5.5v.1c.1 0 .1.1.3 0 0-.1 0 0 0 0-.1 0-.1-.1-.1-.1h-.2zm.3-8.8v-.1h-.1c.1 0 .1.1.1.1zm-.1 1.3v.1-.1zm0 .8v-.1.1zm0 6.3v-.1.1zm.2-5.5h-.1.1zm-.1.6c.1.1.1 0 .1 0h-.1zm0 6.2h.1-.1zm.1-9.8h.1-.1v.1-.1zm.2 4.1v-.1.1h-.1.1zm0-3.9v.1-.1zm0 .4h.1v-.1h-.1v.1zm0 2.4v-.1.1zm0 .7v-.1.1zm0 5.9v-.1.1zm.2-6.3h-.1s.1.1.1 0zm-.1.7v-.1.2c.1 0 .1 0 0-.1zm.1 6.1v.1-.1zm.2-10.1h.1s0 .1 0 0V54c-.1 0-.1.1-.1.1v.2-.1zm0 3.7c0 .1.1.1.1 0h-.1zm.1.8c-.1 0-.1.1-.1.1h.1v-.1zm.4-5.1H65h.1v.1h-.2c.1.1.1 0 .1 0h.1v-.1zm-.3.4h.1-.1zm.3 4.6c0-.1-.1-.1-.1-.1h-.1c0 .1.1.1.1.1h.2c0-.2-.1 0-.1 0zM65 58.8c-.1 0-.1.1 0 .1v-.1zm.4.8v-.1h.1-.1v-.1s.1-.1 0-.3V59h.1-.1v.1l-.1.1v-.1.2h.1c0 .1 0 .1-.1.3.1 0 0 0 0 0h.2-.1zm-.2 4.6s.2 0 0 0h.1-.1zm.2-10.4v.1l.1-.1h-.1zm.1.4s-.1 0 0 0l-.1-.2.1.2zm.1-.3.1-.1h-.1v.1h-.1s.1.1 0 .1h.1-.1v-.1h.1zm0 5.2h-.1.1zm-.1 5.3h.1s-.1 0 0 0c.1-.1 0 0 0 0h-.1zm.3-.5h-.1v.1h.1v-.1zm0-4.5v.1-.1zm.1.5.1.1c0-.1-.1-.1-.1-.1l.1-.1c0 .1-.1.1-.1.1zm.1-5.5v.1-.1s-.1 0 0 0zm0-.4v.1-.1l.1.1c.1-.1-.1-.1-.1-.1zm0 6.6v.1-.1zm.2-.7h.1-.1zm.1.5h-.1.1zm0 .7c.1-.1 0-.1 0-.1v.1zm.1-.9v.1c-.1 0 0 0 0 0h.1v-.1h-.1zm0-6c0-.1.1-.1 0-.1v.1zm0 .9V55v.1zM66.6 54.2v.1-.1zm0 .8v.1-.1zm.1.8h-.1s.1.1.1 0zm0 5.4h-.1v.1c.1.1.1.1.1-.1zm0-5.8v.1-.1zm.1 6.6c0-.1 0-.1-.1-.1v.1h.1zm0-6.8v-.1.1zm0 6.3h.1c-.1 0-.1-.1-.1 0zm0 2v-.1.1zm.1-8.1s.1 0 .1.1v-.1h-.1zm0 6.8s0 .1.1.1v-.1h-.1zM72.7 53.3c.6 0 .8.3.8.6 0 .6-.3.8-.6.8-.6.1-.9.1-1.3 0-.3 0-.4.1-.5.3-.3.1-.4.2-.4.5v2c0 .4.4.8.8.8.3 0 .6 0 .8-.1.3 0 .5.3.7.3.1 0 .1.1.1.1.1.3.3.7 0 .9-.1.3-.3.4-.4.4h-1.2c-.3 0-.7.1-.7.4-.1.4-.1.6-.1 1v.8c0 .2 0 .5.1.8.1.4.7.5 1.1.4.4 0 .8 0 1.2.2.3 0 .4.1.4.4.1.2.1.4.1.6 0 .2-.3.5-.5.5-1.1.1-2.1.1-3.1.1-.5 0-.8-.3-.8-.8v-2c.1-.2 0-.5 0-.9v-1.2c.1-.3 0-.6.1-.8.1 0 0 0 0 0-.1-.4-.1-.6-.1-1v-.5c.1-.7 0-1.2 0-1.7v-1.7c.1-.1.1-.4.1-.6 0-.4.3-.5.5-.5h1.5c.5-.1 1-.1 1.4-.1zm-2.9 1.5s-.1 0-.1.1h.1v-.1h-.2c.1.2.1 0 .2 0zm-.3.9v-.1.1zm.2 2.7c-.2 0 0 0 0 0l-.1.1.1-.1zm0 2.3-.1.1h.1s.1 0 .3.1v-.1c-.2 0-.2 0-.3-.1zm.2-4.9s.2-.1 0-.3c0 .1 0 .1-.1.1h-.1c-.1 0 0 .1 0 .1v.2-.2l.1.2h.1v-.1zm-.1-1.5c-.1 0-.1 0-.1.1v-.1h.1zm0 2h-.1v.1h.1v-.1h-.1v-.1.1h.1zm0 .5h.1s0-.1-.1-.1v-.1.1c.1 0 .1.1.1.1h-.2.1zm-.1.4s0-.1 0 0h.1-.1zm.1.8h-.1.1zm-.1 1.2h.1s0-.1-.1-.1v.1zm0 .3h.1-.1zm0 .3h.1-.1zm0 .5v.1c.1 0 .1 0 .1-.1h-.1zm0 1.8v.2-.2zm.1-8c.1 0 .1-.1.1-.1s0-.1-.1.1zm0 4.7v.2-.2zm0 3.1v.1-.1zm.1-7.7v.1-.1zm0 .5v.1-.1zm.2 3.2c0-.1.1-.1.1-.1-.1 0-.1 0-.1-.1h-.2c0 .1 0 .1.2.1h.1s-.1 0-.1.1zm-.2.4v-.1.1zm0 .9c0 .1 0 .1.2.1v-.1h-.2zm0 .3s0 .1 0 0v.1-.1zm.2 2.1v-.1c-.2 0-.2.1-.2.1h.2zm0 .4s.1-.1 0-.1l-.2.1v.1c.2 0 .2-.1.2-.1zm0 1.9h-.2.2v-.1h-.2v.1s0 .1.2 0zm0-9.4.1.1v-.1h-.1zm.1.2h-.1.1zm-.1.1v.1-.1zm0 2.7s0 .1.1.1v-.1c0-.1 0-.1-.1-.1v.1zm0 3v-.1.1zm.1-6.8v.1c0 .1 0 .1.1.1-.1 0 0-.1-.1-.1v-.1zm0 4.3v.1-.1zm.1 5.5h-.1c0 .1.1.1.1.1v-.1zm0-3.7h.1c0-.1 0 0 0 0h-.1v-.1.1zm.2.1h-.1.1zm0-.8v.1-.1zm0 .2v.1-.1zm0 4.7.1.1s-.1.1 0 .1v-.1s0-.1-.1-.1zm.3-5.2v.3h-.1c0-.1 0-.1-.1 0h.2s.2-.1 0-.3c-.1 0-.1 0-.1-.1 0 .1 0 .1.1.1zm-.2.5h.1-.1zm0 4.4v-.2V63.8v-.1zm.2-9.6v.1-.2c-.1.1 0 .1 0 .1zm0 .5h.2-.2zm.3 9.3H71c0-.1-.1-.1-.1 0 0 .2 0 .2.1.2 0-.1 0-.1.1-.2zm.2-10c-.1 0-.1 0-.3-.1 0 .1 0 .3.1.1h.2zm-.3 4.8.1.1v-.1H71zm.4 5.8.1-.1v.1-.1c0-.2 0-.2-.1-.2v.2s0 .1-.1 0h-.1v-.2.2c.1 0 .1.1.2.1l-.1.1s0 .1.1-.1zm0-.4h.1-.1zm.1-10v.1s-.1 0 0 0v-.1zm0-.3v-.1.1zm.2.4-.1.1h.1v-.1zm-.2 5v.1-.1zm.2-5.5v.1h.1s0-.1-.1-.1zm.4.1h.1v-.1h-.1v.1zm0 5.2v.1-.1zm0 4.9v-.1.1zm0 .1h.1-.1zm.5-.1c0-.1 0-.1-.1-.1v.1h-.1.2zM72.5 53.9s.1.1.1 0h-.1zm.1 10.4h.1-.1v-.1.1zM75 62.3V54.7c.1-.1 0-.4 0-.6 0-.1 0-.4.1-.5.3-.1.4-.3.6-.3h1.4c.7 0 1.2.1 1.7.5.4.3.7.5.8 1.1.1.3.1.7.3 1.1v.5c-.1.1-.1.1-.1.3.1.1.1.3 0 .4v.4c-.1.4-.3.9-.4 1.5h-.1c-.3.1-.3.4-.4.6-.1 0-.1.1 0 .3.1.7.3 1.3.5 2 0 .4.1.8.3 1.3.1.4.3.8.4 1.2.1.3-.1.5-.4.7-.4 0-.9-.1-1.1-.7-.1-.1-.1-.4-.1-.5 0-.1 0-.3-.1-.3s-.1-.1-.1-.3c0-.3-.1-.5-.1-.7-.1-.4-.1-.7-.3-.9-.1-.1-.1-.3-.1-.4 0-.4-.1-.8-.4-1.1 0-.1-.1-.3-.4-.3-.3 0-.3.1-.4.4 0 .3-.1.4 0 .7 0 .3-.1.4-.1.5 0 .5.1.9.1 1.5v.4c-.1.1-.1.4 0 .7v.3c-.1.5-.4.8-1.1.5-.1 0-.4-.3-.4-.5v-1.2c-.1-.4-.1-.8-.1-1zm.4-5.5v-.1.1zm0 1.2h.1-.1zm0 2.7h.1-.1zm.3 2.6c0-.1-.1 0-.1 0V63h-.1.1v.3h.1v.1-.1zm-.2.8c0-.1 0-.1-.1-.1v.1h.2-.1zm0-9.9h.1-.1c-.1 0-.1.1 0 .1v-.1zm.2 2.4c0-.1 0-.1-.1-.1v.1c-.1 0 0 0 0 0h.1zm0-1.9h-.1c0-.1.1-.1 0-.1v-.1.3s0 .1.1.1c.1-.1 0-.2 0-.2h.1-.1zm-.2.4h.1V55c.1.1-.1.1-.1.1zm0 .1v.1-.1zm0 1.6h.1v.1h.1-.1v-.1h-.1zm.3.6v-.1h-.2.1c0 .1.1.1.1.1zm-.3.9v-.1.1zm.2 2.1h-.1c.1 0 .3 0 .3.1h.1v-.1c-.1-.1-.2-.3-.4-.4-.1.1-.1.3.1.4zm0 .5c0 .1 0 .1.1.1v-.1h-.2.1zm-.2.8v.1h.1c0-.1 0 0-.1 0 0-.1.2-.1 0-.1zm0 .4c.2 0 0 0 0 0h.1-.1zm.2-6.7s.1.1.1 0c.1-.1.3-.1.3-.3-.2 0-.4.1-.4.3zm0 1.7h.1-.1zm0 1.2s.1 0 .1-.1c.1 0 0-.1 0-.1-.1 0-.1.1-.1.1v.1zm.1 1.7h-.1.1zm-.1 1.6.1-.1h-.1v.1zm.1 1.1c-.1 0-.1.1-.1.1h.1v-.1zm-.1.2c.1.1.1.1.2.1l-.1.1h.1l-.1-.1v-.1h.1-.2zm.1.8h-.1.1zm0-9.9h.1-.1zm0 2.4c.1 0 .1.1.1 0h-.1zm0 1.4h.1l-.1-.1v.1zm.1.2h-.1.1zm0 1.2v-.1s0 .1-.1.1h.1zm0 .3v.1c0-.1.1-.1.1-.1s0 .1.1.1H76h.1v-.2c0-.1-.1-.1-.1-.1s0 .1.1.1v.1h-.2v-.1l-.1-.1c0 .1 0 .1.1.1 0 0-.1 0-.1.1h.1zm-.1.4h.1v-.1s0 .1 0 0v.1h-.1zm.5-5.8v-.1l.1.1c.1-.1 0-.1 0-.1 0-.1-.1-.1-.1-.1V54h-.1c-.1-.1-.1-.1-.3 0H76.2c.1.1.1.1.1-.1zm-.3 9.6c0-.1 0-.1-.1-.1 0 .1 0 0 .1 0v.1zm0-8.7h.1v.2c.1 0-.1 0-.1-.2zm0 1.8v.1-.1zm.3-2c-.1 0-.1 0-.1.1 0 0-.1 0 0 0 0-.1 0-.1.1-.1zm-.1 3.8v.1-.1zm.3.3h-.1.1zm1.8-3.1c-.1-.8-.9-.9-1.5-.7h-.1c-.1.3-.4.4-.3.7v.4c0 .1-.1.3 0 .3.1.5 0 .9 0 1.3v.4c.1.3.3.3.4.4.3.1.7.1 1.1-.1.3-.1.4-.4.5-.7v-1.1c0-.2-.1-.6-.1-.9zm-1.6 3.5h-.1c0 .1 0 .1.1.1v-.1zm.1-5.2s0-.1 0 0c0 0 0 .1.1.1l-.1-.1zm0 .4v-.1.1zm0 5v-.1.1zm.2-5.5v-.1.1zm.3 5.8c.1 0 .1.1.3.3h.1c.1.1.1.1.3-.1l.1.1v-.2h.1-.1v.1h-.2c0-.1.1-.1 0-.1h-.1c0 .1 0 0 .1 0 0 .1.1.1.1.1v.1h-.4c-.1-.2-.2-.3-.3-.3v-.1.1zm.2-5.4h-.1c0 .1.1.1.1.1v-.1zm0 4.9c.1 0 .1-.1.1-.1s0 .1-.1.1zm.1-4.9v-.1c-.1 0-.1.1 0 .1h.1-.1zm.4 5c-.1 0-.1.1-.1.1h.1s0 .1 0 0v-.1h.1c0-.1-.1-.1-.1-.1v.1zm.3-.5V59c.1.1.1 0 .1 0 0-.1 0-.1-.1-.3 0 .1 0 .1 0 0h-.1v.1H78h.1v-.1h.2zm-.3 1.6v.1h.1-.1v-.1zm0 .8v.1l.1-.1H78zm0 .4h.1-.1zm.2-.7h.1c0-.1-.1-.1-.1-.1v.1zm.1-6.2s-.1 0 0 .1h.1c0-.1-.1-.1-.1-.1zm0 6.7c0 .1 0 .1.1.1-.1.1-.1.1-.1-.1zm.1.7.1-.1.1.1v-.1l-.1-.1h-.1l-.1-.1v.1c0-.1 0 .2.1.2 0 .1 0 .1.1 0h-.1zm0-7.6h.1v.1l.1-.1h-.2zm0 6.9v-.1.1zm.2 1.4c-.1 0 0 0 0 .1 0-.1.1-.1 0-.3v.2zm.2-7.9v-.1c-.1 0-.1.1-.1.1h-.1.2zm-.2 7.6v-.1.1zm0 .7h.1s0-.2-.1 0zm.1-4.8h.1-.1zm0 4v.1h.1c-.1 0 0-.1-.1-.1zm.1-7.2h.1-.1zm0 1.1h.2-.2zm.2 1.6s-.2 0 0 0v.1-.1h-.1.1zm-.2 4.9s.1 0 .1-.1c-.1-.1-.1-.1-.1.1zm.2.6h-.1.1zm0 .6c0 .1 0 .1.1.1H79h.1c-.1 0-.1-.1-.1-.1h.1-.2.1zm0-7.1v.1-.1zm.4-1.2c-.1 0-.3 0-.3.1h.3v-.1zm-.2 1h-.1c0 .1.1.1.1 0v.1-.1zm-.1 6.3v-.1.1zm0 .3v.2c.1 0 .1 0 .1-.1h-.1v-.1zm.1-6h.1-.1zm.2-.5v.1-.1zm0 7.4V64v.1zM84.5 56c.1.4.1.6.2 1.1v.5c.1.8.3 1.4.4 2.1.1.8.4 1.7.5 2.5 0 .4.1.7.3 1.1v.1c0 .1 0 .4.1.5.1.4 0 .7-.1.9-.1.1-.3.3-.4.3-.5 0-.9-.3-1.1-.8 0-.4 0-.8-.1-1.2-.3-.5-.5-.6-1.1-.6-.4 0-.6.1-.9.5v.1c0 .1 0 .1-.1.3-.1.1 0 .4 0 .7 0 .1-.1.3-.1.4-.1.5-.8.7-1.2.5-.1-.1-.3-.3-.3-.4 0-.4 0-.8.1-1.2 0-.3.1-.5.1-.9.1-.3.1-.7.3-1.1.1-.5 0-1.3.3-1.8.1-.4.3-.9.3-1.3V58c.1-.5.3-1.2.4-1.7 0-.1 0-.4.1-.5v-.4c0-.3 0-.7.1-.9.1 0 .1-.1.1-.1-.1-.4.1-.8.5-.9.1-.1.2-.1.2 0 .3 0 .4 0 .5.1.1 0 .1.1.3.3 0 .4.1.7.1 1 0 .1 0 .4.1.5.1.1.1.3.1.5v.1zm-3.3 8.3v.1-.1zm.1-.2V64s-.1 0 0 .1zm.2-1.7c0 .2 0 0 0 0 0 .1 0 .1-.1.1h.1v-.1zm.1-.3v.2h-.1c0 .1.1 0 .1 0h.1s-.1 0-.1-.2zm0 .7h-.1.1zm-.1 1.5h.1-.1zm.1-3.1v.1-.1zm0 2.4h.1-.1zm.1-2.6v.1c-.1 0 0 0 0 0V61zm0-.6v-.1.1zm0 3.6h.1c-.1-.1-.1-.1-.1 0zm.2-4h.1c0-.1 0-.1-.1-.1v.1zm.1.8c-.1-.1-.1 0-.1 0h.1zm-.1.3h.1-.1zm.5 1.2h-.1v.1c0-.1 0-.3-.1-.3s0 .2 0 .2H81.9v.1c.1 0 .1 0 .1-.1 0 .1.1.1.1.1v.1c.1 0 .1-.1.1-.1.2 0 .2 0 .2-.1zm-.4-3.6h.1v-.1c-.1 0-.1.1-.1.1zm.1-.8h.1v-.1c-.1 0-.1 0-.1.1zm.2 1.9v-.1l-.1.1h.1zm0 .5v-.1h-.1c-.1.1-.1.1.1.1-.1 0-.1.1 0 .1 0 .1 0 0 .1 0h-.1v-.1zm-.2.7v.1h.1c.1-.1-.1-.1-.1-.1zm.2-3.6s0 .1.1 0v-.1c-.1 0-.1.1-.1.1zm.1.5-.1.1h.1v-.1zm0 3.5c-.1 0-.1 0-.1.1h.1v-.1zm0-4.6v.1s0-.1.1-.1h-.1zm0 .4V57v.2zm0 .4v.1h.1c-.1 0-.1 0-.1-.1zm0 1h.1-.1zm0 .9v.1-.1zm0 2.3h.1-.1zm.1-4.4c.1 0 .1-.1.1-.1h-.1v.1zm0 .9h.1-.1zm.2 2.9h-.1.1c.1.1.1.1.2.1-.1-.1-.1-.1-.2-.1zm.1-5.2-.1-.1v.1h.1zm.9 2.7c-.1-.4-.3-.9-.3-1.3h-.2v.9c-.1.6-.3 1.2-.4 1.9 0 .3 0 .4.3.5.1.3.4.3.5.1.2-.1.4-.3.4-.5-.1-.3-.1-.5-.1-.7-.1-.2-.1-.5-.1-.8l-.1-.1zm-.6 3.2c0-.1 0-.3-.1-.1-.2.1.1.1.1.1zm-.2-7.5c.1 0 .1-.1.1-.1 0-.1-.1-.1-.1-.1v.2zm0 .3v.1h.1c.1 0 .1-.1-.1-.1zm0 .2v-.1.1zm0 1v-.1.1zm.2.5v-.1.1H83h.1zm.1-.8h-.1.1zm0 .5V56h-.1s0 .1.1.1zm.1-2.1h-.1v.1c.1 0 .1 0 .1-.1zm-.1 7.8c0 .1.1.1.1.1v.1c0-.1 0-.2-.1-.2zm.2-7.7v.1h-.1.1c.2 0 .2 0 0 0v-.1zm.2.4h-.2c0-.1 0-.1-.1-.1v.1c.1.1.1 0 .1 0h.2zm-.2.7h-.1c.1 0 .1.1.1.3v-.3zm0 .9h-.1.1zM83.4 55.9v-.1.1zm0 .5h.2-.2zm.2.5c-.2 0-.2-.1-.2 0H83.7h-.1zm.1-.8c0-.1 0-.1-.1 0h.2-.1zm-.1 5.1h.1-.1zm0 .4v-.1.1zm.1-6.5c.1-.2.1-.3.1-.3h-.1v.3zm0 .8c.1 0 .1-.1.1-.3-.1 0-.1.1-.1.3zm0 .7h.1-.1zm0 .6v.2c0-.1.1-.1.1-.1v-.1h-.1zm.3.5h-.1.1s0-.1 0 0zm.1-.8H84s0 .1.1 0zm0 1c0-.1 0-.1-.1-.1v.1h.1zm0 3.7v.1H84v.1-.1h.1v-.1zm0-4.4c-.1 0 0 .1 0 .2V57.1v.1zm0-.6v-.1.1zm0 .2h.1s0-.2-.1-.2v.2zm.1.9v-.1h-.1c.1 0 .1.1.1.1zm-.1.6v-.1.1zm0 .3v.1h.1c-.1 0-.1-.1-.1-.1zm0 .4v.1c.1 0 .1 0 .1-.1h-.1s.1 0 0 0zm0 1.8v.1c0-.1 0 0 .1-.1h-.1zm0 1.1v-.1.1zm.3-3.8h-.1.1s0 .1 0 0zm0 1.5v.1-.1h-.1.1zm-.2 1.4c.1.1.1.1.1 0h-.1zm.4.1c0-.1-.1 0-.3 0v.1c-.1 0-.1 0 0 0v-.1c.1 0 .1.1.3.1v.1-.2s.1 0 .1-.1c0 .1 0 .1-.1.1zm-.2-1.6v-.1.1zm0 .5v-.1h.1-.1v.1zm0 .7v.1-.1.1-.1zm.1-1.7c.1 0 .1 0 0 0v-.1.2-.1zm.1.4s0-.1-.1-.1c.1 0 .1.1.1.1zm-.1 2.7V62v.1zm0 .5h.1-.1zm.1-2h.1-.1zm.1 2.2c0-.1 0 0-.1 0h.1zm0-2.5s-.1 0 0 .1v-.1zm0 .4v.1-.1zm0 1.6h.1s0-.2-.1-.2v.2zm.3.5h-.1.1zm0-1.7v.1-.1zm0 1.2v.1-.1zm.3 0h-.1V62c-.1.1 0 .1 0 .1v.2h.1zm-.1.6h.1s0-.1-.1 0zm0 .6h.1-.1zm0 .4v-.1.1zm.4-.7c-.1 0-.3-.1-.3 0 .1.1.1 0 .3 0v.1-.1zm-.2.9h.1l-.1-.1v.1zM94.9 58.5V60.9c0 .5.1 1 0 1.6-.1 0-.1 0 0 0 .1.1.1.3.1.4.1.4.4.5.8.5s.6-.1.6-.5c.1-.3.3-.5.3-.9-.1-.1 0-.1.1-.3h.9c.1.1.3.1.3.3v.6c0 .4 0 .8-.3 1-.1.4-.4.7-.6.9-.4.4-.8.5-1.3.5s-.9-.1-1.2-.4c-.6-.4-1-.9-1-1.7v-1.8c-.1-.9 0-1.7-.1-2.5 0-.5.1-.9 0-1.3 0-.5.1-1 .1-1.4-.1-.6 0-1.3.4-1.7.6-.9 2.1-1.3 3-.5.1 0 .3.1.3.3 0 .1.1.1.1.3.5.4.6.9.6 1.4v.4c0 .4-.1.5-.5.6h-.4c-.3 0-.4-.1-.4-.4-.1-.3-.1-.5-.1-.8-.1-.2-.4-.5-.6-.5-.4-.1-.7 0-.8.4-.3.3-.3.5-.3.9v2.2zm-.9.4h-.1.1zm0-.5c-.1 0 0 0 0 .1v-.1zm0-2.6h.1-.1v-.1.1zm.4.4h-.1c-.1 0-.1-.1-.1-.1h-.1.1s-.1 0-.1.1H94.4v.1-.1zm-.3.2H94h.1zm0 1v-.1l-.1.1h.1zm-.1.9h.1v-.1c0-.1-.1-.1-.1.1zm0 .5v-.1.1zm0 .5v-.1.1zm.4 1.8h.1-.1c-.1.1-.4.1-.4.4 0 0 0-.1 0 0 .1-.1.2-.1.4-.1v-.3zm.1-3.7h-.1v.1h-.3c-.1 0-.1.1 0 .1s.1-.1.3-.1v-.1h.1zm-.4-.6v-.1c-.1.1 0 .1 0 .1v.2-.2zm.2 3.1s-.1 0-.1.1l.1-.1zm-.2 1.2V61v.1h.1-.1zm0 1.7v.2h.1c0 .1-.1.1 0 .2l.1.1h-.1V63l.1.1c.1 0 .1.1.1 0h.1c-.1-.1-.1 0-.1 0h-.1s-.1 0-.1-.1l.1-.1c0-.1-.1 0-.1 0h-.1v-.1zm.2-7.5h.1-.1zm0 .1v.1-.1zm.1 2.7h-.1.1zm0 .6c-.1 0-.1.1-.1.1v.1c.1 0 .1-.1.1-.1v-.1zm-.1.6s.1 0 .1-.1h-.1v.1zm0 .7h.1-.1zm.1 2.1h.1c0 .1-.1 0-.1 0l-.1.1c.1 0 .1 0 .1-.1zm0-5.1h.1v-.4c-.1.1-.1.2-.1.4zm0 1.5h.1-.1zm0 1.7h.1v-.1l-.1.1zm.1-6v.1h.2c0-.1 0-.1-.2-.1zm0 1.2h.1-.1zm.2 6.1h-.1.1zm0 2.3s-.1 0-.1.1h.1v-.1zm0-8.7V55v.1zm.1 8.3s-.1 0 0 .1v.2-.1s.1 0 .1-.1c-.1 0-.1 0-.1-.1h.3c-.2-.2-.3 0-.3 0zm0-8.8v-.1.1zm.4-.6s-.1 0-.1-.1l-.2.1H95.2zM95.1 54.6H95s0 .1.1.1v-.1s.1 0 .1-.1c0 0-.1 0-.1.1zm0 9.3H95h.1zm0-.3h.1-.1zm.1.6h-.1v-.1.1h.1zm0-.6h.1-.1zm.1.8.1-.1v-.1c-.1 0-.1 0-.1.1v.1h.1v.1-.1h-.1zm.1-10.6c0-.1 0-.1 0 0v.1c.1 0 .1 0 .1-.1h-.1zm.2 10.2h.1-.1zm.2-9.7s-.1 0-.1.1h.1v-.1zm0 9.7s0-.1-.1-.1c.1.1 0 .1.1.1zm.3-9.5s.3.1.1 0c0-.2-.1-.2-.1 0 0 0-.1 0-.1.1.1 0 .1 0 .1-.1zm0 9.9H96l.1.1v-.1zm0-.2v.1c.1 0 .1-.1.1-.1h-.1zm.3-10.2c0-.1-.1 0-.1 0s-.1 0 0 .1h.1v.1h-.1v.1l.1-.1v-.1h.1c0-.1-.1-.1-.1-.1v-.1l-.1-.1.1.1v.1zm0 9.9h-.1.1zm0 .4v.1h.1l-.1-.1zm.2-9.7h.1c.1-.1 0-.1 0-.3h-.3v-.1.1h.3c-.1.1 0 .1 0 .3h-.1zm0 9.2c0-.2 0 0 0 0-.1 0-.1-.1-.1 0h.1zm0 .4c0 .1 0 .1.1.1.1-.1.1-.1-.1-.1zm.4-10-.1.1h.1v-.1zM96.9 63.4v.1-.1zm0 .4v-.1.1zm.1-8.3v.1-.1zm.1 8v.1-.1H97h.1zm.3-8.1c.1 0 .1-.1.1-.1h-.1v.1h-.1v-.2h-.1c.1 0 .1.1.1.1v.1h.1zm0 6.9v-.1.1h-.1v-.1h-.1l.1.1v.1c0-.1 0-.1.1-.1zm0 .8V63c-.1 0-.1 0-.1.1 0 0 0 .1-.1.1.2 0 .2 0 .2-.1zm-.1-7.3v-.1.1zm0 .3h.1-.1v.1c.1 0 0-.1 0-.1zm0 6.6v-.1.1zm.2-7.2.1.1v-.1h-.1zm.2 7v.1s0 .1 0 0v-.1zM104.4 57.1c.1.1-.1.5 0 .8 0 .3.1.5 0 .8v1.2c.1.3 0 .7 0 .9v.8s.1 0 0 .1v.9c0 .2 0 .3-.1.4 0 .1 0 .4-.1.6 0 .1 0 .3-.1.3 0 0 0 .1-.1.1-.1.4-.4.7-.8.8-.1.1-.3.1-.3.2-.1 0-.3.1-.4 0h-.5c-.5 0-.9-.1-1.2-.4-.9-.7-1.2-1.7-1-2.6v-.8c-.1-.1 0-.4 0-.5 0-.3-.1-.5 0-.7 0-.3-.1-.4 0-.5.1 0 0-.1 0-.1-.1-.6 0-1.1 0-1.6l.1-.1c-.3-.4 0-.8-.1-1.2-.1-.1 0-.3 0-.4 0-.2.1-.4 0-.7 0-.3.1-.5.2-.8.3-.4.5-.8.9-1.1.1-.3.4-.4.8-.3.1 0 .2-.1.5-.1s.5 0 .8.3c.5.3.9.6 1.2 1v.1c.1.5.4.9.3 1.4-.1.5 0 .8-.1 1.2zm-4.3 1.3v.1-.1zm0 .8h.1v.1-.1h-.1zm.1 2.2v.1l.1-.1s-.1 0-.1-.1h.1s0 .1 0 0l-.1.1s-.1 0-.1-.1c0 .1.1.1.1.1zm0-3.3v.1h.1l-.1-.1s-.1 0 0 0zm0-2.5h.1-.1zm0 1.6h.1l.2.1c0-.1-.2-.1-.2-.1h-.1zm0 1.4c.1 0 .1 0 0 0v.1-.1zm.1 1.3h.2v-.1.1c-.2 0-.3 0-.3.1v-.1h.1v.3s0-.1 0 0c0-.2.2-.2 0-.3zm-.1.7v-.1.1zm0 .2v.1-.1zm.1 1c0-.1 0-.1-.1 0v-.1.1c.1 0 .1 0 .1-.1h.2c-.2-.1-.2-.1-.2.1zm0-6.4v.1c.2 0 .2 0 .2-.1h-.2zm.2.3h-.2.2zm0 .6h-.2c.2.1.2 0 .2 0zm-.2 3.1h.2-.2zm.2 2.5c-.2 0-.2 0-.2.1h.2v-.1zm-.2 1.2v.1-.1zm.2-2.3c-.2 0 0 0 0 .1s.1.1 0-.1zm.2-6c-.1-.3-.1-.1-.3 0l.1-.1v.1h.2zm-.1.3h-.1.1zm-.1 1.8c.1 0 .1 0 .1-.1h-.1v.1zm0 .7v-.1.1zm.1.2c0-.1 0-.1 0 0h-.1.1zm-.1 1.2v.1h.1l-.1-.1zm.1.5h-.1.1zm-.1.9v-.1.1zm.1 1.2v-.1h-.1c0 .1.1.1.1.1zm0 .5h-.1.1zm-.1 1.5v-.1.1zm.1-3.6c-.1 0 0 0 0 0s0 .2 0 0c.1 0 0 0 0 0zm0-4.8v.1-.1zm0 1.5v-.1.1zm0 .1h.1-.1zm0 1.7v.1-.1zm.1 5.2h-.1c0 .1.1.1.1 0zm-.1.3.1.1V64h-.1zm.4-9.2c-.1 0-.1.1-.1.1v.1h.1v-.2h-.1.1zm0 9c0-.1 0 0-.1 0h.1zm-.1.4h.1-.1zm.2-9.4c.1 0 .1 0 0-.1h-.1.1v.1c.1 0 0 0 0 0zm1.3 8.5c.3-.3.4-.5.6-.8v-.1c-.1-.2 0-.6-.1-.9v-.3c.1-.3.1-.4.1-.7-.1-.1-.1-.3 0-.5 0-.3-.1-.5 0-.8 0-.1-.1-.3-.1-.4.1-.5 0-1.1 0-1.7v-.3c.1-.2 0-.5.1-.8-.1-.1-.1-.2-.1-.4-.1-.4-.2-.7-.5-.7h-.1c-.4 0-.7 0-.8.3-.4.3-.5.7-.5 1 .1.3 0 .5.1.8v.3c-.1 0-.1.2-.1.4v.6c.1.6 0 1.3.1 2 0 .1 0 .3-.1.4v.4c.1.1.1.3 0 .5v.4c.1.1.1.3.1.4 0 .4.5 1.1 1 1.1.2 0 .3 0 .3-.2zm-1.3-9v.2-.2zm.1-.3s0 .2 0 0c.1 0 0 0 0-.1 0 0-.1 0 0 .1zm0 10h.1-.1zm.2-9.5h.1-.1zm.2 9.7v-.1h-.1c0 .1.1.1.1.1zm-.1.3v.1l.1-.1c0-.1.1-.1 0-.1v.1h-.1zm.3-10.3c0 .1 0 .1.1.1 0 0 0 .2.1 0l-.1-.1h-.1.1-.2.1zm.1 9.6h.1-.1s-.1 0-.1.1v-.1.1s-.1-.1-.1 0h.1c.1.1.1.1.1-.1zm0-9.9c0-.1.1-.1 0-.1v.1c0-.1 0-.1-.1-.1.1.1.1 0 .1.1zm.3 10.6v-.1c-.2 0 0-.2-.2-.2 0 .2 0 .2.2.2v.1zm.1-10.5-.1-.1h.1c-.1.1-.1.3 0 .3V54h.1s0 .1.1.1l-.1-.1h-.1zm0 .6h-.1.1zm-.1 9.2v-.1.1zM102.6 54.7c.1 0 .1 0 .1-.1.1 0 0 0 0 0s-.1 0-.1.1zm.1 9.3h-.1.1zm-.1.1v.1-.1zm.2-10.1-.1.1c.1.1.1.1.1-.1zm0 9.5v.1-.1zm.1.2h-.1v.1h.1-.1.1v-.1zm0-9.2v-.2.2zm.3 9h-.1.1zm0-8.5h.1-.1zm0 8.3h.1c0-.1 0-.1-.1 0zm.1.5v-.2c-.1.1 0 .1 0 .1v.1zm0-7.8v.2-.2zm.2 5.9h-.1.2-.1zm0-6.5v-.3c-.2.1 0 .1 0 .3zm.1.3c0-.1-.1 0-.1 0h.1c.1 0 .1 0 .1-.1h.1v-.2.2h-.1c0 .1-.1.1-.1.1zm-.1.8h.1v-.1h.1-.1v.1h-.1zm.1 1.5v-.1c-.1 0-.1 0-.1.1h.1zm0 .4h-.1.1s0-.2 0 0zm-.1.6h.1c-.1 0-.1-.1-.1 0zm0 1.2h.1l-.1-.1v.1zm.2 1.2h.1c-.1-.1-.3-.1-.4-.1.2.1.3.1.3.1zm-.2.1v-.1.1zm0 2.2c.1 0 0-.1 0-.1v.1zm.2-8.6c-.1 0-.1.1-.1.1s0-.1.1-.1zm-.1 3.4v.1c0-.1 0-.1.1-.1h-.1zm.1.8v.2h-.1v.1-.1c.1.1 0 0 .1 0v-.2zm-.1.5h.1-.1zm.3 2c-.1 0-.1 0-.1-.1l-.1-.1v.1h.1s-.1.1.1.1zm.1-5.9c-.1 0-.1.1-.1.1-.1 0-.1.2-.1.2s0-.2.1-.2c0 0 .1 0 .1-.1zm-.1 1.2h-.1.1zm-.2.3s.2 0 0 0h.1c0 .1 0 .1.1 0h-.2zm.2 1.8.1.1h-.1c.1-.1.1-.1.1-.3h-.1v-.1c.1 0 .1-.1.1-.1v-.1.1l-.1.1V59.2h-.1.1zm-.2.7.1.1v-.1h-.1zm0 .4v-.1.1zm0 .5h.1-.1zm.2 1.2h-.1.1zm.1-6.3h-.1.1zm-.1 5.4h.1-.1zm.1-1.2v-.1.1zM111 63.7c-.1-.1-.1-.1 0-.3v-.1c-.1-.4-.1-.6-.1-1l.1-.1c-.1-.7 0-1.2 0-1.7-.1-.7 0-1.2 0-1.7v-.1c0-.1-.1-.1-.1-.1h-.1c0 .3 0 .4-.1.5 0 .3 0 .5-.3.7v.1c0 .3-.1.5-.1.8-.1.3-.3.7-.3.9s-.1.4-.3.7v.3c0 .3-.1.4-.4.4-.2.1-.3 0-.4-.1-.1-.3-.3-.5-.4-.8 0-.4-.1-.8-.3-1.2-.1-.1-.1-.4-.1-.5 0-.1 0-.1-.1-.3-.1-.1-.1-.3-.1-.4 0-.4-.3-.5-.3-.9 0 0 0-.1-.1-.1v.3c0 .1-.1.4 0 .7 0 .1.1.4-.1.7.1.3.1.4.1.7-.1.5 0 1 0 1.6 0 .1-.1.3-.1.4-.1.1.1.3.1.4-.1.4 0 .8 0 1.2-.1.4-.4.6-.7.8-.4 0-.8-.3-.8-.7 0-.5-.1-1.1 0-1.7v-3c-.1-.3 0-.4 0-.7v-.3c-.1-.3 0-.5 0-.8-.1-.4 0-.7 0-.9v-.8c-.1-.3-.1-.4 0-.6v-1.2c-.1-.3-.1-.4 0-.6.1-.1.1-.4.4-.4h.3c0-.1.1-.1.1 0 .4.1.7.3.8.7 0 .4.1.8.3 1 .1.3.1.6.3.9.1.1.1.4.1.5 0 .1.1.3.1.3 0 .4.1.7.4 1.1 0 .1 0 .4.1.5v.4c.1.1.1.3.3.3.2 0 .2-.1.3-.3.1-.4.3-.8.4-1.2.1-.4.1-.8.4-1.3.1-.5.3-1.1.4-1.6.1 0 .1-.1.1-.1.1-.3.1-.4.1-.5v-.3c.1-.3.8-.5 1.1-.5 0 .1.1.1.1.1.3.3.4.5.3.9v.5c.1.1.1.4.1.5-.1.7 0 1.3-.1 1.9 0 .1 0 .3-.1.4 0 0 .3 0 .3.1-.1.4 0 .8-.1 1.2v1.2c0 .4.1.8 0 1.2v.4c.1.3.1.7 0 .9 0 .1.1.3 0 .3v.1c.1.3 0 .4 0 .6v.5c.1.3 0 .5-.3.7-.1.4-.8.3-1.1-.1-.1-.1.1-.3 0-.4-.1-.6-.1-.8-.1-1zm-4.6-7.6c.1 0 .1 0 .1-.1h-.1v.1zm0 .3v.1c.1 0 .1 0 .1-.1h-.1zm.3 1.3h-.1c0 .1-.1 0-.1.1h.1c-.1 0 .1 0 .1-.1h.1v-.3c0 .2-.3.2-.1.3zm-.2-.1v-.1.1h-.1.1zm-.1.4v.1-.1zm.1 1.3s-.1 0-.1.1h.1v-.1zm0 .6c0 .1 0 .1-.1.3h.1c0 .1-.1.3 0 .4v.1s.1-.1 0-.1v-.3c0-.3.1-.4.3-.5-.1 0-.1 0-.3.1h-.1v-.1l.1-.1c-.1 0-.1.1-.1.1v.1h.1zm-.1 2.5v-.1.1zm0 .3c0 .1.1.1.1 0h-.1zm0 .9v-.1.1zm0 .5v.1h.1s0-.1-.1-.1zm.1-5.7s-.3.1 0 .1v-.1zm.5-3.9c-.1.1-.1.1-.1.3h-.3c0 .1 0 .1-.1.1h.3s0-.1.1-.1c0 0 .1 0 .1-.3v-.1.1zm-.5.8h.1-.1zm.2.3h-.1.1zm0 1.1s-.1 0-.1.1h.1v.1c0-.1.1-.1 0-.2zm0 2h-.1s0 .1.1.1v-.1zm.1.7c0-.1 0-.1-.1-.1v.2h-.1.1c.1 0 .1-.1.1-.1zm0 2.1c.1-.1 0-.1 0-.1l-.1-.1h-.1.1c-.1.1 0 .1 0 .3l.1-.1zm-.1.5h-.1v-.2.2h.1zm-.2.4v.1h.1v-.1h-.1zm.2 1.2c0 .1-.1.1 0 .1 0 .1-.1.1-.1.1 0 .1.1.1.1.1.1-.1.1 0 .1-.1s0-.1-.1 0v-.2zm.1-6.3c0-.1-.1-.1-.1-.1s.1 0 .1.1zm-.1 3.7.1.1V61h-.1zm.1 2.2c-.1 0-.1 0-.1.1h.1v-.1zm-.1 1.1v.1-.1zm.1-10.3h.1-.1zm.2 1.7h-.1v-.1.2h-.1.1v-.1h.1zm-.2 3.6v-.1.1zm0 .9s.1 0 .1.1h.1c-.1-.1-.1-.1-.2-.1zm.1-4.2v-.1.1zm.1 2.2c0-.1-.1-.1-.1-.1v.1h.1zm-.1 1.3c0 .1 0 .1.1 0h-.1zm0 2.4v.1s.1 0 0-.1zm0 .5v-.1.1zm.1-8.1v-.1.1zm.2.6c0 .1-.1 0-.1 0v.2-.1c.1.1.1.1.3 0-.1-.1-.1-.1-.2-.1zm-.2 1v.1h.1c.1 0 .1-.1-.1-.1zm.3.2h-.2c0 .1 0 .1.1.1 0 .1 0 .1.1-.1zm-.1.7-.1.1c.1 0 .1-.1.1-.1zm0 .6h-.1.1v-.1.1zm0-2.1h.1-.1zm0 1.2v.1-.1zm.1 1.2c-.1 0-.1 0-.1-.1 0 .1 0 .1.1.1zm0-3v-.1.1zm0 1.2v-.1.1zm0 1.3s.1-.1 0-.1v.1h.1-.1zm.1.2v-.1.1h-.1.1zm.2-1.8h-.1v.1h.1-.1.1v-.1zm0 .8v-.3h.1-.1s-.1 0-.1.1c-.1.1.1.1.1.2zm0 .5v-.1h-.1s-.1.1.1.1zm0 .8.1.1s0-.1-.1-.1zm.1.3h-.1l.1.1V58zm.1-.8h-.1.1zM108 57.6v-.1.1zm.1.1c0 .1-.1.1-.1.1v.1h.1c0-.1-.1 0-.1 0v-.1s.1 0 .1-.1zm.1.3v.1-.1zm.2.4v.1h.1s0-.1-.1-.1zm.1.9h-.1v.1l.1-.1h.1c0 .1-.1 0-.1 0v.1-.1zm0-.4v.1h.1s0-.1-.1-.1zm.1.8v.1s.1 0 0 0v-.1zm.1 1.3h.3c-.1-.2-.1 0-.3 0zm.2-.4v-.1c-.2 0-.2 0 0 .1zm.1-1.1-.1-.1h.1-.1v.1h.1l-.1.1.1-.1zm-.1.7v.1-.1zm.2 1.2c0-.2 0 0 0 0h-.1.1zm-.1.4h.1-.1zm.1-1.5c0-.1 0 0 0 0v-.1.1zm.2-.9h.1-.1zm.1 1.7c0-.1 0-.1-.1-.1 0 .1 0 .1.1.1v.1-.5.2c-.1-.1 0 .1 0 .2zm.2-1.3c0-.1.1-.1 0-.3 0 0-.1 0-.1.1l.1.2c0 .1 0 .1-.1.3 0 0 0-.1 0 0v.1c.2-.1.2-.1.1-.4zm.1-.4c0-.1-.1-.1-.1-.1 0 .1 0 .1.1.1zm-.1 1.1v-.1.1zm.1-.3h.1-.1zm.5-1.8-.1-.1c-.1.1-.1.1-.1.3h.1l.1-.2zm-.3.9v.1c.2 0 0-.1 0-.1h.1c-.1 0-.1-.2-.1 0zm.3-1.6h-.1c0 .1 0 .1.1.1v-.1zm-.1.5h.1c-.1 0-.1 0-.1-.1v.1zm0 .7v.1-.1zm.1 0h.1v-.1c-.1-.1-.1-.1-.1.1zm.5-1.1c-.1 0-.1-.1-.1-.1 0-.1-.1-.1-.1-.1s0-.1-.1-.1c0 .1 0 .1.1.1v.1h-.1c.1.1.1 0 .1 0h.1v.1h.1zm-.4.3h.2-.2zm.4-.8h-.1.1zm0-1.4.1.1c.1-.1 0-.1 0-.3h.1s0 .1 0 0h-.1c-.1 0-.1.2-.1.2zm.2 1.1v-.1s0 .1-.1.1h.1zm0 .4c.1.1.1 0 .1 0h-.1zm.2-2.6-.1.1h.1s.1 0 .1-.1h-.1zm-.1.5c.1.1.1 0 .1 0h-.1zM111 56.7h.1-.1zm0 .2v-.1.1zm0 .4h.1c-.1-.1-.1-.1-.1 0zm.1-1v-.1.1zm.1 1.4h-.1.1zm0-2V55.4v.2c-.1 0-.1 0 0 0v.1zm0 .6v.1c-.1 0 0 0 0 0h.1c.1-.1.1-.1-.1-.1zm0 .4h.3c0-.1 0-.1-.1-.1 0-.1-.2-.1-.2.1zm0 0v.1-.1zm0 .3h.1-.1zm0 5.7v.1c.1 0 .1 0 .1-.1h-.1zm.3.5h-.1c0-.1 0-.1.1-.1 0-.1 0-.1-.1-.1 0 0-.1 0-.1.1l.1.1s.1 0 .1.1v-.1zm-.1-4.6v-.1h.1v-.1.1h-.1s-.2.1 0 .1zm.1-4.2h-.1.1zm-.1 1.2h.1-.1zm.3.5c0-.1-.1-.1-.1-.3h-.1v.2c0 .1.1.1.1.1-.1.2-.1 0 .1 0zm0 1.7v-.1.1c0-.1-.1-.1-.1-.1v.1h-.1c0-.1 0 0 0 0v.1s.1 0 .1-.1h.1zm-.3 1.7v.3V59.5zm0 1v.1c.1 0 .1-.1.3-.3 0 0 0 .1 0 0v.1c-.2.1-.2.1-.3.1zm0 1.5s0-.2.1-.2c0-.1-.1-.1-.1-.1v.3zm.1-.8c-.1.1 0 .1 0 .3.1-.1.1-.1.3-.1v-.1.1c-.1 0-.3-.2-.3-.2zm0 2.8v-.2h.1-.1v.1s-.1 0 0 .1zm.2-9.9c0 .1 0 .1.1.1h-.1v-.1s.1 0 .1-.1c-.1 0-.1.1-.1.1h-.1.1v.1-.1zm0 3.1c-.1 0-.1 0-.1.1-.1-.1.1-.1.1-.1zm-.2.9c0 .1 0 0 .1 0h-.1zm.2.6v-.1l-.1.1h.1zm-.2 2.9h.3v.1s.1-.1 0-.1h-.3c.1 0 .1 0 .1.1.1-.1.1-.1-.1-.1zm.3 1.2h-.3l.3-.3c-.1 0-.3.1-.1.3 0 .2.1.2.1 0 0 0 0-.1.1-.1l-.1.1zm-.3.7h.1-.1zm0 .5h.1-.1zm.3-9.5h-.1c-.1.1 0 .1 0 .1h.1c0 .1.1.1 0-.1zm-.1 1.9c.1 0 .1 0 .1-.1 0 0 0-.1-.1-.1 0 .1.1.1.1.1 0 .1 0 .1-.1.1zm.1 1h-.1.1v-.1.1zm-.1 1.9h.1s-.1 0-.1-.1v.1zm.1.5s0 .1-.1.1h.1v-.1zm-.1.4h.1s-.1-.1-.1 0zm0 1.8c.1 0 0 0 0 .1h.1l-.1-.1zm.1.4h.1c-.1 0-.1-.1-.1-.1s0 .1-.1.1c0-.1.1-.1 0-.1v.1h.1zm-.1 1.9c0 .1 0 0 0 0 .1 0 .1 0 0-.1v.1zm.1-7.1s.1 0 .1-.1h-.1v.1zm0 .9c.1.1.1.1.1.3 0-.2 0-.3-.1-.3.1 0 .1 0 .1-.1-.1 0-.1.1-.1.1zm0 .8v-.1.1zm0 4.4v-.1.1zm.1-8.2v.1s-.1 0 0 0v-.1zM112 63.7c-.1.1 0 0 0 .1h-.1.1v-.1zM118.7 57.1c.1.1-.1.5 0 .8 0 .3.1.5 0 .8v1.2c.1.3 0 .7 0 .9v.8s.1 0 0 .1v.9c0 .2 0 .3-.1.4 0 .1 0 .4-.1.6 0 .1 0 .3-.1.3 0 0 0 .1-.1.1-.1.4-.4.7-.8.8-.1.1-.3.1-.3.2-.1 0-.3.1-.4 0h-.5c-.5 0-.9-.1-1.2-.4-.9-.7-1.2-1.7-1-2.6v-.8c-.1-.1 0-.4 0-.5 0-.3-.1-.5 0-.7 0-.3-.1-.4 0-.5.1 0 0-.1 0-.1-.1-.6 0-1.1 0-1.6l.1-.1c-.3-.4 0-.8-.1-1.2-.1-.1 0-.3 0-.4 0-.2.1-.4 0-.7 0-.3.1-.5.2-.8.3-.4.5-.8.9-1.1.1-.3.4-.4.8-.3.1 0 .2-.1.5-.1s.5 0 .8.3c.5.3.9.6 1.2 1v.1c.1.5.4.9.3 1.4-.1.5 0 .8-.1 1.2zm-4.3 1.3v.1-.1zm0 .8h.1v.1-.1h-.1zm.1 2.2v.1l.1-.1s-.1 0-.1-.1h.1s0 .1 0 0l-.1.1s-.1 0-.1-.1c0 .1.1.1.1.1zm0-3.3v.1h.1l-.1-.1s-.1 0 0 0zm0-2.5h.1-.1zm0 1.6h.1l.2.1c0-.1-.2-.1-.2-.1h-.1zm0 1.4c.1 0 .1 0 0 0v.1-.1zm.1 1.3h.2v-.1.1c-.2 0-.3 0-.3.1v-.1h.1v.3s0-.1 0 0c0-.2.2-.2 0-.3zm-.1.7v-.1.1zm0 .2v.1-.1zm.1 1c0-.1 0-.1-.1 0v-.1.1c.1 0 .1 0 .1-.1h.2c-.2-.1-.2-.1-.2.1zm0-6.4v.1c.2 0 .2 0 .2-.1h-.2zm.2.3h-.2.2zm0 .6h-.2c.2.1.2 0 .2 0zm-.2 3.1h.2-.2zm.2 2.5c-.2 0-.2 0-.2.1h.2v-.1zm-.2 1.2v.1-.1zm.2-2.3c-.2 0 0 0 0 .1s.1.1 0-.1zm.3-6c-.1-.3-.1-.1-.3 0l.1-.1v.1h.2zm-.2.3h-.1.1zm-.1 1.8c.1 0 .1 0 .1-.1h-.1v.1zm0 .7v-.1.1zm.1.2c0-.1 0-.1 0 0h-.1.1zm-.1 1.2v.1h.1l-.1-.1zm.1.5h-.1.1zm-.1.9v-.1.1zm.1 1.2v-.1h-.1c0 .1.1.1.1.1zm0 .5h-.1.1zm-.1 1.5v-.1.1zm.1-3.6c-.1 0 0 0 0 0s0 .2 0 0c.2 0 0 0 0 0zm0-4.8v.1-.1zm0 1.5v-.1.1zm0 .1h.1-.1zm0 1.7v.1-.1zm.2 5.2h-.1c-.1.1.1.1.1 0zm-.2.3.1.1V64h-.1zm.4-9.2c-.1 0-.1.1-.1.1v.1l.1-.1v-.1h-.1.1zm0 9c0-.1 0 0-.1 0h.1zm-.1.4h.1-.1zm.3-9.4c.1 0 .1 0 0-.1h-.1.1v.1c.1 0 0 0 0 0zm1.3 8.5c.3-.3.4-.5.6-.8v-.1c-.1-.2 0-.6-.1-.9v-.3c.1-.3.1-.4.1-.7-.1-.1-.1-.3 0-.5 0-.3-.1-.5 0-.8 0-.1-.1-.3-.1-.4.1-.5 0-1.1 0-1.7v-.3c.1-.2 0-.5.1-.8-.1-.1-.1-.2-.1-.4-.1-.4-.2-.7-.5-.7h-.1c-.4 0-.7 0-.8.3-.4.3-.5.7-.5 1 .1.3 0 .5.1.8v.3c-.1 0-.1.2-.1.4v.6c.1.6 0 1.3.1 2 0 .1 0 .3-.1.4v.4c.1.1.1.3 0 .5v.4c.1.1.1.3.1.4 0 .4.5 1.1 1 1.1.1 0 .3 0 .3-.2zm-1.3-9v.2-.2zm.1-.3s0 .2 0 0c.1 0 0 0 0-.1 0 0-.1 0 0 .1zm0 10h.1-.1zm.1-9.5h.1-.1zm.3 9.7v-.1h-.1c-.1.1.1.1.1.1zm-.2.3v.1l.1-.1c0-.1.1-.1 0-.1v.1h-.1zm.3-10.3c0 .1 0 .1.1.1 0 0 0 .2.1 0l-.1-.1h-.1.1-.2.1zm.1 9.6h.1-.1s-.1 0-.1.1v-.1.1s-.1-.1-.1 0h.1c.1.1.1.1.1-.1zm0-9.9c0-.1.1-.1 0-.1v.1c0-.1 0-.1-.1-.1.1.1.1 0 .1.1zm.3 10.6v-.1c-.2 0 0-.2-.2-.2 0 .2 0 .2.2.2v.1zm.1-10.5-.1-.1h.1c-.1.1-.1.3 0 .3V54h.1s0 .1.1.1l-.1-.1h-.1zm0 .6h-.1.1zm-.1 9.2v-.1.1zM116.9 54.7c.1 0 .1 0 .1-.1.1 0 0 0 0 0s-.1 0-.1.1zm.1 9.3h-.1.1zm-.1.1v.1-.1zm.2-10.1-.1.1c.1.1.1.1.1-.1zm0 9.5v.1-.1zm.2.2h-.1v.1h.1-.1.1v-.1zm0-9.2v-.2.2zm.2 9h-.1.1zm0-8.5h.1-.1zm0 8.3h.1c.1-.1.1-.1-.1 0zm.2.5v-.2c-.1.1 0 .1 0 .1v.1zm0-7.8v.2-.2zm.1 5.9h-.1.2-.1zm0-6.5v-.3c-.1.1 0 .1 0 .3zm.1.3c0-.1-.1 0-.1 0h.1c.1 0 .1 0 .1-.1h.1v-.2.2h-.1c.1.1-.1.1-.1.1zm-.1.8h.1v-.1h.1-.1v.1h-.1zm.1 1.5v-.1c-.1 0-.1 0-.1.1h.1zm0 .4h-.1.1s0-.2 0 0zm-.1.6h.1c-.1 0-.1-.1-.1 0zm0 1.2h.1l-.1-.1v.1zm.3 1.2h.1c-.1-.1-.3-.1-.4-.1.1.1.3.1.3.1zm-.3.1v-.1.1zm0 2.2c.1 0 0-.1 0-.1v.1zm.3-8.6c-.1 0-.1.1-.1.1s-.1-.1.1-.1zm-.2 3.4v.1c0-.1 0-.1.1-.1h-.1zm.2.8v.2h-.1v.1-.1c.1.1 0 0 .1 0v-.2zm-.2.5h.1-.1zm.3 2c-.1 0-.1 0-.1-.1l-.1-.1v.1h.1s0 .1.1.1zm.1-5.9c-.1 0-.1.1-.1.1-.1 0-.1.2-.1.2s0-.2.1-.2c0 0 .1 0 .1-.1zm-.1 1.2h-.1.1zm-.1.3s.1 0 0 0h.1c0 .1 0 .1.1 0h-.2zm.1 1.8.1.1h-.1c.1-.1.1-.1.1-.3h-.1v-.1c.1 0 .1-.1.1-.1v-.1.1l-.1.1V59.2h-.1.1zm-.1.7.1.1v-.1h-.1zm0 .4v-.1.1zm0 .5h.1-.1zm.1 1.2h-.1.1zm.1-6.3h-.1.1zm-.1 5.4h.1-.1zm.1-1.2v-.1.1zM129.7 53.5h.1c.4.3.9.5 1.1 1.2.4.7.4 1.3.4 2 0 .1-.1.2 0 .5v1.7c-.1.1-.1.3 0 .3v.8c-.1.1-.1.4 0 .5 0 .1 0 .4-.1.5 0 .1.1.4.1.5 0 .7-.1 1.2-.3 1.8 0 .3-.3.7-.4.9-.1.1-.4.4-.6.4h-.1c-.4.4-.9.3-1.5.4-.3 0-.5-.1-.9 0-.1 0-.4-.1-.6-.3l-.1-.1c.1-.3 0-.4 0-.7v-2c-.1-.5 0-1.1 0-1.4 0-.3-.1-.4.1-.5v-.1c-.3-.3-.1-.5-.1-.8v-.3c-.1-.4 0-.8 0-1.3V57c-.1-.3-.1-.4 0-.7v-1.9c0-.2-.1-.5.1-.8v-.1c0-.1 0-.1.1-.3.1 0 .4-.1.5-.1h.7c.4.2 1 .3 1.5.4zm-2.6.9h.1v-.1h.1c0 .1 0 .1.1.1 0-.1-.1-.1-.1-.1h-.1v.1h-.1zm.1 1.3h-.1.1zm-.1 1.2h.1-.1zm.1.3c0 .1-.1.1-.1.1v.1c.1 0 .1-.1.1-.1v-.1l.1-.1v.1-.1h.1-.1c-.1 0-.1.1-.1.1zm0 2.3c-.1 0-.1 0-.1.1h.1v-.2.1zm-.1 3.9.1.1c0-.1 0 0-.1-.1v.1-.1zm.2-6.9h-.1.1zm-.1 1.9h.1c0-.1-.1 0-.1-.1v.1zm0 .2h.1-.1zm.1.6h-.1.1zM127.5 60.6v.1h-.1v-.1h-.1v.1h.2v-.1zm-.2 1.3c0-.1 0-.1-.1-.1v.1h.1zm0 2.4c0-.1-.1-.1-.1-.1v.1h.1zm.2-8.3c0-.1-.1-.1-.1-.1-.1.1 0 .1 0 .1h.1zm-.2-1.9h.1-.1zm0 .7h.1-.1zm0 .8v-.1.1zm0 3.2v.1-.1zm0 1v.2-.2zm0 1.3h.1V61c-.1 0-.1 0-.1.1zm.3.2v-.1c-.1 0-.1 0-.1.1h-.1.2zm-.1 1.3h-.1.1zm-.2.6v.1s.1 0 .1.1c0 0 .1 0 .1-.1 0 .1 0 .1-.2-.1zm.2-6.8v-.1c-.2.1 0 .1 0 .1zm0 2.9h.1-.1.1v-.1h.1-.1v.1h-.1c-.1.1 0 .3 0 .4.1-.2 0-.3 0-.4zm0-4.5h.1-.1zm.1.9h-.1c0 .1 0 .1.1.1v-.1zm-.1 2.5v.1-.1zm0 .4c0-.1 0 0 0 0v.1c.1 0 .1 0 .1-.1h-.1zm0 1.4v.1h.1c0-.1 0-.1-.1-.1zm.1.5h-.1.1zm0 3.1s.1 0 .1-.1h-.1v.1h-.1v.1c.1.1 0 .1 0 .1 0 .1 0 .1.1.3h.4s0 .1 0 0V64c-.1 0-.3 0-.3.1h-.1c0-.1 0-.3-.1-.4v-.1h.1zm0-6.2v-.1s-.1 0 0 .1zm0-3.2v.1h.1c0-.1 0 0 0 0h-.1v-.1zm0 .8v.1h.1s0-.1-.1-.1zm0 .6v-.1.1zm0 2v.1h.1l-.1-.1zm.1-2.9h.1v.1-.1h-.1zm0 .1c0 .1.1.1.1.1v-.1h-.1zm.1-.7v-.2.1c-.1-.1-.1.1 0 .1v.1-.1zm.3 8.7c0 .3.3.5.4.7h.1c.1-.1.1 0 .3-.1.3 0 .5-.1.7-.3.1-.3.3-.5.3-.8 0-.4-.1-.9 0-1.3v-.1c-.1-.4.1-.8 0-1.1V56.3c0-.1 0-.4-.1-.5-.1-.6-.5-.9-1.2-.8-.3 0-.5.3-.5.7.1.4.1.9 0 1.3 0 .1.1.3.1.4-.1.1 0 .3 0 .4v.5c0 .1 0 .3-.1.4-.1.1.1.3.1.4-.1.5 0 1.2-.1 1.7v.1c.1.1.1.3.1.5-.1.2 0 .5-.1.8 0 .2-.1.4 0 .6zm0-9v-.1s0 .1-.1.1h.1zm0 .4c-.1 0-.1 0-.1.1.1 0 0 0 .1-.1-.1 0-.1 0 0-.1h-.1.1v.1zm0 9.6h-.1s0 .1.1.1v-.1zm.1-9.2c0-.1-.1-.1-.1-.1 0 .1 0 .1.1.1zm0-.5v.1-.1zm.2.1c0 .1 0 .1.1.1v-.1h-.1zm.2.2h-.1.1zm-.1 9.8s0-.2 0 0v-.1.1zm.3-.2v.1-.1s-.2 0 0 0zm.1-9.8c-.1-.1-.1 0-.1 0s0 .1.1 0zm.1-.1h.1s0 .1.1.1v-.1c0-.1-.1 0-.1 0h-.2.1zm.2 9.9h-.1.1v-.1.1zm0-9.4v-.1.1zm0 9.8h.1-.1zm.2-10h-.1.1zm.2 9.2h-.1c0 .1 0 .1-.1.1v.1l.1-.1v-.1h.1zm0-9.4v-.1l-.1.1h.1zm0 .4h.1c0 .1-.1.1 0 .1v-.1h-.1zm.1-.4v-.1.1zm.1 9.3h-.1v.1h.1v-.1zm0 .7h-.1c0 .1.1.1.1 0zm0-.4v.1-.1zm.3-.2c0-.1 0-.1 0 0-.1 0 0 0 0 0h.1-.1zm0-8.5v.1-.1zm0 .5h.1v-.1l-.1.1zm.4.9h-.1l-.1-.1c0 .1.1.1.1.1h.1zm0-1.4v.1-.1c-.1 0-.1 0-.1-.1 0 .2.1.1.1.1zm-.1.9c.1 0 .1.1.1.1V56h-.1zm0 2.1h.1l-.1-.1v.2-.1zm0 1.3h.1v-.1c-.1.1 0 .1-.1.1 0 .1 0 .1.1.3 0-.2-.1-.2-.1-.3zm0 .6h.1-.1v.1-.1zm.1-4.3v-.1.1zm0 1.1v-.1.1zm.1 2.2h-.1v.1-.1h.1zm0 1.5h-.1.1zm-.1 1.1h.1-.1zm.2-4.8s0-.1-.1-.1c0 .1.1.1.1.1s0 .1.1.1c-.1 0-.1-.1-.1-.1zm-.1.3h.1-.1zm0 .3h.1v.1-.1h-.1v-.1.1zm0 .8v-.1.1zm0 .6v.1h.3c-.2 0-.2 0-.3-.1zm0 1.8v.2-.2zm.3-2.6h-.1v.1c.1 0 .1 0 .1-.1zM135.8 56c.1.4.1.6.2 1.1v.5c.1.8.3 1.4.4 2.1.1.8.4 1.7.5 2.5 0 .4.1.7.3 1.1v.1c0 .1 0 .4.1.5.1.4 0 .7-.1.9-.1.1-.3.3-.4.3-.5 0-.9-.3-1.1-.8 0-.4 0-.8-.1-1.2-.3-.5-.5-.6-1.1-.6-.4 0-.6.1-.9.5v.1c0 .1 0 .1-.1.3-.1.1 0 .4 0 .7 0 .1-.1.3-.1.4-.1.5-.8.7-1.2.5-.1-.1-.3-.3-.3-.4 0-.4 0-.8.1-1.2 0-.3.1-.5.1-.9.1-.3.1-.7.3-1.1.1-.5 0-1.3.3-1.8.1-.4.3-.9.3-1.3V58c.1-.5.3-1.2.4-1.7 0-.1 0-.4.1-.5v-.4c0-.3 0-.7.1-.9.1 0 .1-.1.1-.1-.1-.4.1-.8.5-.9.1-.1.2-.1.2 0 .3 0 .4 0 .5.1.1 0 .1.1.3.3 0 .4.1.7.1 1 0 .1 0 .4.1.5.1.1.1.3.1.5v.1zm-3.3 8.3v.1-.1zm.1-.2V64s-.1 0 0 .1zm.2-1.7c0 .2 0 0 0 0 0 .1 0 .1-.1.1h.1v-.1zm.1-.3v.2h-.1c0 .1.1 0 .1 0h.1s-.1 0-.1-.2zm0 .7h-.1.1zm-.1 1.5h.1-.1zm.1-3.1v.1-.1zm0 2.4h.1-.1zm.1-2.6v.1c-.1 0 0 0 0 0V61zm0-.6v-.1.1zm0 3.6h.1c-.1-.1-.1-.1-.1 0zm.2-4h.1c0-.1 0-.1-.1-.1v.1zm.1.8c-.1-.1-.1 0-.1 0h.1zm-.1.3h.1-.1zm.5 1.2h-.1v.1c0-.1 0-.3-.1-.3s0 .2 0 .2h-.2v.1c.1 0 .1 0 .1-.1 0 .1.1.1.1.1v.1c.1 0 .1-.1.1-.1.1 0 .1 0 .1-.1zm-.4-3.6h.1v-.1c-.1 0-.1.1-.1.1zm.1-.8h.1v-.1c-.1 0-.1 0-.1.1zm.2 1.9v-.1l-.1.1h.1zm0 .5v-.1h-.1c-.1.1-.1.1.1.1-.1 0-.1.1 0 .1 0 .1 0 0 .1 0h-.1v-.1zm-.2.7v.1h.1c.1-.1-.1-.1-.1-.1zm.2-3.6s0 .1.1 0v-.1c-.1 0-.1.1-.1.1zm.1.5-.1.1h.1v-.1zm0 3.5c-.1 0-.1 0-.1.1h.1v-.1zm0-4.6v.1s0-.1.1-.1h-.1zm0 .4V57v.2zm0 .4v.1h.1c-.1 0-.1 0-.1-.1zm0 1h.1-.1zm0 .9v.1-.1zm0 2.3h.1-.1zm.1-4.4c.1 0 .1-.1.1-.1h-.1v.1zm0 .9h.1-.1zm.2 2.9h-.1.1c.1.1.1.1.2.1-.1-.1-.1-.1-.2-.1zm.1-5.2-.1-.1v.1h.1zm.9 2.7c-.1-.4-.3-.9-.3-1.3h-.2v.9c-.1.6-.3 1.2-.4 1.9 0 .3 0 .4.3.5.1.3.4.3.5.1.2-.1.4-.3.4-.5-.1-.3-.1-.5-.1-.7-.1-.2-.1-.5-.1-.8l-.1-.1zm-.7 3.2c0-.1 0-.3-.1-.1-.1.1.1.1.1.1zm-.1-7.5c.1 0 .1-.1.1-.1 0-.1-.1-.1-.1-.1v.2zm0 .3v.1h.1s0-.1-.1-.1zm0 .2v-.1.1zm0 1v-.1.1zm.1.5v-.1.1h-.1.1zm.2-.8h-.1.1zm0 .5V56h-.1s-.1.1.1.1zm.1-2.1h-.1v.1c.1 0 .1 0 .1-.1zm-.1 7.8c0 .1.1.1.1.1v.1c0-.1 0-.2-.1-.2zm.2-7.7v.1h-.1.1c.2 0 .2 0 0 0v-.1zm.2.4h-.2c0-.1 0-.1-.1-.1v.1c.1.1.1 0 .1 0h.2zm-.2.7h-.1c.1 0 .1.1.1.3v-.3zm0 .9h-.1.1zM134.7 55.9v-.1.1zm0 .5h.2-.2zm.2.5c-.2 0-.2-.1-.2 0H135h-.1zm.1-.8c0-.1 0-.1-.1 0h.2-.1zm-.1 5.1h.1-.1zm0 .4v-.1.1zm.1-6.5c.1-.2.1-.3.1-.3h-.1v.3zm0 .8c.1 0 .1-.1.1-.3-.1 0-.1.1-.1.3zm0 .7h.1-.1zm0 .6v.2c0-.1.1-.1.1-.1v-.1h-.1zm.3.5h-.1.1s0-.1 0 0zm.1-.8h-.1s0 .1.1 0zm0 1c0-.1 0-.1-.1-.1v.1h.1zm0 3.7v.1h-.1v.1-.1h.1v-.1zm0-4.4c-.1 0 0 .1 0 .2V57.1v.1zm0-.6v-.1.1zm0 .2h.1s0-.2-.1-.2v.2zm.1.9v-.1h-.1c.1 0 .1.1.1.1zm-.1.6v-.1.1zm0 .3v.1h.1c-.1 0-.1-.1-.1-.1zm0 .4v.1c.1 0 .1 0 .1-.1h-.1s.1 0 0 0zm0 1.8v.1c0-.1 0 0 .1-.1h-.1zm0 1.1v-.1.1zm.3-3.8h-.1.1s0 .1 0 0zm0 1.5v.1-.1h-.1.1zm-.2 1.4c.1.1.1.1.1 0h-.1zm.4.1c0-.1-.1 0-.3 0v.1c-.1 0-.1 0 0 0v-.1c.1 0 .1.1.3.1v.1-.2s.1 0 .1-.1c0 .1 0 .1-.1.1zm-.2-1.6v-.1.1zm0 .5v-.1h.1-.1v.1zm0 .7v.1-.1.1-.1zm.1-1.7c.1 0 .1 0 0 0v-.1.2-.1zm.1.4s0-.1-.1-.1c.1 0 .1.1.1.1zm-.1 2.7V62v.1zm0 .5h.1-.1zm.1-2h.1-.1zm.1 2.2c0-.1 0 0-.1 0h.1zm0-2.5s-.1 0 0 .1v-.1zm0 .4v.1-.1zm0 1.6h.1s0-.2-.1-.2v.2zm.3.5h-.1.1zm0-1.7v.1-.1zm0 1.2v.1-.1zm.3 0h-.1V62c-.1.1 0 .1 0 .1v.2h.1zm-.1.6h.1s0-.1-.1 0zm0 .6h.1-.1zm0 .4v-.1.1zm.3-.7c-.1 0-.3-.1-.3 0 .2.1.2 0 .3 0v.1-.1zm-.1.9h.1l-.1-.1v.1zM138.4 61.3v-3.1c0-.1.1-.3 0-.4v-.4c0-.4-.1-.9 0-1.4.1 0 0-.1 0-.1v-.8c-.1-.4 0-.8 0-1.2 0 0 0-.1.1-.1 0 0 0-.1.1-.3 0 0 0-.1.1-.1.3-.1.9 0 1.1.4v.1c.3.1.3.5.3.8 0 .1.1.1.1.3.1.4.3.8.4 1.3 0 .1 0 .1.1.3.3.7.4 1.2.5 1.9.1.4.4.9.4 1.3.1.1.1.1.3.1V54.1c0-.1.4-.5.5-.6.4 0 .6.1.8.5.1.1.1.4.1.5V55.7c-.1.3 0 .4 0 .7V60h-.1c.1.4 0 .7.1 1.1V63.4c-.1.3 0 .5 0 .8v.5c0 .3-.3.5-.5.5-.1 0-.4.1-.5 0-.3-.1-.5-.4-.5-.6 0-.1-.1-.4-.1-.5l-.1-.1c.1-.3-.1-.5-.1-.8-.3-.4-.4-.8-.4-1.3v-.1c-.3-.3-.3-.5-.4-.9v-.1c-.1-.3-.3-.5-.3-.8-.1-.4-.3-.6-.4-1h-.1c-.1.1-.1.3 0 .4 0 .4.1.8 0 1.2v1.3c-.1.4 0 .8 0 1.2v1.5c.1.4-.1.8-.4.9 0 .1-.1.1-.1.1s-.6-.1-.6-.3c-.1-.1-.3-.3-.3-.5v-.1c0-1.5-.1-2.4-.1-3.4zm.4-7s.1 0 .1.1c0-.1 0-.1-.1-.1zm0 .2h.1-.1zm.1 1.2h-.1c.1 0 .1 0 .1.1v-.1zm-.1.3.1.1V56h-.1zm.1 1v-.1h-.1c.1 0 .1.1.1.1zm-.1.3v.1-.1zm.1 4.3s-.1 0 0 0v.1c.1 0 .1-.1.1-.1h-.1zm.2-6.9h-.1v.1s.1 0 .1-.1zm-.2.6v.1-.1zm0 2.7v-.1.1zm0 1.4v-.1.1zm0 2.6h.1c0-.1 0-.1-.1-.1v.1zM139.2 61.3h-.1c-.1.1 0 .1 0 .1.1 0 .1.1.1.1h-.1.1v-.2zm0-7.2h-.1.1zm0 2.1v-.1h-.1.1v.1zm-.1.7h.1-.1zm.1 1.3c0-.1-.1-.1-.1-.1v.2-.1h.2v.1-.1h-.1zm-.1 1.6v.1c.1 0 0-.1 0-.1zM139.2 55.7c0 .1-.1.1 0 .1 0 .1 0 .1.1.1v.1s0-.1-.1-.1V55.6c-.1 0 0 .1 0 .1zm.1.7h-.1c0 .1 0 .1.1.1v-.1zm0 1h-.1.1zm-.1 1.6v-.1.1zm0 1.3.1.1-.1-.1zm0 .4v.1-.1zm.1 2c0-.1-.1 0-.1 0v-.1c0 .1 0 .1.1.1zm0-3.2s-.1 0 0 0v-.1.1zm.2-5.4h-.1c0-.1 0 0 0 0h.1v.1-.1zm-.2 1.1v.1h.1c.1 0 .1 0-.1-.1zm0 1.6v.1-.1zm0 .5v-.1.1zm.2.7s-.1 0-.1.1h.1s0-.1.1-.1v-.1h-.1v.1zm-.2 1v.1-.1zm.2 3.2h-.1.1zm0-7.3h.1-.1zm0 2.5h.1-.1zm0 1.2v-.1.1zm.1-3.4h.1-.1zm0 .1.1.1v-.1h-.1zm.1.4h.1c0-.1-.1-.1-.1-.1h-.1.1v.1h-.1.1zm-.1.9v.1-.1zm.1 1.1h-.1.1zm0-1.5s-.1 0 0 0c0 .1.1 0 .1.1l.1-.1h-.2zm.2 1.2h-.1s0-.1 0 0h.1zm.2.6c-.1-.1-.1-.1-.3-.1 0 0-.1 0-.1.1h.4v-.1.1zm-.1-2.1-.1.1.1-.1zm.1.7s-.1 0-.1.1v-.1s-.1-.1-.1 0l.1.1.1.1h-.3.3l-.1-.1c.1.1.1-.1.1-.1zm-.1-.5s.1 0 .1.1v-.1h-.1zm.2.5h.1-.1v.1c.1 0 .1 0 .1-.1h-.1s.2 0 0 0zm.2.8s.1.1.1 0h-.1c0-.1-.1-.1-.1-.1h.1v.1zm.1.3.1.1v-.1h-.1zm.3 1.2v-.1h-.1c-.1.1.1.1.1.1zm-.2.2h.1-.1zm.3-.5c-.1 0 0 0 0 .1v.1c.1 0 .1-.1.1-.1h-.1v-.1zm.2.7v-.1c.1 0 .1.1.1 0h-.1v.1zm.1 1.3c.1 0 .1-.1.1-.1.1 0 .1 0 .1-.1h-.1s0 .1-.1.1v.1h-.1s.1-.1 0-.1v.1h.1zm0-.9h.1s-.1.1 0 .1v-.1h-.1zm0 .4v.1-.1h.1-.1zm.2 1.7h.1l-.1-.1v.1zm.2-1.1v-.1.1zm.2 1.2v.1-.1zm.3.3c0 .1.1.3.1.3.1 0 0-.1 0-.1s.1 0 0 0c0-.1 0-.1-.1-.2 0-.1 0-.1-.1 0v.1h-.1.1s.1 0 .1-.1zm-.3.6h.1-.1zm.2-1.2v.1s-.1 0 0 0v-.1zm.1-.6v.1h.1V61s.1-.1 0-.1v.1h-.2.1zm0-.5h.1s0-.1-.1-.1v.1zm.1 1.3c-.1 0-.1.1-.1.1h.1v-.1zm-.1.9c.1 0 0 0 0 0v.1-.1zm0 .3v-.1.1zm.3-2.8c0-.1-.1-.1-.1-.1 0-.1.1 0 .1-.1-.1 0-.1.1-.1.1-.1.1-.1.1.1.1zm-.2 1.3h.1-.1zm.2 1.6V63c-.1 0-.1.1-.1.1h.1zm-.2.4v.1h.1v-.1h-.1zm.4-4.6s0-.3-.1-.1h-.1c.1.1.2.1.2.1v.1-.1zm-.1.1s0 .1-.1.1h.1V59zm0 .7s0 .1.1.1h.1-.1c-.1 0-.1-.1-.1-.1h-.1s0 .1.1 0zm-.1 4.6s.1 0 0 0v-.1.1zm.1-10h.1c0-.1.1-.1 0-.1v.1h-.1zm0 .4v-.3.3zm0 .1h.1v-.1.1h-.1zm0 .1h.1-.1s0 .1 0 0zm0 1.7v.1-.1zm.1.3h-.1.1s-.1 0 0 0zm-.1.8h.1l.1-.1c-.1-.2-.2 0-.2.1zm0 3.3v-.1.1zm0 2v.1c.1 0 .1-.1.1-.1h-.1zm.1 1.1c-.1.1 0 .1.1.1 0 .1-.1.1 0 .1v-.2h-.1zm0-8.9v-.1.1zm0 .7v.2h.2-.2v-.2zm.2 1.5h-.1v-.1c.1 0 .1-.1.1-.1-.1 0-.1.1-.1.1v.1h.1zm0 .8v-.3l.1.1c.1 0 .1-.1 0-.1l-.1-.1s.1 0 0 0v.1h-.1v.1c-.1.1-.1.2.1.2l-.1.1c-.1-.1.1-.1.1-.1zm0 3.7v-.1h-.1c-.1 0-.1.1.1.1zm0 .9v-.1h-.1v.1h.1zm0 .6v-.1.1h-.1.1zm0-7.8v.1h.1c0-.1-.1-.1-.1-.1h.1-.1zm0 .4h.1v-.1s.1 0 0 0v.1s-.1 0-.1-.1v.1zm0 .9h.1l-.1-.1v.1zm0 3.4h.1-.1zm.1 3.7h-.1.1zm.1-9.6-.1.1h.1v-.1zm-.1.5v.1c0-.1 0-.1.1-.1h-.1zm.1 1.5h-.1.1zm-.1.2v-.1.1zm0 .2h.1-.1zm.1 1.8h-.1.1zm-.1 1.6v-.1.1zm0 1.2h.1-.1zm.1.5c-.1 0-.1 0-.1.1h.1v-.1zm0 .9c-.1 0-.1 0-.1.1h.1v-.1zM146.4 53.4c.1 0 .3-.1.4-.1.3 0 .4.1.5.1.1 0 .4-.1.5-.1.3 0 .5.1.8.1.1.1.3.1.3.3.1.1.1.3.1.5 0 .1 0 .3-.1.4-.1.1-.3.3-.5.3-.3 0-.4.1-.6.1-.1.1-.3.3-.4.5V64c0 .3 0 .7-.1.9-.3.3-.8.3-1 0-.3-.3-.1-.5-.1-.9-.1-.4 0-.9-.1-1.5 0-.3 0-.5.1-.9 0-.1 0-.1-.1-.3-.1-.4 0-.6.1-.9v-.1c-.3-.3 0-.5 0-.9-.1-.1-.1-.4-.1-.6.1-.5 0-.9 0-1.4 0-.1.1-.3.1-.5-.1-.4-.1-.8-.1-1.2 0-.4-.3-.5-.7-.5-.3 0-.4-.1-.6-.1-.1-.1-.3-.3-.3-.4-.1-.4 0-.7.3-1.1.1-.1.3-.1.4-.1h.7c0-.1.2-.3.5-.1zm-1.6.8s0 .1.1 0h-.1v-.1.1zm.3-.4v.1h.1c0-.1 0-.1-.1-.1zm.2.5h-.1s.1 0 .1.1h.1-.1v-.1zm.3.1v.1-.2.1zm.1-.4c.1 0 .1 0 .1-.1-.1 0-.1 0-.1.1zm.2.4v-.1c-.2 0 0 .1 0 .1v.1-.1zm0-.6h.1-.1zm.1.4c-.1-.1-.1-.1-.1 0 .1.1.1.1.1 0zm.1.2v.3h.1-.1s.2-.1 0-.3c0-.1 0 0 0 0h-.1.1zm.2-.2c0-.1-.1-.3-.1-.3v.3h.1zm0 1s-.2 0 0 0v.1-.1zm0-1.3v.1c.1 0 .1 0 .1-.1h-.1zm0 1.1h.1c-.1-.2-.1-.2-.1 0zm.2.8s-.1-.1-.1 0c-.1 0 0 0-.1-.1V56v-.1c.1 0 .3 0 .1-.1h.1c0-.1.1-.1.1-.1s-.1-.1-.1.1zm-.2.3h.1-.1zm.1 1.5h-.1c.1.1.1.1.1 0zm0 .3h-.1.1zm.1 2.6h-.1c0 .1 0 .1-.1.3h.1l.1-.1v-.2zm-.2.7h.1-.1zm.1.2h-.1.1zm.1 1.1s0-.1-.1-.1c.1 0 .1 0 .1-.1 0 0 0 .1-.1.1 0 0 0 .1-.1.1v.1-.1h.2zm-.1-4.2c0-.1.1-.1.1-.1s-.1-.1-.1.1zm0 .6v-.1.1zm.1.4h-.1.1zm-.1 2.4v.1c0-.1.1-.1.1-.1.1 0 .1 0 .1-.1l-.1.1h-.1zm.5 1h-.1c-.1.1 0 .1 0 .3h-.3c-.1.1 0 .3-.1.4h.1c.1 0 0-.1 0-.3h.1c.1 0 .1-.1.1-.1h.1V62.7zm-.4-8.5v.1-.2.1zm.1.6h-.1v.1c0-.1.1-.1.1-.1zm.2 1.2v-.1c-.1.1-.3 0-.3.1H146.8zm-.2.5h-.1.1zm0 2h-.1c.1 0 .1.1.1.1v-.1zm.2 3.6h-.1v-.2c-.1 0-.1.1-.1.1 0 .1 0 .1.1.1h.1zm-.3 2h.1-.1zm.3-10.1c.1 0 .1 0 .1-.1-.1 0-.1.1-.1.1 0 .1-.1 0-.1.1-.1.1.1.1.1-.1v.1-.1zm-.2 2.3v.1-.1h.1v-.1.1h-.1zm0 1.3h.1-.1zm0 .3v.1-.1zm.2 2.3s0 .1.1.1c0-.1-.1-.1-.1-.1h-.1.1zm-.2.4h.1v.1l.1.1v-.1c0-.1 0-.1-.1-.1 0-.1 0-.1 0 0h-.1zm0 .4v.1-.1zm.3-6.4c0 .1.1.1.1.1s.1-.1 0-.1h-.1s0-.1-.1-.1v.1h.1zm0 .2h-.1.1zm-.1 4.4h.1-.1v-.1.1zm0 .9h.1c0-.1-.1-.1-.1-.1v.1zm.1 3.6c0-.1-.1-.1-.1-.1v.1h.1zm.2-9.4h-.1.1zm.2.4s-.1 0 0 0c0-.1.3-.1.1-.3h.1s0-.1-.1-.1v.1c-.1 0-.1.2-.1.3zm.4-.7v.1-.1zm.1.4h-.1.1zm.2-.1v-.1c-.1 0-.1.1-.1.1h.1zm.1-.5c-.1 0-.1 0-.1.1h.1v-.1zm.2.6v-.1s0 .1-.1.1h.1zM153.6 53.3c.6 0 .8.3.8.6 0 .6-.3.8-.6.8-.6.1-.9.1-1.3 0-.3 0-.4.1-.5.3-.3.1-.4.2-.4.5v2c0 .4.4.8.8.8.3 0 .6 0 .8-.1.3 0 .5.3.7.3.1 0 .1.1.1.1.1.3.3.7 0 .9-.1.3-.3.4-.4.4h-1.2c-.3 0-.7.1-.7.4-.1.4-.1.6-.1 1v.8c0 .2 0 .5.1.8.1.4.7.5 1.1.4.4 0 .8 0 1.2.2.3 0 .4.1.4.4.1.2.1.4.1.6 0 .2-.3.5-.5.5-1.1.1-2.1.1-3.1.1-.5 0-.8-.3-.8-.8v-2c.1-.2 0-.5 0-.9v-1.2c.1-.3 0-.6.1-.8.1 0 0 0 0 0-.1-.4-.1-.6-.1-1v-.5c.1-.7 0-1.2 0-1.7v-1.7c.1-.1.1-.4.1-.6 0-.4.3-.5.5-.5h1.5c.5-.1 1-.1 1.4-.1zm-2.9 1.5s-.1 0-.1.1h.1v-.1h-.2c.1.2.1 0 .2 0zm-.2.9v-.1.1zm.1 2.7c-.1 0 0 0 0 0l-.1.1s0 .1.1-.1zm0 2.3-.1.1h.1s.1 0 .3.1v-.1c-.2 0-.2 0-.3-.1zm.2-4.9s.2-.1 0-.3c0 .1 0 .1-.1.1h-.1c-.1 0 0 .1 0 .1v.2-.2l.1.2h.1v-.1zm-.1-1.5c-.1 0-.1 0-.1.1v-.1h.1zm0 2h-.1v.1h.1v-.1h-.1v-.1.1h.1zm0 .5h.1s0-.1-.1-.1v-.1.1c.1 0 .1.1.1.1h-.2.1zm-.1.4s0-.1 0 0h.1-.1zm.1.8h-.1.1zm-.1 1.2h.1s0-.1-.1-.1v.1zm0 .3h.1-.1zm0 .3h.1-.1zm0 .5v.1c.1 0 .1 0 .1-.1h-.1zm0 1.8v.2-.2zm.1-8c.1 0 .1-.1.1-.1s0-.1-.1.1zm0 4.7v.2-.2zm0 3.1v.1-.1zm.1-7.7v.1-.1zm0 .5v.1-.1zm.2 3.2c0-.1.1-.1.1-.1-.1 0-.1 0-.1-.1h-.2c0 .1 0 .1.2.1h.1s-.1 0-.1.1zm-.2.4v-.1.1zm0 .9c0 .1 0 .1.2.1v-.1h-.2zm0 .3s0 .1 0 0v.1-.1zm.2 2.1v-.1c-.2 0-.2.1-.2.1h.2zm0 .4s.1-.1 0-.1l-.2.1v.1c.2 0 .2-.1.2-.1zm0 1.9h-.2.2v-.1h-.2v.1s0 .1.2 0zm0-9.4.1.1v-.1h-.1zm.1.2h-.1.1zm-.1.1v.1-.1zm0 2.7s0 .1.1.1v-.1c0-.1 0-.1-.1-.1v.1zm0 3v-.1.1zm.1-6.8v.1c0 .1 0 .1.1.1-.1 0 0-.1-.1-.1v-.1zm0 4.3v.1-.1zm.1 5.5h-.1c0 .1.1.1.1.1v-.1zm0-3.7h.1c0-.1 0 0 0 0h-.1v-.1.1zm.2.1h-.1.1zm0-.8v.1-.1zm0 .2v.1-.1zm0 4.7.1.1s-.1.1 0 .1v-.1s0-.1-.1-.1zm.4-5.2v.3h-.1c0-.1 0-.1-.1 0h.2s.1-.1 0-.3c-.1 0-.1 0-.1-.1-.1.1-.1.1.1.1zm-.3.5h.1-.1zm0 4.4v-.2V63.8v-.1zm.3-9.6v.1-.2c-.2.1 0 .1 0 .1zm0 .5h.1-.1zm.2 9.3h-.1c0-.1-.1-.1-.1 0 0 .2 0 .2.1.2 0-.1 0-.1.1-.2zm.2-10c-.1 0-.1 0-.3-.1 0 .1 0 .3.1.1h.2zm-.3 4.8.1.1v-.1h-.1zm.4 5.8.1-.1v.1-.1c0-.2 0-.2-.1-.2v.2s0 .1-.1 0h-.2v-.2.2c.2 0 .2.1.3.1l-.1.1s0 .1.1-.1zm0-.4h.1-.1zm.1-10v.1s-.1 0 0 0v-.1zm0-.3v-.1.1zm.2.4-.1.1h.1v-.1zm-.2 5v.1-.1zm.2-5.5v.1h.1s0-.1-.1-.1zm.4.1h.1v-.1h-.1v.1zm0 5.2v.1-.1zm0 4.9v-.1.1zm0 .1h.1-.1zm.5-.1c0-.1 0-.1-.1-.1v.1h-.1.2zM153.4 53.9s.1.1.1 0h-.1zm.1 10.4h.1-.1v-.1.1zM157.7 57c.1.3.3.4.4.6.1.1.3.4.4.6.4.2.5.5.8.9.3.1.4.4.7.5.3.5.4.9.5 1.4.3.7.1 1.3.1 1.9 0 .7-.3 1.2-.7 1.6-.3.2-.7.2-.9.4h-.4c-.1.1-.3.1-.4 0h-.5c-.1-.1-.1-.1-.3-.1h-.2c-.4-.2-.7-.5-.8-.9-.1-.3-.4-.5-.2-.9-.1-.1-.1-.2-.1-.4 0-.1-.1-.4 0-.5.1 0 .1 0 .1-.1 0-.3.2-.3.4-.4.3 0 .5 0 .7.1.1.1.1.3.1.3 0 .4.3.8.3 1.2v.1c.3.1.5.4.8.3h.3l.4-.4c.1-.1.3-.3.3-.7-.1-.7-.3-1.3-.7-1.9-.3-.4-.6-.5-.8-.9-.3 0-.4-.3-.4-.4-.2-.1-.2-.3-.4-.6-.4-.3-.5-.7-.8-1.1-.1-.2-.1-.6-.1-.9 0-.3 0-.5-.1-.9v-.1c.1-.3.1-.7.3-.9 0-.4.3-.7.5-1 .4-.4.9-.5 1.5-.5h.4c0 .1 0 .1.1.1.4-.1.8 0 1.1.3.4.4.6.8.6 1.3.1.1.1.4.1.6v.4c0 .1-.1.3-.3.4-.3.1-.5 0-.8 0-.1 0-.1-.1-.1-.1-.1-.3-.3-.4-.1-.6v-.1c-.1-.1-.3-.4-.5-.5 0-.1-.1-.1-.1-.1-.3 0-.4 0-.4-.3 0 0-.1 0 0 .1 0 .1 0 .1-.1.3-.5.3-.7.7-.5 1.1v.1c0 .1-.1.1-.1.1-.4 0-.2.3-.1.6zm-1.1-1.6c0-.1.1-.1.3-.3.1 0 .1.1.1 0l-.1-.1c-.1.1-.1 0-.1 0-.1 0-.1-.1-.1 0h.1v.1c-.2.1-.2.1-.2.3h-.1c0 .1.1.1.1.1v-.1zm-.1.5h.1-.1zm.1 7.3h-.1.1zm0-7.4v-.1.1zm0 6.2v.1-.1zm.2-4.4h.1-.1zm0 5.5v.1c.1 0 .1.1.3 0 0-.1 0 0 0 0-.1 0-.1-.1-.1-.1h-.2zm.2-8.8v-.1h-.1c.1 0 .1.1.1.1zm-.1 1.3v.1-.1zm0 .8v-.1.1zm0 6.3v-.1.1zm.3-5.5h-.1.1zm-.2.6c.1.1.1 0 .1 0h-.1zm0 6.2h.1-.1zm.2-9.8h.1-.1v.1-.1zm.1 4.1v-.1.1h-.1.1zm0-3.9v.1-.1zm0 .4h.1v-.1h-.1v.1zm0 2.4v-.1.1zm0 .7v-.1.1zm0 5.9v-.1.1zm.3-6.3h-.1c-.1 0 .1.1.1 0zm-.2.7v-.1.2c.2 0 .2 0 0-.1zm.2 6.1v.1-.1zm.1-10.1h.1s0 .1 0 0V54c-.1 0-.1.1-.1.1v.2-.1zm0 3.7c0 .1.1.1.1 0h-.1zm.1.8c-.1 0-.1.1-.1.1h.1v-.1zm.4-5.1h-.1.1v.1h-.2c.1.1.1 0 .1 0h.1v-.1zm-.2.4h.1-.1zm.2 4.6c0-.1-.1-.1-.1-.1h-.1c0 .1.1.1.1.1h.2c.1-.2-.1 0-.1 0zM158.1 58.8c-.1 0-.1.1 0 .1v-.1zm.4.8v-.1h.1-.1v-.1s.1-.1 0-.3V59h.1-.1v.1l-.1.1v-.1.2h.1c0 .1 0 .1-.1.3.1 0 0 0 0 0h.2-.1zm-.1 4.6s.1 0 0 0h.1-.1zm.1-10.4v.1l.1-.1h-.1zm.1.4s-.1 0 0 0l-.1-.1s0-.1.1.1zm.2-.3.1-.1h-.1v.1h-.1s.1.1 0 .1h.1-.1v-.1h.1zm0 5.2h-.1.1zm-.2 5.3h.1s-.1 0 0 0c.1-.1 0 0 0 0h-.1zm.3-.5h-.1v.1h.1v-.1zm0-4.5v.1-.1zm.1.5.1.1c.1-.1-.1-.1-.1-.1l.1-.1c.1.1-.1.1-.1.1zm.2-5.5v.1-.1s-.2 0 0 0zm0-.4v.1-.1l.1.1c0-.1-.1-.1-.1-.1zm0 6.6v.1-.1zm.1-.7h.1-.1zm.1.5h-.1.1zm0 .7c.1-.1 0-.1 0-.1v.1zm.2-.9v.1c-.1 0 0 0 0 0h.1v-.1h-.1zm0-6c0-.1.1-.1 0-.1v.1zm0 .9V55v.1zM159.7 54.2v.1-.1zm0 .8v.1-.1zm.2.8h-.1c-.1 0 .1.1.1 0zm0 5.4h-.1v.1c.1.1.1.1.1-.1zm0-5.8v.1-.1zm.1 6.6c0-.1 0-.1-.1-.1v.1h.1zm0-6.8v-.1.1zm0 6.3h.1c-.1 0-.1-.1-.1 0zm0 2v-.1.1zm.1-8.1s.1 0 .1.1v-.1h-.1zm0 6.8s0 .1.1.1v-.1h-.1z" class="st1"/><path d="m83.9 50-.4.8c.1-.2.1-.3.3-.5 0-.1.1-.2.1-.3.1 0 .1 0 .1-.1.1-.2-.3.6-.1.3.1-.2.3-.4.3-.6.2-.4-.4.7-.2.3 0-.5-.3.5-.1.1 0-.1.1-.3.2-.4 0-.4.2-.4.5-.4h.3c.2-.1.3 0 .3.1 0 0 .1 0 .2.2s.1.3 0 .5c-.2.2-.3.5-.3.7-.1.2-.3.5-.5.5 0 .1.6-1.3.7-1.2 0 .1-.1.3-.1.4-.1.2-.1.4-.4.5v.1c0 .2.6-1 .6-.9-.2.3.2-.5.1-.3s-.1.3-.3.5c-.1.3-.2.5-.3.9-.1.2.5-1 .3-.8 0 .1-.1.3-.2.5s.5-1 .4-.7c-.4.1-.4.2-.4.4-.1.2-.2.5-.4.8-.2.2-.2.3-.5.3-.2-.1-.5 0-.6-.3-.1-.2 0-.3 0-.4 0-.4.2-.6.4-1l-.4.8.4-.8zm.1.5v.1h.1c0-.1 0-.1-.1-.1zm.4-.5c-.1 0-.1.1-.1.1h.1V50zm.3.1c0-.2 0-.2-.1-.2 0-.1-.6 1.2-.8 1.1.1.3.8-1.1.5-1.1.1.2.1 0 .3 0 0 .2 0 .3.1.2zm-.5.3h.1-.1zm-.2.7h-.1V51v.1h.1zm.5-1.3v.1-.1zm-.3.6h.1-.1zm-.2.3c.1-.1.1 0 0 0 0 .1 0 0 0 0zm.4-.2c-.1 0-.1 0-.1.1h-.1c.1-.1.2 0 .2-.1zm-.4.3v.1c.1 0 .1.2.1.2V51c0-.1 0-.1-.1-.2.1 0 .2.1.2-.1h-.1c.1 0 .1 0 .2-.1-.1 0-.1 0-.2.1l-.1.1zm.3-.5c.2-.1 0-.1 0-.1v.1zm-.1.3c0-.1 0 0-.1 0 0 .1.1 0 .1 0zm-.2.5h-.1.1zm.5-.8h-.1.1zm-.3.4c.1.1.1 0 .1 0h-.1zm.2-.5v.2l.1-.1-.1-.1zm-.3.7V51.2v-.1s.1 0 .1.2v-.1c.1-.2.1-.2-.1-.3l-.1.1.1-.1zm.4-.9v.1-.1h.1-.1zm-.1.2h.1v-.1c-.1-.1 0-.1 0-.1s.1-.1 0 0c-.1 0-.1 0 0 .1l-.1.1zM84 51c.1.1.1.1.2.1-.1-.1-.1-.1-.2-.1zm.4-.8s0 .1.1.1v-.1c0 .1 0 .1-.1 0zm.3-.3v.1h.1c-.2 0-.2 0-.1-.1zm-.2.4h.1-.1zm.2-.4v.1-.1c.1 0-.7 1.4-.6 1.3l.6-1.3zm-.3.8c0-.1 0-.1-.1-.2.1.1 0 .2.1.2zm.4-.8v.1-.1h-.1.1zm-.3.7c-.1 0-.1 0 0 0 0-.1 0-.1 0 0zm.2-.2h-.1.1zm-.1-.1v.1-.1zm-.2.5c.1 0 .1-.1.1-.1s-.1 0-.1.1z" class="st0"/><path d="M9.1 36V13.6c.3-.4 0-1.2 0-1.9 0-.4 0-1.2.3-1.6.9-.4 1.2-.8 1.6-.8h4.3c2 0 3.6.3 5.2 1.5 1.1.8 1.9 1.6 2.3 3.1.4.8.4 2 .8 3.2v1.5c-.4.4-.4.4-.4.8.4.4.4.8 0 1.2v1.1c-.4 1.2-.8 2.8-1.2 4.4h-.4c-.8.3-.8 1.1-1.1 1.9-.4 0-.4.4 0 .8.3 2 .8 4 1.5 5.9 0 1.2.4 2.4.8 3.9l1.2 3.6c.4.8-.3 1.6-1.2 1.9-1.2 0-2.8-.3-3.1-1.9-.4-.4-.4-1.2-.4-1.5 0-.4 0-.8-.4-.8s-.4-.4-.4-.8c0-.8-.3-1.6-.3-2-.4-1.2-.4-2-.8-2.8-.4-.4-.4-.8-.4-1.2 0-1.2-.4-2.4-1.2-3.1 0-.4-.4-.8-1.2-.8-.8 0-.8.3-1.2 1.2 0 .8-.4 1.2 0 1.9 0 .8-.4 1.2-.4 1.5 0 1.6.4 2.8.4 4.4v1.2c-.4.4-.4 1.2 0 2v.8c-.4 1.6-1.2 2.4-3.1 1.6-.4 0-1.2-.8-1.2-1.6V36zm1.2-16.1v-.4.4zm0 3.5h.3-.3zm0 7.9h.3-.3zm.7 7.9c0-.4-.4 0-.4 0v-.8h-.3.3v.8h.4v.4-.4zm-.4 2.3c0-.4 0-.4-.3-.4v.4h.7-.4zm0-29.6h.4-.4c-.3 0-.3.4 0 .4v-.4zm.4 7.2c0-.4 0-.4-.4-.4v.4c-.3 0 0 0 0 0h.4zm0-5.6h-.4c0-.4.4-.4 0-.4v-.4.8s0 .4.4.4 0-.4 0-.4h.4-.4zm-.4 1.2h.4v-.4c0 .4-.4.4-.4.4zm0 .4v.4-.4zm0 4.8h.4v.4h.4-.4v-.4h-.4zm.8 1.6V21h-.8.4c0 .5.4.5.4.5zm-.8 2.7v-.3.3zm.4 6.3h-.4c.4 0 .8 0 .8.3h.3v-.3c-.3-.4-.7-.9-1.2-1.2.1.4.1.8.5 1.2zm0 1.5c0 .4 0 .4.4.4V32h-.8.4zm-.4 2.4v.4h.4c0-.4 0 0-.4 0 0-.4.4-.4 0-.4zm0 1.2c.4 0 0 0 0 0h.4-.4zm.4-20.1s.4.4.4 0c.3-.4.8-.4.8-.8-.4 0-1.2.4-1.2.8zm0 5.1h.4-.4zm0 3.6s.4 0 .4-.3c.3 0 0-.4 0-.4-.4 0-.4.4-.4.4v.3zm.4 5.1H11h.4zM11 34l.4-.3H11v.3zm.4 3.2c-.4 0-.4.4-.4.4h.4v-.4zm-.4.8c.4.4.4.4.7.4l-.3.3h.3l-.3-.3V38h.3-.7zm.4 2.3H11h.4zm0-29.5h.3-.3zm0 7.1c.3 0 .3.4.3 0h-.3zm0 4.3h.3l-.3-.4v.4zm.4.4h-.3.3zm0 3.6v-.4s0 .4-.3.4h.3zm0 1.1v.4c0-.4.4-.4.4-.4s0 .4.4.4h-.4.4V27c0-.4-.4-.4-.4-.4s0 .4.4.4v.3h-.8V27l-.3-.4c0 .4 0 .4.3.4 0 0-.3 0-.3.3h.3zm-.4 1.2h.3v-.4s0 .4 0 0v.4h-.3zM13 11.2v-.4l.4.4c.3-.4 0-.4 0-.4 0-.4-.4-.4-.4-.4V11.6h-.3c-.4-.4-.4-.4-.9 0h1.1c.1 0 .1 0 .1-.4zm-.8 28.4c0-.4 0-.4-.4-.4 0 .4 0 0 .4 0v.4zm0-25.7h.4v.4s-.4 0-.4-.4zm0 5.2v.3-.3zm.8-5.9c-.3 0-.3 0-.3.4 0 0-.4 0 0 0-.1-.4-.1-.4.3-.4zm-.4 11.4v.4-.4zm.8.8H13h.4zm5.5-9.1c-.4-2.4-2.8-2.8-4.3-2h-.4c-.4.8-1.2 1.2-.8 2v1.2c0 .4-.4.9 0 .9.3 1.5 0 2.7 0 3.9v1.2c.3.8.8.8 1.2 1.2.8.4 2 .4 3.1-.4.8-.3 1.2-1.2 1.6-1.9v-3.1c0-1-.4-2.2-.4-3zm-4.7 10.2h-.4c0 .4 0 .4.4.4v-.4zm.4-15.3s0-.4 0 0c0 0 0 .4.4.4l-.4-.4zm0 1.2V12v.4zm0 14.9V27v.3zm.3-16.5v-.4.4zm.9 17.3c.3 0 .3.4.8.8h.4c.4.4.4.4.8-.4l.4.4v-.8h.3-.3v.4h-.8c0-.4.4-.4 0-.4H17c0 .4 0 0 .4 0 0 .4.4.4.4.4v.4H16.6c-.1-.4-.5-.8-.8-.8v-.4.4zm.7-16.2h-.4c0 .4.4.4.4.4v-.4zm0 14.6c.4 0 .4-.3.4-.3s0 .3-.4.3zm.4-14.6v-.3c-.4 0-.4.3 0 .3h.4-.4zM18.1 27c-.4 0-.4.3-.4.3h.4s0 .4 0 0V27h.3c0-.4-.3-.4-.3-.4v.4zm.8-1.6v1.1c.4.4.4 0 .4 0 0-.3 0-.3-.4-.8v-.3h-.4v.4h-.3.3v-.4h.4zm-.8 4.7v.4h.3-.3v-.4zm0 2.4v.4l.3-.4h-.3zm0 1.2h.3-.3zm.4-2h.4c0-.4-.4-.4-.4-.4v.4zm.4-18.5s-.4 0 0 .4h.4c0-.4-.4-.4-.4-.4zm0 20c0 .4 0 .4.4.4-.4.1-.4.1-.4-.4zm.4 2 .4-.4.4.4v-.4l-.4-.4h-.4l-.4-.4v.4s0 .8.4.8c0 .4 0 .4.4 0h-.4zm0-22.5h.4v.4l.4-.4h-.8zm0 20.5v-.3.3zm.4 4c-.4 0 0 0 0 .4 0-.4.4-.4 0-.8v.4zm.8-23.3v-.4c-.4 0-.4.4-.4.4h-.4.8zm-.8 22.5V36v.4zm0 2h.4s0-.4-.4 0zm.4-14.2h.4-.4zm0 11.8v.3h.4c-.4.1 0-.3-.4-.3zm.4-21.3h.3-.3zm0 3.2h.3-.3zm.3 4.7s-.3 0 0 0v.4-.4h-.3.3zm-.3 14.6s.3 0 .3-.4c-.3 0-.3 0-.3.4zm.3 2h-.3.3zm0 1.6c0 .3 0 .3.4.3h-.4.4c-.4 0-.4-.3-.4-.3h.4-.7.3zm0-20.9v.4-.4zm1.2-3.6c-.4 0-.8 0-.8.4h.8v-.4zm-.4 2.8h-.3c0 .3.3.3.3 0v.3-.3zM21.3 38v-.4.4zm0 .7v.8c.3 0 .3 0 .3-.4h-.3v-.4zm.3-17.7h.4-.4zm.4-1.6v.4-.4zm0 22.1v-.4.4zM28.2 36V13.6c.3-.4 0-1.2 0-1.9 0-.4 0-1.2.3-1.6.9-.4 1.2-.8 1.6-.8h4.3c2 0 3.6.3 5.2 1.5 1.1.8 1.9 1.6 2.3 3.1.4.8.4 2 .8 3.2v1.5c-.4.4-.4.4-.4.8.4.4.4.8 0 1.2v1.1c-.4 1.2-.8 2.8-1.2 4.4h-.4c-.8.3-.8 1.1-1.1 1.9-.4 0-.4.4 0 .8.3 2 .8 4 1.5 5.9 0 1.2.4 2.4.8 3.9l1.2 3.6c.4.8-.3 1.6-1.2 1.9-1.2 0-2.8-.3-3.1-1.9-.4-.4-.4-1.2-.4-1.5 0-.4 0-.8-.4-.8s-.4-.4-.4-.8c0-.8-.3-1.6-.3-2-.4-1.2-.4-2-.8-2.8-.4-.4-.4-.8-.4-1.2 0-1.2-.4-2.4-1.2-3.1 0-.4-.4-.8-1.2-.8-.8 0-.8.3-1.2 1.2 0 .8-.4 1.2 0 1.9 0 .8-.4 1.2-.4 1.5 0 1.6.4 2.8.4 4.4v1.2c-.4.4-.4 1.2 0 2v.8c-.4 1.6-1.2 2.4-3.1 1.6-.4 0-1.2-.8-1.2-1.6V36zm1.2-16.1v-.4.4zm0 3.5h.3-.3zm0 7.9h.3-.3zm.8 7.9c0-.4-.4 0-.4 0v-.8h-.3.3v.8h.4v.4-.4zm-.4 2.3c0-.4 0-.4-.3-.4v.4h.7-.4zm0-29.6h.4-.4c-.3 0-.3.4 0 .4v-.4zm.4 7.2c0-.4 0-.4-.4-.4v.4c-.3 0 0 0 0 0h.4zm0-5.6h-.4c0-.4.4-.4 0-.4v-.4.8s0 .4.4.4 0-.4 0-.4h.4-.4zm-.4 1.2h.4v-.4c0 .4-.4.4-.4.4zm0 .4v.4-.4zm0 4.8h.4v.4h.4-.4v-.4h-.4zm.8 1.6V21h-.8.4c0 .5.4.5.4.5zm-.8 2.7v-.3.3zm.4 6.3h-.4c.4 0 .8 0 .8.3h.3v-.3c-.3-.4-.7-.9-1.2-1.2.1.4.1.8.5 1.2zm0 1.5c0 .4 0 .4.4.4V32h-.8.4zm-.4 2.4v.4h.4c0-.4 0 0-.4 0 0-.4.4-.4 0-.4zm0 1.2c.4 0 0 0 0 0h.4-.4zm.4-20.1s.4.4.4 0c.3-.4.8-.4.8-.8-.5 0-1.2.4-1.2.8zm0 5.1h.4-.4zm0 3.6s.4 0 .4-.3c.3 0 0-.4 0-.4-.4 0-.4.4-.4.4v.3zm.4 5.1h-.4.4zm-.4 4.7.4-.3h-.4v.3zm.4 3.2c-.4 0-.4.4-.4.4h.4v-.4zm-.4.8c.4.4.4.4.7.4l-.3.3h.3l-.3-.3V38h.3-.7zm.4 2.3h-.4.4zm0-29.5h.3-.3zm0 7.1c.3 0 .3.4.3 0h-.3zm0 4.3h.3l-.3-.4v.4zm.3.4h-.3.3zm0 3.6v-.4s0 .4-.3.4h.3zm0 1.1v.4c0-.4.4-.4.4-.4s0 .4.4.4h-.4.4V27c0-.4-.4-.4-.4-.4s0 .4.4.4v.3h-.8V27l-.3-.4c0 .4 0 .4.3.4 0 0-.3 0-.3.3h.3zm-.3 1.2h.3v-.4s0 .4 0 0v.4h-.3zm1.5-17.3v-.4l.4.4c.3-.4 0-.4 0-.4 0-.4-.4-.4-.4-.4V11.6h-.3c-.4-.4-.4-.4-.9 0H32c.1 0 .1 0 .1-.4zm-.7 28.4c0-.4 0-.4-.4-.4 0 .4 0 0 .4 0v.4zm0-25.7h.4v.4s-.4 0-.4-.4zm0 5.2v.3-.3zm.7-5.9c-.3 0-.3 0-.3.4 0 0-.4 0 0 0 0-.4 0-.4.3-.4zm-.3 11.4v.4-.4zm.8.8h-.4.4zm5.5-9.1c-.4-2.4-2.8-2.8-4.3-2h-.4c-.4.8-1.2 1.2-.8 2v1.2c0 .4-.4.9 0 .9.3 1.5 0 2.7 0 3.9v1.2c.3.8.8.8 1.2 1.2.8.4 2 .4 3.1-.4.8-.3 1.2-1.2 1.6-1.9v-3.1c0-1-.4-2.2-.4-3zm-4.8 10.2h-.4c0 .4 0 .4.4.4v-.4zm.4-15.3s0-.4 0 0c0 0 0 .4.4.4l-.4-.4zm0 1.2V12v.4zm0 14.9V27v.3zm.4-16.5v-.4.4zm.8 17.3c.3 0 .3.4.8.8h.4c.4.4.4.4.8-.4l.4.4v-.8h.3-.3v.4h-.8c0-.4.4-.4 0-.4h-.4c0 .4 0 0 .4 0 0 .4.4.4.4.4v.4H35.7c0-.4-.4-.8-.8-.8v-.4.4zm.8-16.2h-.4c0 .4.4.4.4.4v-.4zm0 14.6c.4 0 .4-.3.4-.3s0 .3-.4.3zm.4-14.6v-.3c-.4 0-.4.3 0 .3h.4-.4zM37.3 27c-.4 0-.4.3-.4.3h.4s0 .4 0 0V27h.3c0-.4-.3-.4-.3-.4v.4zm.8-1.6v1.1c.4.4.4 0 .4 0 0-.3 0-.3-.4-.8v-.3h-.4v.4h-.3.3v-.4h.4zm-.8 4.7v.4h.3-.3v-.4zm0 2.4v.4l.3-.4h-.3zm0 1.2h.3-.3zm.3-2h.4c0-.4-.4-.4-.4-.4v.4zm.5-18.5s-.4 0 0 .4h.4c0-.4-.4-.4-.4-.4zm0 20c0 .4 0 .4.4.4-.4.1-.4.1-.4-.4zm.4 2 .4-.4.4.4v-.4l-.4-.4h-.4l-.4-.4v.4s0 .8.4.8c0 .4 0 .4.4 0h-.4zm0-22.5h.4v.4l.4-.4h-.8zm0 20.5v-.3.3zm.3 4c-.4 0 0 0 0 .4 0-.4.4-.4 0-.8v.4zm.9-23.3v-.4c-.4 0-.4.4-.4.4h-.4.8zm-.9 22.5V36v.4zm0 2h.4s0-.4-.4 0zm.4-14.2h.4-.4zm0 11.8v.3h.4c-.4.1.1-.3-.4-.3zm.5-21.3h.3-.3zm0 3.2h.3-.3zm.3 4.7s-.3 0 0 0v.4-.4h-.3.3zm-.3 14.6s.3 0 .3-.4c-.3 0-.3 0-.3.4zm.3 2h-.3.3zm0 1.6c0 .3 0 .3.4.3H40h.4c-.4 0-.4-.3-.4-.3h.4-.7.3zm0-20.9v.4-.4zm1.2-3.6c-.4 0-.8 0-.8.4h.8v-.4zm-.4 2.8h-.3c-.1.3.3.3.3 0v.3-.3zM40.4 38v-.4.4zm0 .7v.8c.3 0 .3 0 .3-.4h-.3v-.4zm.4-17.7h.4-.4zm.4-1.6v.4-.4zm0 22.1v-.4.4zM58.1 9.2c1.6 0 2.4.8 2.4 1.9 0 1.7-.8 2.4-1.9 2.4-1.7.4-2.8.4-4 0-.8 0-1.2.4-1.6.8-.8.4-1.2.7-1.2 1.5v5.9c0 1.2 1.2 2.4 2.3 2.4.8 0 1.6 0 2.4-.4.8 0 1.5.8 2.1.8.3 0 .3.4.3.4.4.8.8 2 0 2.7-.3.8-.9 1.2-1.2 1.2h-3.6c-.8 0-2 .4-2 1.2-.3 1.2-.3 1.9-.3 3.1v2.4c0 .8 0 1.6.3 2.4.4 1.1 2 1.6 3.2 1.1 1.2 0 2.4 0 3.6.5.8 0 1.2.3 1.2 1.1.3.5.3 1.2.3 1.7 0 .7-.8 1.5-1.5 1.5-3.1.4-6.4.4-9.1.4-1.6 0-2.3-.8-2.3-2.4v-5.9c.4-.7 0-1.5 0-2.8v-3.5c.4-.8 0-1.6.4-2.4.3 0 0 0 0 0-.4-1.1-.4-1.8-.4-3.1v-1.6c.4-2 0-3.6 0-5.2v-5.1c.4-.4.4-1.3.4-1.6 0-1.2.8-1.5 1.5-1.5h4.3c1.7.1 3.2.1 4.4.1zM49.4 14s-.4 0-.4.4h.4V14h-.7c.3.4.3 0 .7 0zm-.7 2.4V16v.4zm.3 8.2c-.3 0 0 0 0 0l-.3.4.3-.4zm0 6.8-.3.3h.3s.4 0 .8.4v-.4c-.4 0-.4 0-.8-.3zm.8-14.7s.5-.3 0-.8c0 .4 0 .4-.4.4H49c-.3 0 0 .3 0 .3v.5-.5l.4.5h.4v-.4zm-.4-4.3c-.4 0-.4 0-.4.4v-.4h.4zm0 5.9H49v.4h.4v-.4H49v-.4.4h.4zm0 1.6h.4s0-.4-.4-.4v-.4.4c.4 0 .4.4.4.4H49h.4zm-.4 1.2s0-.4 0 0h.4-.4zm.4 2.3H49h.4zM49 27h.4s0-.4-.4-.4v.4zm0 .7h.4-.4zm0 .9h.4-.4zm0 1.5v.4c.4 0 .4 0 .4-.4H49zm0 5.6v.8-.8zm.4-24.1c.4 0 .4-.4.4-.4l-.4.4zm0 14.2v.4-.4zm0 9.1v.4-.4zm.4-22.9v.4-.4zm0 1.6v.4-.4zm.5 9.5c0-.4.3-.4.3-.4-.3 0-.3 0-.3-.4h-.5c0 .4 0 .4.5.4h.3s-.3 0-.3.4zm-.5 1.2v-.4.4zm0 2.7c0 .3 0 .3.5.3V27h-.5zm0 .7s0 .4 0 0v.4-.4zm.5 6.4v-.4c-.5 0-.5.4-.5.4h.5zm0 1.2s.3-.4 0-.4l-.5.4v.3c.5.1.5-.3.5-.3zm0 5.4h-.5.5v-.3h-.5v.3s0 .5.5 0zm0-27.8.3.3v-.3h-.3zm.3.7h-.3.3zm-.3.4v.4-.4zm0 7.9s0 .4.3.4v-.4c0-.4 0-.4-.3-.4v.4zm0 9v-.3.3zm.3-20.5v.3c0 .4 0 .4.4.4-.4 0 0-.4-.4-.4v-.3zm0 13v.4-.4zm.4 16.3h-.4c0 .3.4.3.4.3v-.3zm0-11.1h.4c0-.4 0 0 0 0H51v-.4.4zm.4.3H51h.4zm0-2.3v.4-.4zm0 .7v.4-.4zm0 13.9.4.3s-.4.4 0 .4v-.4s0-.3-.4-.3zm1.2-15.4v.8h-.4c0-.4 0-.4-.3 0h.7s.4-.4 0-.8c-.4 0-.4 0-.4-.3 0 .3 0 .3.4.3zm-.8 1.5h.3-.3zm0 13.1v-.7 1-.3zm.8-28.8v.4-.8c-.4.4 0 .4 0 .4zm0 1.6h.4-.4zm.8 27.5H53c0-.3-.4-.3-.4 0 0 .5 0 .5.4.5l.4-.5zm.4-29.5c-.4 0-.4 0-.8-.4 0 .4 0 .8.4.4h.4zM53 25.5l.4.3v-.3H53zm1.1 17.3.4-.4v.4-.4c0-.5 0-.5-.4-.5v.5s0 .4-.4 0h-.4v-.5.5c.5 0 .5.4.8.4l-.4.3s.1 0 .4-.3zm0-1.3h.4-.4zm.5-29.9v.4s-.4 0 0 0v-.4zm0-.8v-.3.3zM55 12l-.4.4h.4V12zm-.4 15v.3-.3zm.4-16.6v.3h.4c0 .1 0-.3-.4-.3zm1.2.4h.3v-.3h-.3v.3zm0 15.4v.4-.4zm0 14.5v-.3.3zm0 .5h.3-.3zm1.5-.5c0-.3 0-.3-.4-.3v.3h-.4.8zm-.4-29.5s.4.4.4 0h-.4zm.4 30.7h.3-.3v-.4.4zM79.6 14.9c0 .8-.4 2-.4 2.8-.4.8-.4 1.5-.4 2.4 0 .8-.5 1.5-.5 2.4-.4 2-.8 3.6-.8 5.2v.4c-.8 1.9-.8 4-1.2 5.9-.4 1.3-.4 2.8-.7 4.4 0 .8-.4 1.2-.4 2-.4.7-.4 1.1-.4 2 0 .4-.5 1.2-.9 1.6-1.2.8-3.1.4-3.6-1.2-.4-.9-.8-2-.4-2.8 0-.4 0-.4-.4-.4v-1.2c-.4-.8-.4-1.6-.4-2 0-1.2-.7-2.4-.4-3.1-.3-.8 0-1.6-.3-2.4-.4-.8-.4-1.2-.4-2 0-1.6-.4-2.8-.8-4l-.4-.4c.4-1.2-.5-2.4-.5-3.6 0-.4 0-.8-.4-1.2v-.4c.4-.8 0-1.2 0-1.9-.4-1.2-.8-2-.8-3.2 0-1.2-.4-1.9-.4-3.1 0-1.2.8-2 2-1.6h.8c.8 0 1.2.4 1.5 1.2.4 1.2.4 2.4.8 4 0 1.6 0 3.2.4 5.2.5 2.4 1.3 4.8 1.3 7.1v1.3c0 1.2.4 1.9.4 3.2v.4c.4.4.4.8.4.8.4 0 .4-.4.4-.8 0-1.6.4-3.2.8-4.8 0-1.2.4-2.3.4-3.5 0-1.6.4-3.2.9-4.8.4-1.6.4-3.2.4-4.8.4-.8.4-2 .7-2.8 0-1.2.8-1.6 1.5-1.6.8-.4 1.3 0 2.1 0 .8.4.8 1.2.8 2-.3 1-.3 2.1-.7 3.3zM66.4 11c.5.4.5.4.9 0h-.9zm.5.7h.4c-.4 0-.4 0-.4-.3v.3zm.8 1.6v-.4h-.4.4v.4zm0 1.2c0 .4 0 .4.4.4l-.4-.4zm.4 1.6v-.4c-.4 0-.4 0-.4.4s.4.8.4 1.2v-1.2zm0 4h-.4c0 .4.4.4.4.4v-.4zm0-.4v-.4.4zm.4-4.8v.4-.8.4zm0 4h.3-.3zm.3 2.7-.3-.4s0 .1.3.4zm-.3 3.7h.3c0-.4-.3-.4-.3 0zm.7-5.6s0-.4-.4-.4v.4h.4v.4-.4zm-.4 4.4v.4-.4zm.8.8-.4-.4v.8c.4 0 .8.4.8.8h-.4l.8-.8H69.2v-.4h.8-.4zm0-.8h.4-.4zm0 2.3v.4-.4zm.4 1.3-.4.4v.4c.4 0 .4-.4.4-.4v-.4zm.9 1.5h-.5v-.4.4h.5zm0 3.3s.4 0 .4-.4h-.4v.4zm.3.7s0 .4.4.4v-.4h-.4zm0 2.4v.4-.4zm0 3.2h.4-.4zm0 .4h.4-.4zm0 2.3h.4-.4zm.8-3.1h-.4.4zm0 3.5v-.4.4c-.4.5 0 .5 0 .5v-.5zm0-5.5V36v.4zm.4.8c-.4.4 0 .4 0 .4v-.4zm0-.4c.4 0 .4 0 .4-.4h-.4v.4zm0 2.8.4-.4h.4c0-.4-.4 0-.4 0h-.4v.4zm.4-6h.4-.4zm.4 3.6h-.4l.4.4h.8c-.4-.4-.4 0-.8 0v-.4zm.4 2.8c-.4-.4-.8-.4-.8 0h.8zm-.4-4.8v.4-.4zm.4 6.3h-.4.4zm.8-10.2H74h.4zM74 38h.4-.4zm.4.8H74h.4zm.5-8.4h-.5c-.4.4 0 .4 0 .4s.5 0 .5-.4c.4 0 .4 0 .4.4-.1-.4-.1-.4-.4-.4zm-.5 3.6v-.3.3zm.5-8.3v.4-.4zm.7.7h-.4s-.4 0-.4.4h.4s.4 0 .4-.4zm-.4 2.1v.4-.4zm.4.7-.4.4s.4 0 .4-.4zm.8-11.5c.4-.4.4-.4 0-.8-.4.5 0 .5 0 .8H76c0-.4 0 0 0 0s.4 0 .4.4v-.4zm-.4 6v.4h.4l-.4-.4zm1.1-4.8h-.8s-.4 0 0 .3v-.3h.4v.3c0 .1.4.1.4-.3h.4-.4zm-.7-2.8h.4-.4zm1.1-.3c0-.4-.4-.4-.4-.4 0 .4.4.4.4.4h.4-.4zm-.4.7h.4-.4zm0 .9h.4-.4zm.4-5.7V11v.4c-.4.3-.4.3 0 .3v.5-.5zm0 .9v.4h.4c0-.4-.4-.4-.4-.4zm.4 1.1h-.4.4zm0 .8h-.4v.4h.4v-.4zm.4-1.9c-.4 0 0 .4 0 .4v-.4zm0-1.2v.3l.5-.3h-.5zM102.5 36V13.6c.3-.4 0-1.2 0-1.9 0-.4 0-1.2.3-1.6.9-.4 1.2-.8 1.6-.8h4.3c2 0 3.6.3 5.2 1.5 1.1.8 1.9 1.6 2.3 3.1.4.8.4 2 .8 3.2v1.5c-.4.4-.4.4-.4.8.4.4.4.8 0 1.2v1.1c-.4 1.2-.8 2.8-1.2 4.4h-.4c-.8.3-.8 1.1-1.1 1.9-.4 0-.4.4 0 .8.3 2 .8 4 1.5 5.9 0 1.2.4 2.4.8 3.9l1.2 3.6c.4.8-.3 1.6-1.2 1.9-1.2 0-2.8-.3-3.1-1.9-.4-.4-.4-1.2-.4-1.5 0-.4 0-.8-.4-.8s-.4-.4-.4-.8c0-.8-.3-1.6-.3-2-.4-1.2-.4-2-.8-2.8-.4-.4-.4-.8-.4-1.2 0-1.2-.4-2.4-1.2-3.1 0-.4-.4-.8-1.2-.8-.8 0-.8.3-1.2 1.2 0 .8-.4 1.2 0 1.9 0 .8-.4 1.2-.4 1.5 0 1.6.4 2.8.4 4.4v1.2c-.4.4-.4 1.2 0 2v.8c-.4 1.6-1.2 2.4-3.1 1.6-.4 0-1.2-.8-1.2-1.6V36zm1.2-16.1v-.4.4zm0 3.5h.3-.3zm0 7.9h.3-.3zm.8 7.9c0-.4-.4 0-.4 0v-.8h-.3.3v.8h.4v.4-.4zm-.5 2.3c0-.4 0-.4-.3-.4v.4h.7-.4zm0-29.6h.4-.4c-.3 0-.3.4 0 .4v-.4zm.5 7.2c0-.4 0-.4-.4-.4v.4c-.3 0 0 0 0 0h.4zm0-5.6h-.4c0-.4.4-.4 0-.4v-.4.8s0 .4.4.4c.3 0 0-.4 0-.4h.4-.4zm-.5 1.2h.4v-.4c.1.4-.4.4-.4.4zm0 .4v.4-.4zm0 4.8h.4v.4h.4-.4v-.4h-.4zm.8 1.6V21h-.8.4c.1.5.4.5.4.5zm-.8 2.7v-.3.3zm.5 6.3h-.4c.4 0 .8 0 .8.3h.3v-.3c-.3-.4-.7-.9-1.2-1.2 0 .4 0 .8.5 1.2zm0 1.5c0 .4 0 .4.4.4V32h-.8.4zm-.5 2.4v.4h.4c0-.4 0 0-.4 0 0-.4.5-.4 0-.4zm0 1.2c.5 0 0 0 0 0h.4-.4zm.5-20.1s.4.4.4 0c.3-.4.8-.4.8-.8-.5 0-1.2.4-1.2.8zm0 5.1h.4-.4zm0 3.6s.4 0 .4-.3c.3 0 0-.4 0-.4-.4 0-.4.4-.4.4v.3zm.3 5.1h-.4.4zm-.3 4.7.4-.3h-.4v.3zm.3 3.2c-.4 0-.4.4-.4.4h.4v-.4zm-.3.8c.4.4.4.4.7.4l-.3.3h.3l-.3-.3V38h.3-.7zm.3 2.3h-.4.4zm0-29.5h.3-.3zm0 7.1c.3 0 .3.4.3 0h-.3zm0 4.3h.3l-.3-.4v.4zm.4.4h-.3.3zm0 3.6v-.4s0 .4-.3.4h.3zm0 1.1v.4c0-.4.4-.4.4-.4s0 .4.4.4h-.4.4V27c0-.4-.4-.4-.4-.4s0 .4.4.4v.3h-.8V27l-.3-.4c0 .4 0 .4.3.4 0 0-.3 0-.3.3h.3zm-.4 1.2h.3v-.4s0 .4 0 0v.4h-.3zm1.6-17.3v-.4l.4.4c.3-.4 0-.4 0-.4 0-.4-.4-.4-.4-.4V11.6h-.3c-.4-.4-.4-.4-.9 0h1.1c.1 0 .1 0 .1-.4zm-.8 28.4c0-.4 0-.4-.4-.4 0 .4 0 0 .4 0v.4zm0-25.7h.4v.4s-.4 0-.4-.4zm0 5.2v.3-.3zm.8-5.9c-.3 0-.3 0-.3.4 0 0-.4 0 0 0-.1-.4-.1-.4.3-.4zm-.4 11.4v.4-.4zm.8.8h-.4.4zm5.5-9.1c-.4-2.4-2.8-2.8-4.3-2h-.4c-.4.8-1.2 1.2-.8 2v1.2c0 .4-.4.9 0 .9.3 1.5 0 2.7 0 3.9v1.2c.3.8.8.8 1.2 1.2.8.4 2 .4 3.1-.4.8-.3 1.2-1.2 1.6-1.9v-3.1c0-1-.4-2.2-.4-3zm-4.7 10.2h-.4c0 .4 0 .4.4.4v-.4zm.4-15.3s0-.4 0 0c0 0 0 .4.4.4l-.4-.4zm0 1.2V12v.4zm0 14.9V27v.3zm.4-16.5v-.4.4zm.8 17.3c.3 0 .3.4.8.8h.4c.4.4.4.4.8-.4l.4.4v-.8h.3-.3v.4h-.8c0-.4.4-.4 0-.4h-.4c0 .4 0 0 .4 0 0 .4.4.4.4.4v.4H110c0-.4-.5-.8-.8-.8v-.4.4zm.8-16.2h-.4c0 .4.4.4.4.4v-.4zm0 14.6c.4 0 .4-.3.4-.3s-.1.3-.4.3zm.3-14.6v-.3c-.3 0-.3.3 0 .3h.4-.4zm1.2 15.1c-.4 0-.4.3-.4.3h.4s0 .4 0 0V27h.3c0-.4-.3-.4-.3-.4v.4zm.8-1.6v1.1c.4.4.4 0 .4 0 0-.3 0-.3-.4-.8v-.3h-.4v.4h-.3.3v-.4h.4zm-.8 4.7v.4h.3-.3v-.4zm0 2.4v.4l.3-.4h-.3zm0 1.2h.3-.3zm.4-2h.4c0-.4-.4-.4-.4-.4v.4zm.4-18.5s-.4 0 0 .4h.4c0-.4-.4-.4-.4-.4zm0 20c0 .4 0 .4.4.4-.4.1-.4.1-.4-.4zm.4 2 .4-.4.4.4v-.4l-.4-.4h-.4l-.4-.4v.4s0 .8.4.8c0 .4 0 .4.4 0h-.4zm0-22.5h.4v.4l.4-.4h-.8zm0 20.5v-.3.3zm.4 4c-.4 0 0 0 0 .4 0-.4.4-.4 0-.8v.4zm.8-23.3v-.4c-.4 0-.4.4-.4.4h-.4.8zm-.8 22.5V36v.4zm0 2h.4s0-.4-.4 0zm.4-14.2h.4-.4zm0 11.8v.3h.4c-.4.1 0-.3-.4-.3zm.4-21.3h.3-.3zm0 3.2h.3-.3zm.4 4.7s-.4 0 0 0v.4-.4h-.3.3zm-.4 14.6s.3 0 .3-.4c-.3 0-.3 0-.3.4zm.4 2h-.3.3zm0 1.6c0 .3 0 .3.4.3h-.4.4c-.4 0-.4-.3-.4-.3h.4-.7.3zm0-20.9v.4-.4zm1.2-3.6c-.4 0-.8 0-.8.4h.8v-.4zm-.5 2.8h-.3c0 .3.3.3.3 0v.3-.3zm-.3 18.9v-.4.4zm0 .7v.8c.3 0 .3 0 .3-.4h-.3v-.4zM115 21h.4-.4zm.5-1.6v.4-.4zm0 22.1v-.4.4zM127 20.3c.4.8.8 1.2 1.2 1.9.3.4.8 1.2 1.2 1.6 1.2.7 1.5 1.5 2.4 2.8.8.4 1.2 1.2 2 1.6.8 1.5 1.2 2.8 1.6 4.3.8 2 .4 4 .4 5.6 0 2-.8 3.6-2 4.8-.8.7-2 .7-2.8 1.2h-1.2c-.4.4-.8.4-1.2 0h-1.5c-.4-.4-.4-.4-.8-.4h-.7c-1.3-.7-2-1.5-2.5-2.8-.3-.8-1.2-1.6-.7-2.8-.4-.4-.4-.7-.4-1.2 0-.4-.4-1.2 0-1.6.4 0 .4 0 .4-.3 0-.8.7-.8 1.2-1.2.8 0 1.6 0 2 .4.3.4.3.8.3.8 0 1.2.8 2.4.8 3.5v.4c.8.4 1.6 1.2 2.4.8h.8l1.2-1.2c.4-.4.8-.8.8-2-.4-2-.8-4-2-5.6-.8-1.2-1.9-1.5-2.4-2.8-.8 0-1.2-.8-1.2-1.2-.7-.4-.7-.8-1.2-1.6-1.2-.8-1.6-2-2.4-3.2-.4-.7-.4-1.9-.4-2.8 0-.8 0-1.6-.4-2.8v-.4c.4-.8.4-2 .8-2.7 0-1.2.8-2 1.5-2.8 1.3-1.2 2.8-1.5 4.3-1.5h1.2c0 .4 0 .4.4.4 1.2-.4 2.4 0 3.2.8 1.2 1.2 1.9 2.4 1.9 3.9.4.4.4 1.2.4 1.6V17c0 .4-.4.8-.8 1.2-.8.4-1.5 0-2.4 0-.4 0-.4-.4-.4-.4-.4-.8-.8-1.2-.4-1.9v-.4c-.4-.4-.8-1.2-1.5-1.6 0-.3-.4-.3-.4-.3-.8 0-1.2 0-1.2-.8 0 0-.3 0 0 .4 0 .4 0 .4-.3.8-1.6.8-2 2-1.6 3.2v.4c0 .4-.4.4-.4.4 0 .7.4 1.5.8 2.3zm-3.2-4.8c0-.4.4-.4.8-.8.4 0 .4.4.4 0l-.4-.4c-.4.4-.4 0-.4 0-.4 0-.4-.4-.4 0h.4v.4c-.4.4-.4.4-.4.8h-.4c0 .4.4.4.4.4v-.4zm-.4 1.6h.4-.4zm.4 21.8h-.4.4zm0-22.2v-.4.4zm0 18.6v.4-.4zm.4-13.1h.4-.4zm0 16.3v.4c.4 0 .4.4.8 0 0-.4 0 0 0 0-.4 0-.4-.4-.4-.4h-.4zm.8-26.1V12h-.4c.4-.1.4.4.4.4zm-.4 3.9v.4-.4zm0 2.4v-.4.4zm0 18.6v-.4.4zm.9-16.2h-.4.4zm-.5 1.6c.4.4.4 0 .4 0h-.4zm0 18.6h.4-.4zm.5-29.4h.3-.3v.4-.4zm.3 12.3v-.3.3h-.3.3zm0-11.4v.4-.4zm0 1.1h.4v-.3h-.4v.3zm0 7.2v-.4.4zm0 1.9v-.4.4zm0 17.4v-.3.3zm.8-18.6h-.4s.4.4.4 0zm-.4 2.1v-.4.7c.4 0 .4 0 0-.3zm.4 18.2v.4-.4zm.4-30.2h.4s0 .4 0 0v-.8c-.4 0-.4.4-.4.4v.8-.4zm0 11.1c0 .4.4.4.4 0h-.4zm.4 2.4c-.4 0-.4.4-.4.4h.4v-.4zm1.1-15h-.3.3v.3h-.7c.4.4.4 0 .4 0h.3v-.3zm-.7 1.2h.4-.4zm.7 13.4c0-.4-.3-.4-.3-.4h-.4c0 .4.4.4.4.4h.7c.1-.4-.4 0-.4 0zM128.2 25.8c-.4 0-.4.4 0 .4v-.4zm1.2 2.4v-.4h.4-.4v-.4s.4-.3 0-.8v-.4h.4-.4v.4l-.4.4v-.4.7h.4c0 .4 0 .4-.4.8.4 0 0 0 0 0l.4.1h.4-.4zm-.4 13.5s.4 0 0 0h.4-.4zm.4-31v.4l.4-.4h-.4zm.4 1.2s-.4 0 0 0l-.4-.4s0 .1.4.4zm.4-.8.4-.4h-.4v.4h-.4s.4.4 0 .4h.4-.4v-.4h.4zm0 15.5h-.4.4zm-.4 15.9h.4s-.4 0 0 0c.4-.4 0 0 0 0h-.4zm.8-1.6h-.4v.4h.4v-.4zm0-13.5v.4-.4zm.3 1.6.4.4c0-.4-.4-.4-.4-.4l.4-.4c0 .4-.4.4-.4.4zm.4-16.2v.4-.4s-.4 0 0 0zm0-1.2v.4-.4l.4.4c0-.4-.4-.4-.4-.4zm0 19.4v.4-.4zm.4-2h.4-.4zm.4 1.6h-.4.4zm0 1.9c.4-.3 0-.3 0-.3v.3zm.5-2.7v.4c-.4 0 0 0 0 0h.4v-.4h-.4zm0-17.9c0-.4.4-.4 0-.4v.4zm0 2.8v-.4.4zM132.9 11.9v.4-.4zm0 2.4v.4-.4zm.5 2.4h-.4c-.1 0 .4.4.4 0zm0 16.2h-.4v.4c.4 0 .4 0 .4-.4zm0-17.4v.4-.4zm.3 19.8c0-.3 0-.3-.3-.3v.3h.3zm0-20.2v-.4.4zm0 18.7h.4c-.4 0-.4-.5-.4 0zm0 5.9v-.4.4zm.4-24.2s.4 0 .4.4v-.4h-.4zm0 20.2s0 .4.4.4v-.4h-.4zM140.7 33.5v-5.1c.4-.4.4-.4 0-.8v-2.8c0-.8.4-1.6 0-2.3v-4.3c-.4-1.5 0-3.1 0-4.6V12c-.4-1.2 0-1.6.8-2 .4-.4.8-.4.8-.4.4-.4.8-.4 1.2 0 0 0 .4 0 .8.4s.8.8.8 1.6c-.3.8 0 2 0 2.7 0 .8 0 2-.8 2.4 0 .4 0 .4.4.4.3.4.3 1.2.3 1.5 0 .8.4 1.6-.3 2.4v.4c.3.4.3 1.2.3 1.5-.3 1.2 0 2 0 2.8 0 .8 0 1.2-.3 2 0 1.2 0 1.9.3 3.1 0 .7 0 1.5-.3 2.3 0 .4 0 1.2.3 1.9v2.8c-.3.4-.3.8 0 1.6v3.1c-.3.8-.3 1.2-1.2 1.6-.8 0-1.5.8-2.4 0-.4-.4-.4-.8-.8-1.2-.4-1.2 0-2.4 0-3.9v-2.4c.1-1.1.1-2.3.1-3.1zm1.2-18.8v.4h.4c0-.4 0-.4-.4-.4zm.4 3.1c-.4 0-.4.4-.4.4h.4v-.4zm1.1 14.9c-.4-.4-.4-.4-.8-.4 0-.4 0-.8-.8-.8.8.8.8.8 0 1.2.4.4.4 0 .8-.4.4.4.4.8.8.4zm-1.1-18.4h.4-.4zm.3 2.4h-.4v-.4.4h.4zm-.3.4v.4-.4zm0 2.3h.4-.4zm0 1.6v-.4.4zm.7 7.8c-.4 0-.4 0-.4.4h-.4c.4 0 .8 0 .8-.4zm-.7 1.6v.4c.4 0 .4.4.4.4v-.4c-.1 0-.1 0-.4-.4.4 0 .8 0 .4-.4h-.4c.4 0 .4 0 .4-.4-.4 0-.4 0-.4.4v.4zm0 3.5c.4-.4 0-.4 0-.4v.4zm.3 6.6v-.3s0 .3-.4.3c.1.4.4 0 .4 0zm0 2h-.4.4zm.4-28.9h-.4.4zm-.4 1.5c.4.4.4 0 .4 0h-.4zm0 3.5.4.4v-.4l-.4-.4v.4zm0 2.8.4.4v.4-.4s.4 0 .4.4v-.4c0-.4 0-.4-.8-.4v.4-.4zm0 1.9v.4-.4h.4-.4zm0 4.7h.4v-.4c-.4-.4 0-.4 0-.4s0-.4 0 0c-.4 0-.4 0 0 .4-.4 0-.4 0-.4.4zm0 8.6c.4.4.4.4.8 0h-.8zm0 2.4s0 .4.4.4V39h-.4zm.4-27v.4h.4c-.4 0-.4 0-.4-.4zm0 1.6h.4-.4zm0 3.5v.4-.4c.4 0 0 0 0-.4v.4zm.4 3.1c0-.4 0-.4-.4-.4 0 0 0 .4.4.4zm0 17.2v.4-.4h-.4.4zm0-2.8c-.4 0-.4 0 0 0 0-.3 0-.3 0 0zm.4-16h-.4.4zm-.4 20.4v.4-.4zm0 1.9c.4 0 0-.4 0-.4v.4zM164.1 14.9c0 .8-.4 2-.4 2.8-.4.8-.4 1.5-.4 2.4 0 .8-.5 1.5-.5 2.4-.4 2-.8 3.6-.8 5.2v.4c-.8 1.9-.8 4-1.2 5.9-.4 1.3-.4 2.8-.7 4.4 0 .8-.4 1.2-.4 2-.4.7-.4 1.1-.4 2 0 .4-.5 1.2-.9 1.6-1.2.8-3.1.4-3.6-1.2-.4-.9-.8-2-.4-2.8 0-.4 0-.4-.4-.4v-1.2c-.4-.8-.4-1.6-.4-2 0-1.2-.7-2.4-.4-3.1-.3-.8 0-1.6-.3-2.4-.4-.8-.4-1.2-.4-2 0-1.6-.4-2.8-.8-4l-.4-.4c.4-1.2-.5-2.4-.5-3.6 0-.4 0-.8-.4-1.2v-.4c.4-.8 0-1.2 0-1.9-.4-1.2-.8-2-.8-3.2 0-1.2-.4-1.9-.4-3.1 0-1.2.8-2 2-1.6h.8c.8 0 1.2.4 1.5 1.2.4 1.2.4 2.4.8 4 0 1.6 0 3.2.4 5.2.5 2.4 1.3 4.8 1.3 7.1v1.3c0 1.2.4 1.9.4 3.2v.4c.4.4.4.8.4.8.4 0 .4-.4.4-.8 0-1.6.4-3.2.8-4.8 0-1.2.4-2.3.4-3.5 0-1.6.4-3.2.9-4.8.4-1.6.4-3.2.4-4.8.4-.8.4-2 .7-2.8 0-1.2.8-1.6 1.5-1.6.8-.4 1.3 0 2.1 0 .8.4.8 1.2.8 2-.3 1-.3 2.1-.7 3.3zM150.9 11c.5.4.5.4.9 0h-.9zm.5.7h.4c-.4 0-.4 0-.4-.3v.3zm.8 1.6v-.4h-.4.4v.4zm0 1.2c0 .4 0 .4.4.4l-.4-.4zm.4 1.6v-.4c-.4 0-.4 0-.4.4s.4.8.4 1.2v-1.2zm0 4h-.4c0 .4.4.4.4.4v-.4zm0-.4v-.4.4zm.4-4.8v.4-.8.4zm0 4h.3-.3zm.4 2.7-.3-.4s-.1.1.3.4zm-.4 3.7h.3c.1-.4-.3-.4-.3 0zm.7-5.6s0-.4-.4-.4v.4h.4v.4-.4zm-.3 4.4v.4-.4zm.7.8-.4-.4v.8c.4 0 .8.4.8.8h-.4l.8-.8H153.7v-.4h.8-.4zm0-.8h.4-.4zm0 2.3v.4-.4zm.4 1.3-.4.4v.4c.4 0 .4-.4.4-.4v-.4zm.9 1.5h-.5v-.4.4h.5zm0 3.3s.4 0 .4-.4h-.4v.4zm.4.7s0 .4.4.4v-.4h-.4zm0 2.4v.4-.4zm0 3.2h.4-.4zm0 .4h.4-.4zm0 2.3h.4-.4zm.7-3.1h-.4.4zm0 3.5v-.4.4c-.4.5 0 .5 0 .5v-.5zm0-5.5V36v.4zm.4.8c-.4.4 0 .4 0 .4v-.4zm0-.4c.4 0 .4 0 .4-.4h-.4v.4zm0 2.8.4-.4h.4c0-.4-.4 0-.4 0h-.4v.4zm.4-6h.4-.4zm.5 3.6h-.4l.4.4h.8c-.4-.4-.4 0-.8 0v-.4zm.3 2.8c-.4-.4-.8-.4-.8 0h.8zm-.3-4.8v.4-.4zm.3 6.3h-.4.4zm.8-10.2h-.4.4zm-.4 6.7h.4-.4zm.4.8h-.4.4zm.5-8.4h-.5c-.4.4 0 .4 0 .4s.5 0 .5-.4c.4 0 .4 0 .4.4 0-.4 0-.4-.4-.4zm-.5 3.6v-.3.3zm.5-8.3v.4-.4zm.8.7h-.4s-.4 0-.4.4h.4s.4 0 .4-.4zm-.4 2.1v.4-.4zm.4.7-.4.4s.4 0 .4-.4zm.7-11.5c.4-.4.4-.4 0-.8-.4.5 0 .5 0 .8h-.4c0-.4 0 0 0 0s.4 0 .4.4v-.4zm-.4 6v.4h.4l-.4-.4zm1.2-4.8h-.8s-.4 0 0 .3v-.3h.4v.3c0 .1.4.1.4-.3h.4-.4zm-.8-2.8h.4-.4zm1.1-.3c0-.4-.4-.4-.4-.4.1.4.4.4.4.4h.4-.4zm-.3.7h.4-.4zm0 .9h.4-.4zm.3-5.7V11v.4c-.3.3-.3.3 0 .3v.5-.5zm0 .9v.4h.4c.1-.4-.4-.4-.4-.4zm.5 1.1h-.4.4zm0 .8h-.5v.4h.4s.1 0 .1-.4zm.4-1.9c-.4 0 0 .4 0 .4v-.4zm0-1.2v.3l.5-.3h-.5zM180.2 9.2c1.6 0 2.4.8 2.4 1.9 0 1.7-.8 2.4-1.9 2.4-1.7.4-2.8.4-4 0-.8 0-1.2.4-1.6.8-.8.4-1.2.7-1.2 1.5v5.9c0 1.2 1.2 2.4 2.3 2.4.8 0 1.6 0 2.4-.4.8 0 1.5.8 2.1.8.3 0 .3.4.3.4.4.8.8 2 0 2.7-.3.8-.9 1.2-1.2 1.2h-3.6c-.8 0-2 .4-2 1.2-.3 1.2-.3 1.9-.3 3.1v2.4c0 .8 0 1.6.3 2.4.4 1.1 2 1.6 3.2 1.1 1.2 0 2.4 0 3.6.5.8 0 1.2.3 1.2 1.1.3.5.3 1.2.3 1.7 0 .7-.8 1.5-1.5 1.5-3.1.4-6.4.4-9.1.4-1.6 0-2.3-.8-2.3-2.4v-5.9c.4-.7 0-1.5 0-2.8v-3.5c.4-.8 0-1.6.4-2.4.3 0 0 0 0 0-.4-1.1-.4-1.8-.4-3.1v-1.6c.4-2 0-3.6 0-5.2v-5.1c.4-.4.4-1.3.4-1.6 0-1.2.8-1.5 1.5-1.5h4.3c1.7.1 3.2.1 4.4.1zm-8.6 4.8s-.4 0-.4.4h.4V14h-.7c.3.4.3 0 .7 0zm-.8 2.4V16v.4zm.4 8.2c-.4 0 0 0 0 0l-.3.4s-.1 0 .3-.4zm0 6.8-.3.3h.3s.4 0 .8.4v-.4c-.4 0-.4 0-.8-.3zm.7-14.7s.5-.3 0-.8c0 .4 0 .4-.4.4h-.4c-.3 0 0 .3 0 .3v.5-.5l.4.5h.4v-.4zm-.3-4.3c-.4 0-.4 0-.4.4v-.4h.4zm0 5.9h-.4v.4h.4v-.4h-.4v-.4.4h.4zm0 1.6h.4s0-.4-.4-.4v-.4.4c.4 0 .4.4.4.4h-.8.4zm-.4 1.2s0-.4 0 0h.4-.4zm.4 2.3h-.4.4zm-.4 3.6h.4s0-.4-.4-.4v.4zm0 .7h.4-.4zm0 .9h.4-.4zm0 1.5v.4c.4 0 .4 0 .4-.4h-.4zm0 5.6v.8-.8zm.4-24.1c.4 0 .4-.4.4-.4s-.1 0-.4.4zm0 14.2v.4-.4zm0 9.1v.4-.4zm.3-22.9v.4-.4zm0 1.6v.4-.4zm.5 9.5c0-.4.3-.4.3-.4-.3 0-.3 0-.3-.4h-.5c0 .4 0 .4.5.4h.3c.1 0-.3 0-.3.4zm-.5 1.2v-.4.4zm0 2.7c0 .3 0 .3.5.3V27h-.5zm0 .7s0 .4 0 0v.4-.4zm.5 6.4v-.4c-.5 0-.5.4-.5.4h.5zm0 1.2s.3-.4 0-.4l-.5.4v.3c.5.1.5-.3.5-.3zm0 5.4h-.5.5v-.3h-.5v.3s0 .5.5 0zm0-27.8.3.3v-.3h-.3zm.4.7h-.3.3zm-.4.4v.4-.4zm0 7.9s0 .4.3.4v-.4c0-.4 0-.4-.3-.4v.4zm0 9v-.3.3zm.4-20.5v.3c0 .4 0 .4.4.4-.4 0 0-.4-.4-.4v-.3zm0 13v.4-.4zm.4 16.3h-.4c0 .3.4.3.4.3v-.3zm0-11.1h.4c0-.4 0 0 0 0h-.4v-.4.4zm.4.3h-.4.4zm0-2.3v.4-.4zm0 .7v.4-.4zm0 13.9.4.3s-.4.4 0 .4v-.4s0-.3-.4-.3zm1.1-15.4v.8h-.4c0-.4 0-.4-.3 0h.7s.4-.4 0-.8c-.4 0-.4 0-.4-.3 0 .3 0 .3.4.3zm-.7 1.5h.3-.3zm0 13.1v-.7 1-.3zm.7-28.8v.4-.8c-.4.4 0 .4 0 .4zm0 1.6h.4-.4zm.8 27.5h-.4c0-.3-.4-.3-.4 0 0 .5 0 .5.4.5l.4-.5zm.4-29.5c-.4 0-.4 0-.8-.4 0 .4 0 .8.4.4h.4zm-.8 14.3.4.3v-.3h-.4zm1.2 17.3.4-.4v.4-.4c0-.5 0-.5-.4-.5v.5s0 .4-.4 0h-.4v-.5.5c.4 0 .4.4.8.4l-.4.3.4-.3zm0-1.3h.4-.4zm.4-29.9v.4s-.4 0 0 0v-.4zm0-.8v-.3.3zm.4 1.2-.4.4h.4V12zm-.4 15v.3-.3zm.4-16.6v.3h.4c0 .1 0-.3-.4-.3zm1.2.4h.3v-.3h-.3v.3zm0 15.4v.4-.4zm0 14.5v-.3.3zm0 .5h.3-.3zm1.6-.5c0-.3 0-.3-.4-.3v.3h-.5.9zm-.4-29.5s.4.4.4 0h-.4zm.4 30.7h.3-.3v-.4.4zM194.1 44.4c-1.6-.4-2.8 0-4.3 0-.3 0-1.1-.4-1.5-.4-.8-.4-1.2-.8-.8-1.5v-3.9c0-1.6 0-3.1-.4-4.3 0-.8.4-1.5.4-2.3-.4-1.3 0-2.8-.4-4v-.4c0-.4.8-.7.4-1.2 0-.4-.4-.7-.4-1.2.8-1.9 0-4.3 0-6.2 0-1.2.4-2.4.4-3.5v-.4c-.4-1.5 0-2.7 0-3.9 0-1.2 1.2-1.9 2-1.9 1.5.4 1.9.8 1.9 2.3 0 1.2.4 2.4 0 3.5.4 2 0 3.5 0 5.5.4.8.4 1.6 0 2V26c0 .8.4 1.5 0 2.4-.4 0 0 .4 0 .7 0 2 0 4 .4 5.9 0 .8-.4 1.5 0 2.3 0 1.2.8 2 2.4 2h3.1c.4 0 1.2 0 1.5.3h.4c.4.8 1.2 1.6.8 2.8-.8 1.5-1.2 2-2.4 2h-3.5zm-5.5-24.2h-.4.4zm-.4 10.5c.4 0 .4.4.4 0h-.4v.4-.4zm.4-18.7v.4c.3-.4 0-.4 0-.4zm.3 2v.4-.4h-.3.3zm0 3.8v-.4s0-.3-.3-.3c0 .3.3.3.3.3v.4zm-.3 1.6V19v.4zm0 5c0-.3.3-.3 0-.3v.3c.3 0 .3 0 .3.4 0-.4 0-.4-.3-.4zm.3 5.6h-.3.3zm0 2.3h-.3v.3c.3.1.3.1.3-.3zm-.3 2.3v.4h.3c-.3-.4 0-.4-.3-.4zm.3 7.1v-.4c0 .4 0 .4-.3.4h.3zm0-18.8h.4c0-.3-.4-.7-.4-1.2v.4-.4c-.3.5 0 .9 0 1.2zm0 16s-.3 0 0 .4v-.4c.4 0 .4-.3.4-.3h-.4v.3zm.5-25.3c-.4 0-.4-.4-.4 0h.4v-.8.8zm.3 7v-.4h-.3c0-.4 0-.4-.4-.4 0 0 0-.4 0 0v.4c.4.4.4 0 .4 0 0 .4 0 .4.3.4zm-.8 5.8c.4 0 .4 0 .4-.4v-.7.4c-.4 0 0 .3 0 .3s-.4 0-.4.4v.4h.4c0-.4 0 0-.4 0v-.4zm0 10.9V37v.3zm.5 2.8v.3l.3-.3c-.3 0-.3-.4-.3-.4-.5 0 0 .4 0 .4zm0-24.6h.3-.3zm0 1.2s0-.4 0 0c.3 0 .3 0 .3.4 0-.4 0-.4-.3-.4zm.3 2.3h-.3.3zm-.3 9.8v-.4.4zm.3 4.3v-.4s-.3 0-.3.4h.3zm-.3.8v.3-.3zm0 1.1h.3-.3zm.7-23.8h-.4.4zm-.4 4.8h.4-.4zm0 5.7h.4-.4zm0 2v-.3.3zm0 2v.3-.3zm.4.7h-.4.4zm-.4 1.2v.4c.4 0 0-.4 0-.4.4 0 .4 0 .4-.4-.4 0-.4.4-.4.4zm.4 7h-.4.4zm-.4 1.6v-.4.4zm0 .8v-.4.4zm0 1.9h.4s-.4 0-.4-.3v.3zm.4 2v.4c0 .4-.4.4-.4.4v.3-.3s.4 0 .4-.4v-.4zm0-21.1v.4-.4zm0 1.2v.4l.4-.4h-.4v.4-.4zm0 15.2v-.4.4zm0 3.1h.4-.4zm0 .8v-.4.4zm.4 1.9h-.4.4zm.4-1.1v.4-.4zm0 1.9v-.4.4zm.8-1.5c0 .4 0 0 0 0 0 .4 0 .4.4 0h-.4zm0 .7h.4-.4zm.8.4-.4.4h.4v-.4zm.3-1.5h.4-.4v-.4c-.4 0 0 .4-.4.4v.4c.4 0 0 0 0-.4h.4zm0 1.1h.4v-.3.3h-.4c.4 0 .4.4.4.4s0-.4-.4-.4zm1.3-1.9v.3-.3zm0 .8h.3-.3v.4-.4zm1.5 1.5c0-.4.3-.7-.4-.7.4 0 .4.3.4.7v.4-.4h.3-.3zm.8-2h.4-.4zm1.1.5v.4-.4z" class="st1"/><path d="M.2 35.3v-4.1c.4-.3.4-.3 0-.6v-2.3c0-.7.4 2.2 0 1.6v-3.6c-.4-1.3 0-.4 0-1.6v-1.3c-.4-1 0-1.3.8-1.6.4-.3.8-.3.8-.3.4-.5.8-.5 1.2-.2 0 0 .4 0 .8.3s.8.7.8 1.3c-.3.6 0-.6 0 0s0 1.6-.8 2c0 .3 0 .3.4.3.3.3.3 1 .3 1.3 0 .7.4 1.3-.3 2v.3c.3.4.3-2.5.3-2.2-.3 1 0 1.6 0 2.3s0 1-.3 1.6c0 1 0 1.6.3 2.6 0 .6 0 1.2-.3 1.9 0 .3 0 1 .3 1.6v2.3c-.3.4-.3.7 0 1.3v2.6c-.3.6-.3 1-1.2 1.3-.8 0-1.5.6-2.4 0-.4-.3-.4-.7-.8-1-.4-1 0-2 0-3.2v-2c.1-.9.1-1.9.1-2.6zm1.2-12v.3h.4c0-.3 0-.3-.4-.3zm.4 2.6c-.4 0-.4.3-.4.3h.4v-.3zM3 34.7c-.4-.4-.4-.4-.8-.4 0-.3 0-.6-.8-.6.8.6.8.6 0 1 .4.3.4 0 .8-.4.4.4.4.7.8.4zM1.8 23h.4-.4zm.4 1.9h-.4v-.3.3h.4zm-.4.3v.3-.3zm0 2h.4-.4zm0 1.3v-.3.3zm.8 3c-.4 0-.4 0-.4.3h-.4c.4 0 .8 0 .8-.3zm-.8 1.3v.3c.4 0 .4.3.4.3v-.3l-.4-.3c.4 0 .8 0 .4-.3h-.4c.4 0 .4 0 .4-.4-.4 0-.4 0-.4.4v.3zm0 2.9c.4-.3 0-.3 0-.3v.3zm.4 5.4v-.3s0 .3-.4.3c0 .4.4 0 .4 0zm0 1.7h-.4.4zm.4-18.2h-.4.4zm-.4-1c.4.3.4 0 .4 0h-.4zm0 2.9.4.4v-.4l-.4-.3v.3zm0 2.3.4.4v.3-.3s.4 0 .4.3v-.3c0-.4 0-.4-.8-.4v.4-.4zm0-1.9v.3-.3h.4-.4zm0 3.9h.4v-.3c-.4-.3 0-.3 0-.3s0-.4 0 0c-.4 0-.4 0 0 .3-.4 0-.4 0-.4.3zm0 7.1c.4.3.4.3.8 0h-.8zm0 2s0 .3.4.3v-.3h-.4zm.4-16.7v.3H3c-.4.1-.4.1-.4-.3zm0 1.4H3h-.4zm0 .6v.3-.3c.4 0 0 0 0-.3v.3zm.4 2.6c0-.3 0-.3-.4-.3 0 0 0 .3.4.3zm0 10.8v.3-.3h-.4.4zm0-2.3c-.4 0-.4 0 0 0 0-.3 0-.3 0 0zm.4-9.8H3h.4zM3 40.2v-.3.3zm0 1.3c.4 0 0-.4 0-.4v.4zM91.8 9.2h4.3c.7 0 1.5.4 1.5 1.5 0 .4 0 1.3.4 1.6v5.1c0 1.5-.4 3.2 0 5.2v1.6c0 1.3 0 2-.4 3.1 0 0-.3 0 0 0 .4.8 0 1.6.4 2.4v3.5c0 1.3-.4 2.1 0 2.8v5.9c0 1.6-.7 2.4-2.3 2.4-2.8 0-6 0-9.1-.4-.8 0-1.5-.8-1.5-1.5 0-.5 0-1.2.3-1.7 0-.7.4-1.1 1.2-1.1 1.2-.5 2.4-.5 3.6-.5 1.2.5 2.8 0 3.2-1.1.3-.8.3-1.6.3-2.4v-2.4c0-1.2 0-1.9-.3-3.1 0-.8-1.2-1.2-2-1.2h-3.6c-.3 0-.9-.4-1.2-1.2-.8-.7-.4-1.9 0-2.7 0 0 0-.4.3-.4.5 0 1.3-.8 2.1-.8.7.4 1.5.4 2.4.4 1.2 0 2.3-1.2 2.3-2.4v-5.9c0-.8-.3-1.2-1.2-1.5-.4-.4-.8-.8-1.6-.8-1.2.4-2.3.4-4 0-1.1 0-1.9-.7-1.9-2.4 0-1.1.8-1.9 2.4-1.9 1.3-.1 2.8-.1 4.4-.1zm5.1 4.8h-.7v.4h.4c0-.4-.4-.4-.4-.4.3 0 .3.4.7 0zm0 2v.4-.4zm0 9-.3-.4s.3 0 0 0l.3.4zm-1.1 6.7v.4c.4-.4.8-.4.8-.4h.3l-.3-.3c-.5.3-.5.3-.8.3zm0-14.5h.4l.4-.5v.5-.5s.3-.3 0-.3h-.4c-.4 0-.4 0-.4-.4-.5.4 0 .8 0 .8v.4zm.7-4.8v.4c0-.4 0-.4-.4-.4h.4zm0 5.9v-.4.4h-.4v.4h.4v-.4h-.4.4zm0 1.6h-.8s0-.4.4-.4v-.4.4c-.4 0-.4.4-.4.4h.8zm-.4 1.2h.4c0-.3 0 0 0 0h-.4zm.4 2.3h-.4.4zm0 3.2c-.4 0-.4.4-.4.4h.4v-.4zm-.4 1.1h.4-.4zm0 .9h.4-.4zm0 1.5c0 .4 0 .4.4.4v-.4h-.4zm.4 5.9v.4-.8.4zm-.7-24.8s0 .4.4.4l-.4-.4zm.3 15v-.4.4zm0 9.1v-.4.4zm-.3-22.9V12v.4zm0 1.6v-.4.4zm-.9 8.7h.3c.5 0 .5 0 .5-.4h-.5c.1.4.1.4-.3.4 0 0 .3 0 .3.4.1-.4-.3-.4-.3-.4zm.9 1.1v.4-.4zm-.5 3.2v.3c.5 0 .5 0 .5-.3h-.5zm.5 1.1v-.4c0 .4 0 0 0 0v.4zm0 6s0-.4-.5-.4v.4h.5zm0 1.6v-.3l-.5-.4c-.3 0 0 .4 0 .4s0 .3.5.3zm0 5v-.3h-.5v.3h.5-.5c.5.5.5 0 .5 0zm-.9-27.8v.3l.3-.3h-.3zm.4.7H95h.3zm0 .8V14v.4zm0 7.1c-.3 0-.3 0-.3.4v.4c.3 0 .3-.4.3-.4v-.4zm0 9v.3-.3zm-.4-19.7c-.4 0 0 .4-.4.4.4 0 .4 0 .4-.4v-.3.3zm0 13v-.4.4zM94.6 40s.4 0 .4-.3h-.4v.3zm0-11.9v.4h-.4s0-.4 0 0h.4v-.4zm0 .8h-.4.4zm-.5-1.9v-.4.4zm0 .7v-.4.4zm-.4 13.8v.4c.4 0 0-.4 0-.4l.4-.3c-.4 0-.4.3-.4.3zm-.3-16c0 .3 0 .3-.4.3-.4.4 0 .8 0 .8h.7c-.3-.4-.3-.4-.3 0H93v-.8c.4 0 .4 0 .4-.3zm0 1.8h.3-.3zm.3 13.4v-1 1zM93 11.2v.8-.4s.4 0 0-.4zm-.4 2h.4-.4zm0 28c.4 0 .4 0 .4-.5 0-.3-.4-.3-.4 0h-.4l.4.5zm-.4-30c.4.4.4 0 .4-.4-.4.4-.4.4-.8.4h.4zm0 14.3v.3l.4-.3h-.4zm-.4 17.6-.4-.3c.4 0 .4-.4.8-.4v-.5.5h-.4c-.4.4-.4 0-.4 0v-.5c-.4 0-.4 0-.4.5v.4-.4l.4.4.4.3zm-.8-1.6h.4-.4zM91 12c.4 0 0 0 0 0v-.4.4zm0-1.6v.3-.3zm-.4 2h.4l-.4-.4v.4zm.4 14.9V27v.3zm-.8-16.5h.4v-.3c-.4-.1-.4.3-.4.3zm-.8-.4h-.3v.3h.3v-.3zm0 16.2v-.4.4zm0 13.8v.3-.3zm-.3.8h.3-.3zm-.9-.5h.4-.4v-.3c-.4 0-.4 0-.4.3h.4zm-.4-29.5c0 .4.4 0 .4 0h-.4zm0 30.3v.4h-.3.3v-.4zM143.6 2.5c.3-.6-1.4 3-1.2 2.4.3-.6.4-.9.8-1.6.1-.3.3-.6.3-.6.5-.2.5-.2.3-.6.3-.7-.9 1.7-.4.8.3-.7.9-1.1.9-1.8.6-1.3-1.1 2.3-.5 1 .3-1.4-.8 1.7-.3.6.2-.3.5-1 .6-1.3.1-1.1.6-1.3 1.4-1.3.5-.1.8 0 .8 0 .5-.2.8 0 .9.4 0 0 .3.1.5.6s.3 1 0 1.6c-.6.5-.8 1.6-1 2.2-.3.6-.8 1.6-1.5 1.6-.1.3 1.9-3.9 2.3-3.8.1.4-.2 1.1-.3 1.4-.3.7-.2 1.2-1.1 1.5l-.1.3c.1.5 1.9-3.2 1.7-2.9-.7.8.7-1.4.4-.8s-.4.9-1 1.4c-.4.9-.7 1.5-.9 2.6-.3.6 1.5-3.1.9-2.5-.1.3-.4.9-.5 1.7-.3.7 1.6-3.2 1.1-2.3-.4.2-.6.5-.6 1.3-.3.6-.7 1.5-1.2 2.5-.6.5-.7.8-1.5.8-.6-.3-1.5 0-1.9-.9-.2-.5 0-.8-.1-1.3-.2-1.1.6-1.9 1.2-3 .3-.7-1.4 2.9-1.1 2.3.4-1 .8-1.7 1.1-2.3zM144 4l-.1.3.3.1c.1-.3.1-.3-.2-.4zm1.1-1.6c-.3-.1-.5.2-.5.2l.3.1.2-.3zm1 .5c-.1-.5-.1-.5-.4-.6.1-.3-1.8 3.6-2.4 3.3.3.9 2.4-3.3 1.6-3.3.2.5.3.1.8 0 0 .5-.1.8.4.6zm-1.7.9.3.1-.3-.1zm-.6 2-.3-.1.1-.3-.1.3.3.1zm1.6-4.1-.1.3.1-.3zm-.9 1.9.3.1-.3-.1zm-.5 1c.2-.3.1-.1 0 0-.1.3 0 0 0 0zm1.2-.7c-.3-.1-.3-.1-.5.2l-.3-.1c.3.1.6.2.8-.1zm-1.2 1-.1.3c.3.1.2.5.2.5l.1-.3c-.1-.1-.1-.1-.2-.5.3.1.6.3.5-.2l-.3-.1c.3.1.3.1.5-.2-.3-.1-.3-.1-.5.2l-.2.3zm.7-1.5c.5-.2.1-.3.1-.3l-.1.3zm-.1 1 .1-.3s-.1.3-.4.1c-.2.4.3.2.3.2zm-.8 1.5-.3-.1.3.1zm1.5-2.4-.3-.1.3.1zm-.9 1.1c.2.5.3.1.3.1l-.3-.1zm.7-1.5.1.5.2-.3-.2-.5-.1.3zm-.9 2 .1.5-.1.3.1-.3s.3.1.2.5l.1-.3c.2-.4.2-.4-.4-.7l-.2.3.2-.3zm1.3-2.7-.1.3.1-.3.3.1-.3-.1zm-.3.7.3.1.1-.3c-.2-.5.1-.3.1-.3s.2-.3 0 0c-.3-.1-.3-.1-.1.3-.3-.1-.3-.1-.4.2zM144 5.5c.2.5.2.5.6.3-.3-.1-.3-.1-.6-.3zm1.2-2.3s-.1.3.2.5l.1-.3c0-.1 0-.1-.3-.2zm.8-.9-.1.3.3.1c-.4-.1-.4-.1-.2-.4zm-.7 1.2.3.1-.3-.1zm.8-1.5-.1.3c-.1 0-.1 0 .1-.3.3.1-2.1 4.2-1.9 3.9l1.9-3.9zm-1 2.7c.1-.3.1-.3-.2-.5.1 0-.1.3.2.5zm1.3-2.5-.1.3.1-.3-.3-.2.3.2zm-1.1 2.3c-.3-.2-.3-.2 0 0 .2-.3.2-.3 0 0zm.8-.9-.3-.1.3.1zm-.3-.1-.1.3.1-.3zM145 5c.3.1.2-.3.2-.3l-.2.3zM.3 12.8c0-.7.2 3.2.2 2.6v-2.5c.3-.3-.2-1.2-.2-1.5-.3-1 .1-1.4.8-1.7.4-.3.7-.3.7-.3.3-.3.7-.3 1 0 0 0 .3 0 .7.3.4.3.7.7.7 1.4-.3.7 0 1.8 0 2.4 0 .7 0 1.8-.7 2.1 0 .3 0-4.4.4-4.4.3.3.3 1 .3 1.4 0 .7.3 1.2-.3 1.9v.3c.3.4.3-3.6.3-3.4-.3 1 .1-1.6.1-.9s0 1-.3 1.7c0 1 0 1.7.3 2.8 0 .6 0-3.4-.3-2.7 0 .3 0 1 .3 1.7v-2.5c-.3.5-.3.9 0 1.6v2.7c-.3.7-.3 1.1-1 1.4-.7 0-1.4.7-2.1 0-.3-.3-.3-.7-.7-1.1-.3-1 0-.1 0-.8 0-1-.2-1.8-.2-2.5zm1.2 1.1v.3h.3c.1-.3.1-.3-.3-.3zm.4-1.9c-.3 0-.3.3-.3.3h.3V12zm1.1.1c-.3-.4-.3-.4-.7-.4 0-.3 0 4-.7 4 .7.7.7-4 0-3.7.3.3.3 0 .7-.4.3.5.3.8.7.5zm-1.1 1.5h.3-.3zm.3 2.1h-.3v-.3.3h.3zm-.3-4.4v.3-.3zm0 2.1h.3-.3zm0 1.1v-.1.1zm.7-1.1c-.3 0-.3 0-.3.3H2c.3 0 .6 0 .6-.3zm-.7 1.4v.3c.3 0 .3.3.3.3v-.3l-.3-.3c.3 0 .7 0 .3-.3h-.3c.3 0 .3 0 .3-.4-.3 0-.3 0-.3.4v.3zm0-1.7c.3-.3 0-.3 0-.3v.3zm.3.9v-.3s0 .3-.3.3c0 .4.3 0 .3 0zm0 1.8h-.3.3zm.4-2.8h-.3s-.1-.1.3 0zm-.4 1.3c.3.3.3 0 .3 0h-.3zm0-1.6.3.4v-.4l-.3-.3v.3zm0 2.2.3.4v.3-.3s.3 0 .3.3v-.3c.1-.4.1-.4-.6-.4v.4-.4zm0-3v.3-.3h.3-.3zm.1.8h.3v-.3c-.3-.3 0-.3 0-.3s0-.4 0 0c-.3 0-.3 0 0 .3-.3-.1-.3-.1-.3.3zM2.2 15.3c.3.3.3.3.7 0h-.7zm.1-2.6s0 .3.3.3v-.3h-.3zm.3-1.2v.3h.3c-.3.1-.3.1-.3-.3zm0 1.5h.3-.3zm0-1.7v.3-.3c.3 0 0 4.7 0 4.4v-4.4zm.3 2.8c0-.3 0-.3-.3-.3-.1-.1-.1.3.3.3zM3 11.3v.3-.3h-.3.3zm-.1 2.5c-.3 0-.3 0 0 0 0-.3 0-.3 0 0zm.3-1.1h-.3.3zm-.3 0v.3-.3zm0 1.7c.3 0 0-.4 0-.4v.4z" class="st0"/></svg>